  0
SECTION
  2
HEADER
  9
$ACADVER
  1
AC1015
  9
$ACADMAINTVER
 70
     6
  9
$DWGCODEPAGE
  3
ANSI_1252
  9
$INSBASE
 10
0.0
 20
0.0
 30
0.0
  9
$EXTMIN
 10
0.0
 20
0.0
 30
0.0
  9
$EXTMAX
 10
1189.0
 20
841.0
 30
0.0
  9
$LIMMIN
 10
0.0
 20
0.0
  9
$LIMMAX
 10
1189.0
 20
841.0
  9
$ORTHOMODE
 70
     0
  9
$REGENMODE
 70
     1
  9
$FILLMODE
 70
     1
  9
$QTEXTMODE
 70
     0
  9
$MIRRTEXT
 70
     1
  9
$LTSCALE
 40
1.0
  9
$ATTMODE
 70
     1
  9
$TEXTSIZE
 40
3.5
  9
$TRACEWID
 40
1.0
  9
$TEXTSTYLE
  7
Standard
  9
$CLAYER
  8
0
  9
$CELTYPE
  6
ByLayer
  9
$CECOLOR
 62
   256
  9
$CELTSCALE
 40
1.0
  9
$DISPSILH
 70
     0
  9
$DIMSCALE
 40
1.0
  9
$DIMASZ
 40
3.302
  9
$DIMEXO
 40
1.0
  9
$DIMDLI
 40
3.75
  9
$DIMRND
 40
0.0
  9
$DIMDLE
 40
0.0
  9
$DIMEXE
 40
1.0
  9
$DIMTP
 40
0.0
  9
$DIMTM
 40
0.0
  9
$DIMTXT
 40
3.5
  9
$DIMCEN
 40
2.5
  9
$DIMTSZ
 40
0.0
  9
$DIMTOL
 70
     0
  9
$DIMLIM
 70
     0
  9
$DIMTIH
 70
     1
  9
$DIMTOH
 70
     1
  9
$DIMSE1
 70
     0
  9
$DIMSE2
 70
     0
  9
$DIMTAD
 70
     1
  9
$DIMZIN
 70
     0
  9
$DIMBLK
  1

  9
$DIMASO
 70
     1
  9
$DIMSHO
 70
     1
  9
$DIMPOST
  1

  9
$DIMAPOST
  1

  9
$DIMALT
 70
     0
  9
$DIMALTD
 70
     3
  9
$DIMALTF
 40
0.0393700787
  9
$DIMLFAC
 40
1.0
  9
$DIMTOFL
 70
     1
  9
$DIMTVP
 40
0.0
  9
$DIMTIX
 70
     0
  9
$DIMSOXD
 70
     0
  9
$DIMSAH
 70
     0
  9
$DIMBLK1
  1

  9
$DIMBLK2
  1

  9
$DIMSTYLE
  2
ISO-25
  9
$DIMCLRD
 70
     0
  9
$DIMCLRE
 70
     0
  9
$DIMCLRT
 70
     0
  9
$DIMTFAC
 40
1.0
  9
$DIMGAP
 40
1.524
  9
$DIMJUST
 70
     0
  9
$DIMSD1
 70
     0
  9
$DIMSD2
 70
     0
  9
$DIMTOLJ
 70
     0
  9
$DIMTZIN
 70
     0
  9
$DIMALTZ
 70
     0
  9
$DIMALTTZ
 70
     0
  9
$DIMUPT
 70
     0
  9
$DIMDEC
 70
     2
  9
$DIMTDEC
 70
     2
  9
$DIMALTU
 70
     2
  9
$DIMALTTD
 70
     3
  9
$DIMTXSTY
  7
Standard
  9
$DIMAUNIT
 70
     0
  9
$DIMADEC
 70
     2
  9
$DIMALTRND
 40
0.0
  9
$DIMAZIN
 70
     0
  9
$DIMDSEP
 70
    44
  9
$DIMATFIT
 70
     3
  9
$DIMFRAC
 70
     0
  9
$DIMLDRBLK
  1

  9
$DIMLUNIT
 70
     2
  9
$DIMLWD
 70
    -2
  9
$DIMLWE
 70
    -2
  9
$DIMTMOVE
 70
     0
  9
$LUNITS
 70
     2
  9
$LUPREC
 70
     2
  9
$SKETCHINC
 40
1.0
  9
$FILLETRAD
 40
10.0
  9
$AUNITS
 70
     0
  9
$AUPREC
 70
     2
  9
$MENU
  1
.
  9
$ELEVATION
 40
0.0
  9
$PELEVATION
 40
0.0
  9
$THICKNESS
 40
0.0
  9
$LIMCHECK
 70
     0
  9
$CHAMFERA
 40
10.0
  9
$CHAMFERB
 40
10.0
  9
$CHAMFERC
 40
20.0
  9
$CHAMFERD
 40
0.0
  9
$SKPOLY
 70
     0
  9
$TDCREATE
 40
2457014.597551042
  9
$TDUCREATE
 40
2457014.555884375
  9
$TDUPDATE
 40
2457014.597553009
  9
$TDUUPDATE
 40
2457014.555886343
  9
$TDINDWG
 40
0.0000000116
  9
$TDUSRTIMER
 40
0.0000000116
  9
$USRTIMER
 70
     1
  9
$ANGBASE
 50
0.0
  9
$ANGDIR
 70
     0
  9
$PDMODE
 70
     0
  9
$PDSIZE
 40
-1.0
  9
$PLINEWID
 40
0.0
  9
$SPLFRAME
 70
     0
  9
$SPLINETYPE
 70
     6
  9
$SPLINESEGS
 70
     8
  9
$HANDSEED
  5
136
  9
$SURFTAB1
 70
     6
  9
$SURFTAB2
 70
     6
  9
$SURFTYPE
 70
     6
  9
$SURFU
 70
     6
  9
$SURFV
 70
     6
  9
$UCSBASE
  2

  9
$UCSNAME
  2

  9
$UCSORG
 10
0.0
 20
0.0
 30
0.0
  9
$UCSXDIR
 10
1.0
 20
0.0
 30
0.0
  9
$UCSYDIR
 10
0.0
 20
1.0
 30
0.0
  9
$UCSORTHOREF
  2

  9
$UCSORTHOVIEW
 70
     0
  9
$UCSORGTOP
 10
0.0
 20
0.0
 30
0.0
  9
$UCSORGBOTTOM
 10
0.0
 20
0.0
 30
0.0
  9
$UCSORGLEFT
 10
0.0
 20
0.0
 30
0.0
  9
$UCSORGRIGHT
 10
0.0
 20
0.0
 30
0.0
  9
$UCSORGFRONT
 10
0.0
 20
0.0
 30
0.0
  9
$UCSORGBACK
 10
0.0
 20
0.0
 30
0.0
  9
$PUCSBASE
  2

  9
$PUCSNAME
  2

  9
$PUCSORG
 10
0.0
 20
0.0
 30
0.0
  9
$PUCSXDIR
 10
1.0
 20
0.0
 30
0.0
  9
$PUCSYDIR
 10
0.0
 20
1.0
 30
0.0
  9
$PUCSORTHOREF
  2

  9
$PUCSORTHOVIEW
 70
     0
  9
$PUCSORGTOP
 10
0.0
 20
0.0
 30
0.0
  9
$PUCSORGBOTTOM
 10
0.0
 20
0.0
 30
0.0
  9
$PUCSORGLEFT
 10
0.0
 20
0.0
 30
0.0
  9
$PUCSORGRIGHT
 10
0.0
 20
0.0
 30
0.0
  9
$PUCSORGFRONT
 10
0.0
 20
0.0
 30
0.0
  9
$PUCSORGBACK
 10
0.0
 20
0.0
 30
0.0
  9
$USERI1
 70
     0
  9
$USERI2
 70
     0
  9
$USERI3
 70
     0
  9
$USERI4
 70
     0
  9
$USERI5
 70
     0
  9
$USERR1
 40
0.0
  9
$USERR2
 40
0.0
  9
$USERR3
 40
0.0
  9
$USERR4
 40
0.0
  9
$USERR5
 40
0.0
  9
$WORLDVIEW
 70
     1
  9
$SHADEDGE
 70
     3
  9
$SHADEDIF
 70
    70
  9
$TILEMODE
 70
     1
  9
$MAXACTVP
 70
    64
  9
$PINSBASE
 10
0.0
 20
0.0
 30
0.0
  9
$PLIMCHECK
 70
     0
  9
$PEXTMIN
 10
1.0000000000E+20
 20
1.0000000000E+20
 30
1.0000000000E+20
  9
$PEXTMAX
 10
-1.0000000000E+20
 20
-1.0000000000E+20
 30
-1.0000000000E+20
  9
$PLIMMIN
 10
0.0
 20
0.0
  9
$PLIMMAX
 10
420.0
 20
297.0
  9
$UNITMODE
 70
     0
  9
$VISRETAIN
 70
     1
  9
$PLINEGEN
 70
     0
  9
$PSLTSCALE
 70
     1
  9
$TREEDEPTH
 70
  3020
  9
$CMLSTYLE
  2
Standard
  9
$CMLJUST
 70
     0
  9
$CMLSCALE
 40
20.0
  9
$PROXYGRAPHICS
 70
     1
  9
$MEASUREMENT
 70
     1
  9
$CELWEIGHT
370
    -1
  9
$ENDCAPS
280
     0
  9
$JOINSTYLE
280
     0
  9
$LWDISPLAY
290
     1
  9
$INSUNITS
 70
     4
  9
$HYPERLINKBASE
  1

  9
$STYLESHEET
  1

  9
$XEDIT
290
     1
  9
$CEPSNTYPE
380
     0
  9
$PSTYLEMODE
290
     1
  9
$FINGERPRINTGUID
  2
{9CFD8B8C-B694-4E9F-AA69-5D576F0C0BFD}
  9
$VERSIONGUID
  2
{FAEB1C32-E019-11D5-929B-00C0DF256EC4}
  9
$EXTNAMES
290
     1
  9
$PSVPSCALE
 40
0.0
  9
$OLESTARTUP
290
     0
  0
ENDSEC
  0
SECTION
  2
CLASSES
  0
CLASS
  1
ACDBDICTIONARYWDFLT
  2
AcDbDictionaryWithDefault
  3
ObjectDBX Classes
 90
        0
280
     0
281
     0
  0
CLASS
  1
VISUALSTYLE
  2
AcDbVisualStyle
  3
ObjectDBX Classes
 90
     4095
280
     0
281
     0
  0
CLASS
  1
MATERIAL
  2
AcDbMaterial
  3
ObjectDBX Classes
 90
     1153
280
     0
281
     0
  0
CLASS
  1
ACDBPLACEHOLDER
  2
AcDbPlaceHolder
  3
ObjectDBX Classes
 90
        0
280
     0
281
     0
  0
CLASS
  1
LAYOUT
  2
AcDbLayout
  3
ObjectDBX Classes
 90
        0
280
     0
281
     0
  0
ENDSEC
  0
SECTION
  2
TABLES
  0
TABLE
  2
VPORT
  5
8
330
0
100
AcDbSymbolTable
 70
     1
  0
VPORT
  5
29
330
8
100
AcDbSymbolTableRecord
100
AcDbViewportTableRecord
  2
*Active
 70
     0
 10
0.0
 20
0.0
 11
1.0
 21
1.0
 12
594.5
 22
420.5
 13
0.0
 23
0.0
 14
10.0
 24
10.0
 15
10.0
 25
10.0
 16
0.0
 26
0.0
 36
1.0
 17
0.0
 27
0.0
 37
0.0
 40
841.0
 41
1.4137931034
 42
50.0
 43
0.0
 44
0.0
 50
0.0
 51
0.0
 71
     0
 72
  2000
 73
     1
 74
     3
 75
     0
 76
     0
 77
     0
 78
     0
281
     0
 65
     1
110
0.0
120
0.0
130
0.0
111
1.0
121
0.0
131
0.0
112
0.0
122
1.0
132
0.0
 79
     0
146
0.0
  0
ENDTAB
  0
TABLE
  2
LTYPE
  5
5
330
0
100
AcDbSymbolTable
 70
     6
  0
LTYPE
  5
14
330
5
100
AcDbSymbolTableRecord
100
AcDbLinetypeTableRecord
  2
ByBlock
 70
     0
  3

 72
    65
 73
     0
 40
0.0
  0
LTYPE
  5
15
330
5
100
AcDbSymbolTableRecord
100
AcDbLinetypeTableRecord
  2
ByLayer
 70
     0
  3

 72
    65
 73
     0
 40
0.0
  0
LTYPE
  5
16
330
5
100
AcDbSymbolTableRecord
100
AcDbLinetypeTableRecord
  2
Continuous
 70
     0
  3
Solid line
 72
    65
 73
     0
 40
0.0
  0
LTYPE
  5
3F
330
5
100
AcDbSymbolTableRecord
100
AcDbLinetypeTableRecord
  2
HIDDEN
 70
     0
  3
Hidden __ __ __ __ __ __ __ __ __ __ __ __ __ __
 72
    65
 73
     2
 40
1.905
 49
1.27
 74
     0
 49
-0.635
 74
     0
  0
LTYPE
  5
40
330
5
100
AcDbSymbolTableRecord
100
AcDbLinetypeTableRecord
  2
PHANTOM
 70
     0
  3
Phantom ______  __  __  ______  __  __  ______
 72
    65
 73
     6
 40
12.7
 49
6.35
 74
     0
 49
-1.27
 74
     0
 49
1.27
 74
     0
 49
-1.27
 74
     0
 49
1.27
 74
     0
 49
-1.27
 74
     0
  0
LTYPE
  5
41
330
5
100
AcDbSymbolTableRecord
100
AcDbLinetypeTableRecord
  2
CENTER
 70
     0
  3
Center ____ _ ____ _ ____ _ ____ _ ____ _ ____
 72
    65
 73
     4
 40
10.16
 49
6.35
 74
     0
 49
-1.27
 74
     0
 49
1.27
 74
     0
 49
-1.27
 74
     0
  0
LTYPE
  5
42
330
5
100
AcDbSymbolTableRecord
100
AcDbLinetypeTableRecord
  2
CENTERX2
 70
     0
  3
Center (2x) ________  __  ________  __  _____
 72
    65
 73
     4
 40
20.32
 49
12.7
 74
     0
 49
-2.54
 74
     0
 49
2.54
 74
     0
 49
-2.54
 74
     0
  0
LTYPE
  5
43
330
5
100
AcDbSymbolTableRecord
100
AcDbLinetypeTableRecord
  2
DOT2
 70
     0
  3
Dot (.5x) ........................................
 72
    65
 73
     2
 40
0.635
 49
0.0
 74
     0
 49
-0.635
 74
     0
  0
ENDTAB
  0
TABLE
  2
LAYER
  5
2
330
0
100
AcDbSymbolTable
 70
     2
  0
LAYER
  5
10
330
2
100
AcDbSymbolTableRecord
100
AcDbLayerTableRecord
  2
0
 70
     0
 62
     7
  6
Continuous
370
    -3
390
F
  0
LAYER
  5
44
330
2
100
AcDbSymbolTableRecord
100
AcDbLayerTableRecord
  2
FORMAT
 70
     0
 62
     7
  6
Continuous
370
    -3
390
F
  0
ENDTAB
  0
TABLE
  2
STYLE
  5
3
330
0
100
AcDbSymbolTable
 70
     3
  0
STYLE
  5
11
330
3
100
AcDbSymbolTableRecord
100
AcDbTextStyleTableRecord
  2
Standard
 70
     0
 40
0.0
 41
1.0
 50
0.0
 71
     0
 42
3.5
  3
txt
  4

  0
STYLE
  5
67
330
3
100
AcDbSymbolTableRecord
100
AcDbTextStyleTableRecord
  2
SLDTEXTSTYLE0
 70
     0
 40
0.0
 41
0.75
 50
0.0
 71
     0
 42
0.2
  3
TXT
  4

  0
STYLE
  5
6B
330
3
100
AcDbSymbolTableRecord
100
AcDbTextStyleTableRecord
  2
SLDTEXTSTYLE1
 70
     0
 40
0.0
 41
0.6875
 50
0.0
 71
     0
 42
0.2
  3
TXT
  4

  0
ENDTAB
  0
TABLE
  2
VIEW
  5
6
330
0
100
AcDbSymbolTable
 70
     0
  0
ENDTAB
  0
TABLE
  2
UCS
  5
7
330
0
100
AcDbSymbolTable
 70
     0
  0
ENDTAB
  0
TABLE
  2
APPID
  5
9
330
0
100
AcDbSymbolTable
 70
     1
  0
APPID
  5
12
330
9
100
AcDbSymbolTableRecord
100
AcDbRegAppTableRecord
  2
ACAD
 70
     0
  0
ENDTAB
  0
TABLE
  2
DIMSTYLE
  5
A
330
0
100
AcDbSymbolTable
 70
     1
100
AcDbDimStyleTable
  0
DIMSTYLE
105
27
330
A
100
AcDbSymbolTableRecord
100
AcDbDimStyleTableRecord
  2
ISO-25
 70
     0
 41
2.5
 42
0.625
 43
3.75
 44
1.25
 73
     0
 74
     0
 77
     1
 78
     8
140
2.5
141
2.5
143
0.0393700787
147
0.625
171
     3
172
     1
178
     0
271
     2
272
     2
274
     3
278
    44
283
     0
284
     8
340
11
  0
ENDTAB
  0
TABLE
  2
BLOCK_RECORD
  5
1
330
0
100
AcDbSymbolTable
 70
     3
  0
BLOCK_RECORD
  5
1F
330
1
100
AcDbSymbolTableRecord
100
AcDbBlockTableRecord
  2
*Model_Space
340
22
  0
BLOCK_RECORD
  5
1B
330
1
100
AcDbSymbolTableRecord
100
AcDbBlockTableRecord
  2
*Paper_Space
340
1E
  0
BLOCK_RECORD
  5
23
330
1
100
AcDbSymbolTableRecord
100
AcDbBlockTableRecord
  2
*Paper_Space0
340
26
  0
BLOCK_RECORD
  5
76
330
1
100
AcDbSymbolTableRecord
100
AcDbBlockTableRecord
  2
SW_NOTE_0
340
0
102
{BLKREFS
331
7C
102
}
  0
BLOCK_RECORD
  5
7E
330
1
100
AcDbSymbolTableRecord
100
AcDbBlockTableRecord
  2
SW_NOTE_1
340
0
102
{BLKREFS
331
87
102
}
  0
ENDTAB
  0
ENDSEC
  0
SECTION
  2
BLOCKS
  0
BLOCK
  5
20
330
1F
100
AcDbEntity
  8
0
100
AcDbBlockBegin
  2
*Model_Space
 70
     0
 10
0.0
 20
0.0
 30
0.0
  3
*Model_Space
  1

  0
ENDBLK
  5
21
330
1F
100
AcDbEntity
  8
0
100
AcDbBlockEnd
  0
BLOCK
  5
1C
330
1B
100
AcDbEntity
 67
     1
  8
0
100
AcDbBlockBegin
  2
*Paper_Space
 70
     0
 10
0.0
 20
0.0
 30
0.0
  3
*Paper_Space
  1

  0
ENDBLK
  5
1D
330
1B
100
AcDbEntity
 67
     1
  8
0
100
AcDbBlockEnd
  0
BLOCK
  5
24
330
23
100
AcDbEntity
  8
0
100
AcDbBlockBegin
  2
*Paper_Space0
 70
     0
 10
0.0
 20
0.0
 30
0.0
  3
*Paper_Space0
  1

  0
ENDBLK
  5
25
330
23
100
AcDbEntity
  8
0
100
AcDbBlockEnd
  0
BLOCK
  5
77
330
76
100
AcDbEntity
  8
0
100
AcDbBlockBegin
  2
SW_NOTE_0
 70
     0
 10
0.0
 20
0.0
 30
0.0
  3
SW_NOTE_0
  1

  0
MTEXT
  5
79
330
76
100
AcDbEntity
  8
0
  6
Continuous
 62
     0
370
     0
100
AcDbMText
 10
0.0
 20
1.9336016097
 30
0.0
 40
1.5
 41
0.0
 71
     1
 72
     1
  1
DEBUR AND
  7
SLDTEXTSTYLE0
 73
     1
 44
1.0
  0
MTEXT
  5
7A
330
76
100
AcDbEntity
  8
0
  6
Continuous
 62
     0
370
     0
100
AcDbMText
 10
0.0
 20
-0.5663983345
 30
0.0
 40
1.5
 41
0.0
 71
     1
 72
     1
  1
BREAK SHARP
  7
SLDTEXTSTYLE0
 73
     1
 44
1.0
  0
MTEXT
  5
7B
330
76
100
AcDbEntity
  8
0
  6
Continuous
 62
     0
370
     0
100
AcDbMText
 10
0.0
 20
-3.0663982786
 30
0.0
 40
1.5
 41
0.0
 71
     1
 72
     1
  1
EDGES
  7
SLDTEXTSTYLE0
 73
     1
 44
1.0
  0
ENDBLK
  5
78
330
76
100
AcDbEntity
  8
0
100
AcDbBlockEnd
  0
BLOCK
  5
7F
330
7E
100
AcDbEntity
  8
0
100
AcDbBlockBegin
  2
SW_NOTE_1
 70
     0
 10
0.0
 20
0.0
 30
0.0
  3
SW_NOTE_1
  1

  0
MTEXT
  5
81
330
7E
100
AcDbEntity
  8
0
  6
Continuous
 62
     0
370
     0
100
AcDbMText
 10
0.0
 20
1.9336016097
 30
0.0
 40
1.5
 41
0.0
 71
     1
 72
     1
  1
UNLESS OTHERWISE SPECIFIED:
  7
SLDTEXTSTYLE0
 73
     1
 44
1.0
  0
MTEXT
  5
82
330
7E
100
AcDbEntity
  8
0
  6
Continuous
 62
     0
370
     0
100
AcDbMText
 10
0.0
 20
-0.5663983345
 30
0.0
 40
1.5
 41
0.0
 71
     1
 72
     1
  1
DIMENSIONS ARE IN MILLIMETERS
  7
SLDTEXTSTYLE0
 73
     1
 44
1.0
  0
MTEXT
  5
83
330
7E
100
AcDbEntity
  8
0
  6
Continuous
 62
     0
370
     0
100
AcDbMText
 10
0.0
 20
-3.0663982786
 30
0.0
 40
1.5
 41
0.0
 71
     1
 72
     1
  1
SURFACE FINISH:
  7
SLDTEXTSTYLE0
 73
     1
 44
1.0
  0
MTEXT
  5
84
330
7E
100
AcDbEntity
  8
0
  6
Continuous
 62
     0
370
     0
100
AcDbMText
 10
0.0
 20
-5.5663982227
 30
0.0
 40
1.5
 41
0.0
 71
     1
 72
     1
  1
TOLERANCES:
  7
SLDTEXTSTYLE0
 73
     1
 44
1.0
  0
MTEXT
  5
85
330
7E
100
AcDbEntity
  8
0
  6
Continuous
 62
     0
370
     0
100
AcDbMText
 10
1.6875
 20
-8.0663981668
 30
0.0
 40
1.5
 41
0.0
 71
     1
 72
     1
  1
LINEAR:
  7
SLDTEXTSTYLE0
 73
     1
 44
1.0
  0
MTEXT
  5
86
330
7E
100
AcDbEntity
  8
0
  6
Continuous
 62
     0
370
     0
100
AcDbMText
 10
1.6875
 20
-10.5663981109
 30
0.0
 40
1.5
 41
0.0
 71
     1
 72
     1
  1
ANGULAR:
  7
SLDTEXTSTYLE0
 73
     1
 44
1.0
  0
ENDBLK
  5
80
330
7E
100
AcDbEntity
  8
0
100
AcDbBlockEnd
  0
ENDSEC
  0
SECTION
  2
ENTITIES
  0
LINE
  5
45
330
1F
100
AcDbEntity
  8
0
  6
Continuous
 62
     7
370
    40
100
AcDbLine
 10
25.0788435654
 20
10.2147801566
 30
0.0
 11
25.0788435654
 21
831.2147801566
 31
0.0
  0
LINE
  5
46
330
1F
100
AcDbEntity
  8
0
  6
Continuous
 62
     7
370
    40
100
AcDbLine
 10
0.0788435654
 20
0.2147801566
 30
0.0
 11
1189.0788435654
 21
0.2147801566
 31
0.0
  0
LINE
  5
47
330
1F
100
AcDbEntity
  8
0
  6
Continuous
 62
     7
370
    40
100
AcDbLine
 10
0.0788435654
 20
0.2147801566
 30
0.0
 11
0.0788435654
 21
841.2147801566
 31
0.0
  0
LINE
  5
48
330
1F
100
AcDbEntity
  8
0
  6
Continuous
 62
     7
370
    40
100
AcDbLine
 10
0.0788435654
 20
841.2147801566
 30
0.0
 11
1189.0788435654
 21
841.2147801566
 31
0.0
  0
LINE
  5
49
330
1F
100
AcDbEntity
  8
0
  6
Continuous
 62
     7
370
    40
100
AcDbLine
 10
1189.0788435654
 20
0.2147801566
 30
0.0
 11
1189.0788435654
 21
841.2147801566
 31
0.0
  0
LINE
  5
4A
330
1F
100
AcDbEntity
  8
0
  6
Continuous
 62
     7
370
    40
100
AcDbLine
 10
25.0788435654
 20
831.2147801566
 30
0.0
 11
1179.0788435654
 21
831.2147801566
 31
0.0
  0
LINE
  5
4B
330
1F
100
AcDbEntity
  8
0
  6
Continuous
 62
     7
370
    40
100
AcDbLine
 10
1179.0788435654
 20
10.2147801566
 30
0.0
 11
1179.0788435654
 21
831.2147801566
 31
0.0
  0
LINE
  5
4C
330
1F
100
AcDbEntity
  8
0
  6
Continuous
 62
     7
370
    40
100
AcDbLine
 10
25.0788435654
 20
10.2147801566
 30
0.0
 11
1179.0788435654
 21
10.2147801566
 31
0.0
  0
LINE
  5
4D
330
1F
100
AcDbEntity
  8
0
  6
Continuous
 62
     7
370
    40
100
AcDbLine
 10
1179.0788435654
 20
65.4647801566
 30
0.0
 11
1179.0788435654
 21
10.2147801566
 31
0.0
  0
LINE
  5
4E
330
1F
100
AcDbEntity
  8
0
  6
Continuous
 62
     7
370
    40
100
AcDbLine
 10
991.8788435654
 20
14.4647801566
 30
0.0
 11
1179.0788435654
 21
14.4647801566
 31
0.0
  0
LINE
  5
4F
330
1F
100
AcDbEntity
  8
0
  6
Continuous
 62
     7
370
    40
100
AcDbLine
 10
1179.0788435654
 20
48.4647801566
 30
0.0
 11
991.8788435654
 21
48.4647801566
 31
0.0
  0
LINE
  5
50
330
1F
100
AcDbEntity
  8
0
  6
Continuous
 62
     7
370
    40
100
AcDbLine
 10
991.8788435654
 20
65.4647801566
 30
0.0
 11
1179.0788435654
 21
65.4647801566
 31
0.0
  0
LINE
  5
51
330
1F
100
AcDbEntity
  8
0
  6
Continuous
 62
     7
370
    40
100
AcDbLine
 10
1018.8697959991
 20
48.4647801566
 30
0.0
 11
1018.8697959991
 21
10.2147801566
 31
0.0
  0
LINE
  5
52
330
1F
100
AcDbEntity
  8
0
  6
Continuous
 62
     7
370
    40
100
AcDbLine
 10
1090.6788435654
 20
31.4647801566
 30
0.0
 11
991.8788435654
 21
31.4647801566
 31
0.0
  0
LINE
  5
53
330
1F
100
AcDbEntity
  8
0
  6
Continuous
 62
     7
370
    40
100
AcDbLine
 10
1090.6788435654
 20
35.7147801566
 30
0.0
 11
991.8788435654
 21
35.7147801566
 31
0.0
  0
LINE
  5
54
330
1F
100
AcDbEntity
  8
0
  6
Continuous
 62
     7
370
    40
100
AcDbLine
 10
1090.6788435654
 20
39.9647801566
 30
0.0
 11
991.8788435654
 21
39.9647801566
 31
0.0
  0
LINE
  5
55
330
1F
100
AcDbEntity
  8
0
  6
Continuous
 62
     7
370
    40
100
AcDbLine
 10
1090.6788435654
 20
44.2147801566
 30
0.0
 11
991.8788435654
 21
44.2147801566
 31
0.0
  0
LINE
  5
56
330
1F
100
AcDbEntity
  8
0
  6
Continuous
 62
     7
370
    40
100
AcDbLine
 10
1046.4788435654
 20
10.2147801566
 30
0.0
 11
1046.4788435654
 21
48.4647801566
 31
0.0
  0
LINE
  5
57
330
1F
100
AcDbEntity
  8
0
  6
Continuous
 62
     7
370
    40
100
AcDbLine
 10
991.8788435654
 20
65.4647801566
 30
0.0
 11
991.8788435654
 21
10.2147801566
 31
0.0
  0
LINE
  5
58
330
1F
100
AcDbEntity
  8
0
  6
Continuous
 62
     7
370
    40
100
AcDbLine
 10
999.6788435654
 20
48.4647801566
 30
0.0
 11
999.6788435654
 21
10.2147801566
 31
0.0
  0
LINE
  5
59
330
1F
100
AcDbEntity
  8
0
  6
Continuous
 62
     7
370
    40
100
AcDbLine
 10
1025.6788435654
 20
48.4647801566
 30
0.0
 11
1025.6788435654
 21
65.4647801566
 31
0.0
  0
LINE
  5
5A
330
1F
100
AcDbEntity
  8
0
  6
Continuous
 62
     7
370
    40
100
AcDbLine
 10
1036.2777697289
 20
48.4647801566
 30
0.0
 11
1036.2777697289
 21
10.2147801566
 31
0.0
  0
LINE
  5
5B
330
1F
100
AcDbEntity
  8
0
  6
Continuous
 62
     7
370
    40
100
AcDbLine
 10
1056.8788435654
 20
31.4647801566
 30
0.0
 11
1056.8788435654
 21
48.4647801566
 31
0.0
  0
LINE
  5
5C
330
1F
100
AcDbEntity
  8
0
  6
Continuous
 62
     7
370
    40
100
AcDbLine
 10
1046.4788435654
 20
18.7147801566
 30
0.0
 11
991.8788435654
 21
18.7147801566
 31
0.0
  0
LINE
  5
5D
330
1F
100
AcDbEntity
  8
0
  6
Continuous
 62
     7
370
    40
100
AcDbLine
 10
1072.4788435654
 20
65.4647801566
 30
0.0
 11
1072.4788435654
 21
27.2147801566
 31
0.0
  0
LINE
  5
5E
330
1F
100
AcDbEntity
  8
0
  6
Continuous
 62
     7
370
    40
100
AcDbLine
 10
1046.4788435654
 20
22.9647081566
 30
0.0
 11
991.8788435654
 21
22.9647081566
 31
0.0
  0
LINE
  5
5F
330
1F
100
AcDbEntity
  8
0
  6
Continuous
 62
     7
370
    40
100
AcDbLine
 10
1046.4788435654
 20
27.2147801566
 30
0.0
 11
991.8788435654
 21
27.2147801566
 31
0.0
  0
LINE
  5
60
330
1F
100
AcDbEntity
  8
0
  6
Continuous
 62
     7
370
    40
100
AcDbLine
 10
1046.4788435654
 20
27.2147801566
 30
0.0
 11
1179.0788435654
 21
27.2147801566
 31
0.0
  0
LINE
  5
61
330
1F
100
AcDbEntity
  8
0
  6
Continuous
 62
     7
370
    40
100
AcDbLine
 10
1090.6788435654
 20
65.4647801566
 30
0.0
 11
1090.6788435654
 21
10.2147801566
 31
0.0
  0
LINE
  5
62
330
1F
100
AcDbEntity
  8
0
  6
Continuous
 62
     7
370
    40
100
AcDbLine
 10
1134.8788435654
 20
10.2147801566
 30
0.0
 11
1134.8788435654
 21
14.4647801566
 31
0.0
  0
LINE
  5
63
330
1F
100
AcDbEntity
  8
0
  6
Continuous
 62
     7
370
    40
100
AcDbLine
 10
1142.6788435654
 20
59.0897801566
 30
0.0
 11
1142.6788435654
 21
65.4647801566
 31
0.0
  0
LINE
  5
64
330
1F
100
AcDbEntity
  8
0
  6
Continuous
 62
     7
370
    40
100
AcDbLine
 10
1166.0788435654
 20
14.4647801566
 30
0.0
 11
1166.0788435654
 21
27.2147801566
 31
0.0
  0
LINE
  5
65
330
1F
100
AcDbEntity
  8
0
  6
Continuous
 62
     7
370
    40
100
AcDbLine
 10
1179.0788435654
 20
59.0897801566
 30
0.0
 11
1090.6788435654
 21
59.0897801566
 31
0.0
  0
LINE
  5
66
330
1F
100
AcDbEntity
  8
0
  6
Continuous
 62
     7
370
    40
100
AcDbLine
 10
1179.0788435654
 20
18.7147801566
 30
0.0
 11
1166.0788435654
 21
18.7147801566
 31
0.0
  0
MTEXT
  5
68
330
1F
100
AcDbEntity
  8
0
  6
Continuous
 62
     7
370
     0
100
AcDbMText
 10
1132.2091985601
 20
24.8465185664
 30
0.0
 40
6.35
 41
0.0
 71
     2
 72
     1
  1
joint-laser
  7
SLDTEXTSTYLE0
 73
     1
 44
1.0
  0
MTEXT
  5
69
330
1F
100
AcDbEntity
  8
0
  6
Continuous
 62
     7
370
     0
100
AcDbMText
 10
1047.4966546935
 20
13.1640920602
 30
0.0
 40
1.4986
 41
0.0
 71
     1
 72
     1
  1
WEIGHT:
  7
SLDTEXTSTYLE0
 73
     1
 44
1.0
  0
MTEXT
  5
6A
330
1F
100
AcDbEntity
  8
0
  6
Continuous
 62
     7
370
     0
100
AcDbMText
 10
1169.9998284117
 20
24.5152246678
 30
0.0
 40
2.9104166667
 41
0.0
 71
     1
 72
     1
  1
A1
  7
SLDTEXTSTYLE0
 73
     1
 44
1.0
  0
MTEXT
  5
6C
330
1F
100
AcDbEntity
  8
0
  6
Continuous
 62
     7
370
     0
100
AcDbMText
 10
1136.3571379932
 20
13.1148674312
 30
0.0
 40
1.5
 41
0.0
 71
     1
 72
     1
  1
SHEET 1 OF 1
  7
SLDTEXTSTYLE1
 73
     1
 44
1.0
  0
MTEXT
  5
6D
330
1F
100
AcDbEntity
  8
0
  6
Continuous
 62
     7
370
     0
100
AcDbMText
 10
1091.9528096828
 20
13.1148674312
 30
0.0
 40
1.5
 41
0.0
 71
     1
 72
     1
  1
SCALE:1:1
  7
SLDTEXTSTYLE0
 73
     1
 44
1.0
  0
MTEXT
  5
6E
330
1F
100
AcDbEntity
  8
0
  6
Continuous
 62
     7
370
     0
100
AcDbMText
 10
1091.9528096828
 20
25.0834179837
 30
0.0
 40
1.5
 41
0.0
 71
     1
 72
     1
  1
DWG NO.
  7
SLDTEXTSTYLE0
 73
     1
 44
1.0
  0
MTEXT
  5
6F
330
1F
100
AcDbEntity
  8
0
  6
Continuous
 62
     7
370
     0
100
AcDbMText
 10
1091.835030502
 20
46.4931144426
 30
0.0
 40
1.5
 41
0.0
 71
     1
 72
     1
  1
TITLE:
  7
SLDTEXTSTYLE0
 73
     1
 44
1.0
  0
MTEXT
  5
70
330
1F
100
AcDbEntity
  8
0
  6
Continuous
 62
     7
370
     0
100
AcDbMText
 10
1145.2064252647
 20
62.5496888371
 30
0.0
 40
1.5
 41
0.0
 71
     1
 72
     1
  1
REVISION
  7
SLDTEXTSTYLE0
 73
     1
 44
1.0
  0
MTEXT
  5
71
330
1F
100
AcDbEntity
  8
0
  6
Continuous
 62
     7
370
     0
100
AcDbMText
 10
1104.4934840882
 20
62.7477737317
 30
0.0
 40
1.5
 41
0.0
 71
     1
 72
     1
  1
DO NOT SCALE DRAWING
  7
SLDTEXTSTYLE0
 73
     1
 44
1.0
  0
MTEXT
  5
72
330
1F
100
AcDbEntity
  8
0
  6
Continuous
 62
     7
370
     0
100
AcDbMText
 10
1047.5247058741
 20
26.2008364459
 30
0.0
 40
1.5
 41
0.0
 71
     1
 72
     1
  1
MATERIAL:
  7
SLDTEXTSTYLE0
 73
     1
 44
1.0
  0
MTEXT
  5
73
330
1F
100
AcDbEntity
  8
0
  6
Continuous
 62
     7
370
     0
100
AcDbMText
 10
1039.0935455311
 20
46.7909593779
 30
0.0
 40
1.5
 41
0.0
 71
     1
 72
     1
  1
DATE
  7
SLDTEXTSTYLE0
 73
     1
 44
1.0
  0
MTEXT
  5
74
330
1F
100
AcDbEntity
  8
0
  6
Continuous
 62
     7
370
     0
100
AcDbMText
 10
1021.9124311285
 20
46.7765365362
 30
0.0
 40
1.5
 41
0.0
 71
     1
 72
     1
  1
SIGNATURE
  7
SLDTEXTSTYLE0
 73
     1
 44
1.0
  0
MTEXT
  5
75
330
1F
100
AcDbEntity
  8
0
  6
Continuous
 62
     7
370
     0
100
AcDbMText
 10
1006.201082783
 20
46.7162627901
 30
0.0
 40
1.5
 41
0.0
 71
     1
 72
     1
  1
NAME
  7
SLDTEXTSTYLE0
 73
     1
 44
1.0
  0
INSERT
  5
7C
330
1F
100
AcDbEntity
  8
0
  6
Continuous
 62
     7
370
     0
100
AcDbBlockReference
  2
SW_NOTE_0
 10
1073.1880592516
 20
62.2842697997
 30
0.0
  0
MTEXT
  5
7D
330
1F
100
AcDbEntity
  8
0
  6
Continuous
 62
     7
370
     0
100
AcDbMText
 10
1026.2501357322
 20
64.1340521518
 30
0.0
 40
1.5
 41
0.0
 71
     1
 72
     1
  1
FINISH:
  7
SLDTEXTSTYLE0
 73
     1
 44
1.0
  0
INSERT
  5
87
330
1F
100
AcDbEntity
  8
0
  6
Continuous
 62
     7
370
     0
100
AcDbBlockReference
  2
SW_NOTE_1
 10
992.472512311
 20
62.2021500309
 30
0.0
  0
MTEXT
  5
88
330
1F
100
AcDbEntity
  8
0
  6
Continuous
 62
     7
370
     0
100
AcDbMText
 10
992.5478864275
 20
25.5644293639
 30
0.0
 40
1.5
 41
0.0
 71
     1
 72
     1
  1
Q.A
  7
SLDTEXTSTYLE0
 73
     1
 44
1.0
  0
MTEXT
  5
89
330
1F
100
AcDbEntity
  8
0
  6
Continuous
 62
     7
370
     0
100
AcDbMText
 10
992.3340300644
 20
29.9484848072
 30
0.0
 40
1.5
 41
0.0
 71
     1
 72
     1
  1
MFG
  7
SLDTEXTSTYLE0
 73
     1
 44
1.0
  0
MTEXT
  5
8A
330
1F
100
AcDbEntity
  8
0
  6
Continuous
 62
     7
370
     0
100
AcDbMText
 10
992.2805659737
 20
34.2790761598
 30
0.0
 40
1.5
 41
0.0
 71
     1
 72
     1
  1
APPV'D
  7
SLDTEXTSTYLE0
 73
     1
 44
1.0
  0
MTEXT
  5
8B
330
1F
100
AcDbEntity
  8
0
  6
Continuous
 62
     7
370
     0
100
AcDbMText
 10
992.289312433
 20
38.3691873166
 30
0.0
 40
1.5
 41
0.0
 71
     1
 72
     1
  1
CHK'D
  7
SLDTEXTSTYLE0
 73
     1
 44
1.0
  0
MTEXT
  5
8C
330
1F
100
AcDbEntity
  8
0
  6
Continuous
 62
     7
370
     0
100
AcDbMText
 10
992.0909928094
 20
42.6444950426
 30
0.0
 40
1.5
 41
0.0
 71
     1
 72
     1
  1
DRAWN
  7
SLDTEXTSTYLE0
 73
     1
 44
1.0
  0
LINE
  5
8D
330
1F
100
AcDbEntity
  8
0
  6
CENTERX2
 62
     7
100
AcDbLine
 10
350.6591800712
 20
509.9713937468
 30
0.0
 11
366.6591800712
 21
509.9713937468
 31
0.0
  0
LINE
  5
8E
330
1F
100
AcDbEntity
  8
0
  6
CENTERX2
 62
     7
100
AcDbLine
 10
366.6591800712
 20
506.4713937468
 30
0.0
 11
350.6591800712
 21
506.4713937468
 31
0.0
  0
LWPOLYLINE
  5
8F
330
1F
100
AcDbEntity
  8
0
  6
Continuous
 62
     7
100
AcDbPolyline
 90
       76
 70
   128
 43
0.0
 10
352.2447169301
 20
510.5092543237
 10
352.2422129237
 20
510.4626798045
 10
352.2347009045
 20
510.4151036827
 10
352.2221808725
 20
510.3675275609
 10
352.2046528276
 20
510.3194506378
 10
352.1826175712
 20
510.2723753173
 10
352.1565759045
 20
510.2278040032
 10
352.125526225
 20
510.1852358943
 10
352.0904701353
 20
510.1451717917
 10
352.050906834
 20
510.1086132981
 10
352.0073371225
 20
510.0750596122
 10
351.9582585968
 20
510.0455123366
 10
351.9051736609
 20
510.0194706699
 10
351.8480823148
 20
509.9984370161
 10
351.7869845584
 20
509.9834129776
 10
351.7218803917
 20
509.9743985545
 10
351.6527698148
 20
509.9713937468
 10
351.6527698148
 20
509.9713937468
 10
351.5831584366
 20
509.9743985545
 10
351.5170526673
 20
509.9829121763
 10
351.4539517058
 20
509.9974354135
 10
351.3943563532
 20
510.0179682661
 10
351.3387674109
 20
510.0430083302
 10
351.2876856801
 20
510.0725556058
 10
351.2411111609
 20
510.1051076891
 10
351.1990438532
 20
510.142166984
 10
351.1614837571
 20
510.1822310866
 10
351.1284308725
 20
510.2242983943
 10
351.0998851994
 20
510.2688697084
 10
351.0758467378
 20
510.3159450289
 10
351.0568162891
 20
510.3645227532
 10
351.0437954558
 20
510.4125996763
 10
351.035281834
 20
510.4611774007
 10
351.0327778276
 20
510.5092543237
 10
351.0327778276
 20
510.5092543237
 10
351.0327778276
 20
510.7641621763
 10
351.0327778276
 20
510.7641621763
 10
351.0327778276
 20
510.5092543237
 10
351.0327778276
 20
510.5092543237
 10
351.035281834
 20
510.4611774007
 10
351.0437954558
 20
510.4125996763
 10
351.0568162891
 20
510.3645227532
 10
351.0758467378
 20
510.3159450289
 10
351.0998851994
 20
510.2688697084
 10
351.1284308725
 20
510.2242983943
 10
351.1614837571
 20
510.1822310866
 10
351.1990438532
 20
510.142166984
 10
351.2411111609
 20
510.1051076891
 10
351.2876856801
 20
510.0725556058
 10
351.3387674109
 20
510.0430083302
 10
351.3943563532
 20
510.0179682661
 10
351.4539517058
 20
509.9974354135
 10
351.5170526673
 20
509.9829121763
 10
351.5831584366
 20
509.9743985545
 10
351.6527698148
 20
509.9713937468
 10
351.6527698148
 20
509.9713937468
 10
351.7218803917
 20
509.9743985545
 10
351.7869845584
 20
509.9834129776
 10
351.8480823148
 20
509.9984370161
 10
351.9051736609
 20
510.0194706699
 10
351.9582585968
 20
510.0455123366
 10
352.0073371225
 20
510.0750596122
 10
352.050906834
 20
510.1086132981
 10
352.0904701353
 20
510.1451717917
 10
352.125526225
 20
510.1852358943
 10
352.1565759045
 20
510.2278040032
 10
352.1826175712
 20
510.2723753173
 10
352.2046528276
 20
510.3194506378
 10
352.2221808725
 20
510.3675275609
 10
352.2347009045
 20
510.4151036827
 10
352.2422129237
 20
510.4626798045
 10
352.2447169301
 20
510.5092543237
 10
352.2447169301
 20
510.5092543237
 10
352.2482225391
 20
512.4393424648
 10
352.2482225391
 20
512.4393424648
 10
352.2447169301
 20
510.5092543237
  0
LWPOLYLINE
  5
90
330
1F
100
AcDbEntity
  8
0
  6
Continuous
 62
     7
100
AcDbPolyline
 90
       38
 70
   128
 43
0.0
 10
353.6409509045
 20
512.4713937468
 10
353.6369444943
 20
512.395271952
 10
353.6239236609
 20
512.326161375
 10
353.6028900071
 20
512.2645628173
 10
353.5733427314
 20
512.2094746763
 10
353.5377858404
 20
512.160896952
 10
353.4992241417
 20
512.1178280417
 10
353.457156834
 20
512.0797671443
 10
353.4120847186
 20
512.0467142596
 10
353.3650093981
 20
512.0186693878
 10
353.316932475
 20
511.9946309263
 10
353.2683547507
 20
511.9750996763
 10
353.2182746225
 20
511.9600756378
 10
353.1701976994
 20
511.9485572084
 10
353.1266279878
 20
511.9395427853
 10
353.0870646866
 20
511.9335331699
 10
353.0520085968
 20
511.9305283622
 10
353.0520085968
 20
511.9305283622
 10
353.0870646866
 20
511.9335331699
 10
353.1266279878
 20
511.9395427853
 10
353.1701976994
 20
511.9485572084
 10
353.2182746225
 20
511.9600756378
 10
353.2683547507
 20
511.9750996763
 10
353.316932475
 20
511.9946309263
 10
353.3650093981
 20
512.0186693878
 10
353.4120847186
 20
512.0467142596
 10
353.457156834
 20
512.0797671443
 10
353.4992241417
 20
512.1178280417
 10
353.5377858404
 20
512.160896952
 10
353.5733427314
 20
512.2094746763
 10
353.6028900071
 20
512.2645628173
 10
353.6239236609
 20
512.326161375
 10
353.6369444943
 20
512.395271952
 10
353.6409509045
 20
512.4713937468
 10
353.6409509045
 20
512.4713937468
 10
353.6409509045
 20
509.9713937468
 10
353.6409509045
 20
509.9713937468
 10
353.6409509045
 20
512.4713937468
  0
LWPOLYLINE
  5
91
330
1F
100
AcDbEntity
  8
0
  6
Continuous
 62
     7
100
AcDbPolyline
 90
       83
 70
   128
 43
0.0
 10
352.1340398468
 20
506.4393424648
 10
352.0213595584
 20
506.443348875
 10
351.9126856801
 20
506.4563697084
 10
351.8075174109
 20
506.4774033622
 10
351.7058547507
 20
506.5069506378
 10
351.6097009045
 20
506.5460131378
 10
351.5190558725
 20
506.5960932661
 10
351.4349212571
 20
506.6556886186
 10
351.3562954558
 20
506.7263015994
 10
351.2851816737
 20
506.8079322084
 10
351.2220807122
 20
506.9020828494
 10
351.1664917699
 20
507.0072511186
 10
351.1194164494
 20
507.1249394199
 10
351.0988835968
 20
507.1885411827
 10
351.0813555519
 20
507.2556485545
 10
351.0668323148
 20
507.3262615353
 10
351.0543122827
 20
507.4008809263
 10
351.0447970584
 20
507.478505125
 10
351.0382866417
 20
507.560135734
 10
351.0342802314
 20
507.645271952
 10
351.0327778276
 20
507.7339137789
 10
351.0327778276
 20
507.7339137789
 10
351.0342802314
 20
507.8220548045
 10
351.0382866417
 20
507.9061894199
 10
351.0447970584
 20
507.9873192276
 10
351.0543122827
 20
508.0649434263
 10
351.0668323148
 20
508.1390620161
 10
351.0813555519
 20
508.2101757981
 10
351.0988835968
 20
508.2772831699
 10
351.1194164494
 20
508.341385734
 10
351.1664917699
 20
508.4600756378
 10
351.2220807122
 20
508.5667463109
 10
351.2851816737
 20
508.6618985545
 10
351.3562954558
 20
508.7450315673
 10
351.4349212571
 20
508.817146952
 10
351.5190558725
 20
508.8782447084
 10
351.6097009045
 20
508.9283248366
 10
351.7058547507
 20
508.9673873366
 10
351.8075174109
 20
508.9974354135
 10
351.9126856801
 20
509.0184690673
 10
352.0213595584
 20
509.0314899007
 10
352.1340398468
 20
509.0354963109
 10
352.1340398468
 20
509.0354963109
 10
352.246219334
 20
509.0314899007
 10
352.3548932122
 20
509.0184690673
 10
352.4600614814
 20
508.9974354135
 10
352.5612233404
 20
508.9673873366
 10
352.6578779878
 20
508.9283248366
 10
352.7485230199
 20
508.8782447084
 10
352.8326576353
 20
508.817146952
 10
352.9107826353
 20
508.7450315673
 10
352.9823972186
 20
508.6618985545
 10
353.0454981801
 20
508.5667463109
 10
353.1010871225
 20
508.4600756378
 10
353.148162443
 20
508.341385734
 10
353.1686952955
 20
508.2772831699
 10
353.1862233404
 20
508.2101757981
 10
353.2007465776
 20
508.1390620161
 10
353.2132666096
 20
508.0649434263
 10
353.222781834
 20
507.9873192276
 10
353.2292922507
 20
507.9061894199
 10
353.2332986609
 20
507.8220548045
 10
353.2348010648
 20
507.7339137789
 10
353.2348010648
 20
507.7339137789
 10
353.2332986609
 20
507.645271952
 10
353.2292922507
 20
507.560135734
 10
353.222781834
 20
507.478505125
 10
353.2132666096
 20
507.4008809263
 10
353.2007465776
 20
507.3262615353
 10
353.1862233404
 20
507.2556485545
 10
353.1686952955
 20
507.1885411827
 10
353.148162443
 20
507.1249394199
 10
353.1010871225
 20
507.0072511186
 10
353.0454981801
 20
506.9020828494
 10
352.9823972186
 20
506.8079322084
 10
352.9107826353
 20
506.7263015994
 10
352.8326576353
 20
506.6556886186
 10
352.7485230199
 20
506.5960932661
 10
352.6578779878
 20
506.5460131378
 10
352.5612233404
 20
506.5069506378
 10
352.4600614814
 20
506.4774033622
 10
352.3548932122
 20
506.4563697084
 10
352.246219334
 20
506.443348875
  0
LWPOLYLINE
  5
92
330
1F
100
AcDbEntity
  8
0
  6
Continuous
 62
     7
100
AcDbPolyline
 90
       84
 70
   128
 43
0.0
 10
352.1340398468
 20
506.4393424648
 10
352.0213595584
 20
506.443348875
 10
351.9126856801
 20
506.4563697084
 10
351.8075174109
 20
506.4774033622
 10
351.7058547507
 20
506.5069506378
 10
351.6097009045
 20
506.5460131378
 10
351.5190558725
 20
506.5960932661
 10
351.4349212571
 20
506.6556886186
 10
351.3562954558
 20
506.7263015994
 10
351.2851816737
 20
506.8079322084
 10
351.2220807122
 20
506.9020828494
 10
351.1664917699
 20
507.0072511186
 10
351.1194164494
 20
507.1249394199
 10
351.0988835968
 20
507.1885411827
 10
351.0813555519
 20
507.2556485545
 10
351.0668323148
 20
507.3262615353
 10
351.0543122827
 20
507.4008809263
 10
351.0447970584
 20
507.478505125
 10
351.0382866417
 20
507.560135734
 10
351.0342802314
 20
507.645271952
 10
351.0327778276
 20
507.7339137789
 10
351.0327778276
 20
507.7339137789
 10
351.0342802314
 20
507.8220548045
 10
351.0382866417
 20
507.9061894199
 10
351.0447970584
 20
507.9873192276
 10
351.0543122827
 20
508.0649434263
 10
351.0668323148
 20
508.1390620161
 10
351.0813555519
 20
508.2101757981
 10
351.0988835968
 20
508.2772831699
 10
351.1194164494
 20
508.341385734
 10
351.1664917699
 20
508.4600756378
 10
351.2220807122
 20
508.5667463109
 10
351.2851816737
 20
508.6618985545
 10
351.3562954558
 20
508.7450315673
 10
351.4349212571
 20
508.817146952
 10
351.5190558725
 20
508.8782447084
 10
351.6097009045
 20
508.9283248366
 10
351.7058547507
 20
508.9673873366
 10
351.8075174109
 20
508.9974354135
 10
351.9126856801
 20
509.0184690673
 10
352.0213595584
 20
509.0314899007
 10
352.1340398468
 20
509.0354963109
 10
352.1340398468
 20
509.0354963109
 10
352.246219334
 20
509.0314899007
 10
352.3548932122
 20
509.0184690673
 10
352.4600614814
 20
508.9974354135
 10
352.5612233404
 20
508.9673873366
 10
352.6578779878
 20
508.9283248366
 10
352.7485230199
 20
508.8782447084
 10
352.8326576353
 20
508.817146952
 10
352.9107826353
 20
508.7450315673
 10
352.9823972186
 20
508.6618985545
 10
353.0454981801
 20
508.5667463109
 10
353.1010871225
 20
508.4600756378
 10
353.148162443
 20
508.341385734
 10
353.1686952955
 20
508.2772831699
 10
353.1862233404
 20
508.2101757981
 10
353.2007465776
 20
508.1390620161
 10
353.2132666096
 20
508.0649434263
 10
353.222781834
 20
507.9873192276
 10
353.2292922507
 20
507.9061894199
 10
353.2332986609
 20
507.8220548045
 10
353.2348010648
 20
507.7339137789
 10
353.2348010648
 20
507.7339137789
 10
353.2332986609
 20
507.645271952
 10
353.2292922507
 20
507.560135734
 10
353.222781834
 20
507.478505125
 10
353.2132666096
 20
507.4008809263
 10
353.2007465776
 20
507.3262615353
 10
353.1862233404
 20
507.2556485545
 10
353.1686952955
 20
507.1885411827
 10
353.148162443
 20
507.1249394199
 10
353.1010871225
 20
507.0072511186
 10
353.0454981801
 20
506.9020828494
 10
352.9823972186
 20
506.8079322084
 10
352.9107826353
 20
506.7263015994
 10
352.8326576353
 20
506.6556886186
 10
352.7485230199
 20
506.5960932661
 10
352.6578779878
 20
506.5460131378
 10
352.5612233404
 20
506.5069506378
 10
352.4600614814
 20
506.4774033622
 10
352.3548932122
 20
506.4563697084
 10
352.246219334
 20
506.443348875
 10
352.1340398468
 20
506.4393424648
  0
LWPOLYLINE
  5
93
330
1F
100
AcDbEntity
  8
0
  6
Continuous
 62
     7
100
AcDbPolyline
 90
       12
 70
   128
 43
0.0
 10
354.4517481801
 20
508.9713937468
 10
356.2310951353
 20
506.4713937468
 10
356.2310951353
 20
506.4713937468
 10
356.2310951353
 20
508.9713937468
 10
356.2310951353
 20
508.9713937468
 10
356.2310951353
 20
506.4713937468
 10
356.2310951353
 20
506.4713937468
 10
354.4517481801
 20
508.9713937468
 10
354.4517481801
 20
508.9713937468
 10
354.4517481801
 20
506.4713937468
 10
354.4517481801
 20
506.4713937468
 10
354.4517481801
 20
508.9713937468
  0
LWPOLYLINE
  5
94
330
1F
100
AcDbEntity
  8
0
  6
Continuous
 62
     7
100
AcDbPolyline
 90
       83
 70
   128
 43
0.0
 10
358.5763475391
 20
506.4393424648
 10
358.4636672507
 20
506.443348875
 10
358.3549933725
 20
506.4563697084
 10
358.2498251032
 20
506.4774033622
 10
358.148162443
 20
506.5069506378
 10
358.0520085968
 20
506.5460131378
 10
357.9613635648
 20
506.5960932661
 10
357.8772289494
 20
506.6556886186
 10
357.7986031481
 20
506.7263015994
 10
357.727489366
 20
506.8079322084
 10
357.6643884045
 20
506.9020828494
 10
357.6087994622
 20
507.0072511186
 10
357.5617241417
 20
507.1249394199
 10
357.5411912891
 20
507.1885411827
 10
357.5236632443
 20
507.2556485545
 10
357.5091400071
 20
507.3262615353
 10
357.496619975
 20
507.4008809263
 10
357.4871047507
 20
507.478505125
 10
357.480594334
 20
507.560135734
 10
357.4765879237
 20
507.645271952
 10
357.4750855199
 20
507.7339137789
 10
357.4750855199
 20
507.7339137789
 10
357.4765879237
 20
507.8220548045
 10
357.480594334
 20
507.9061894199
 10
357.4871047507
 20
507.9873192276
 10
357.496619975
 20
508.0649434263
 10
357.5091400071
 20
508.1390620161
 10
357.5236632443
 20
508.2101757981
 10
357.5411912891
 20
508.2772831699
 10
357.5617241417
 20
508.341385734
 10
357.6087994622
 20
508.4600756378
 10
357.6643884045
 20
508.5667463109
 10
357.727489366
 20
508.6618985545
 10
357.7986031481
 20
508.7450315673
 10
357.8772289494
 20
508.817146952
 10
357.9613635648
 20
508.8782447084
 10
358.0520085968
 20
508.9283248366
 10
358.148162443
 20
508.9673873366
 10
358.2498251032
 20
508.9974354135
 10
358.3549933725
 20
509.0184690673
 10
358.4636672507
 20
509.0314899007
 10
358.5763475391
 20
509.0354963109
 10
358.5763475391
 20
509.0354963109
 10
358.6885270263
 20
509.0314899007
 10
358.7972009045
 20
509.0184690673
 10
358.9023691737
 20
508.9974354135
 10
359.0035310327
 20
508.9673873366
 10
359.1001856801
 20
508.9283248366
 10
359.1908307122
 20
508.8782447084
 10
359.2749653276
 20
508.817146952
 10
359.3530903276
 20
508.7450315673
 10
359.4247049109
 20
508.6618985545
 10
359.4878058725
 20
508.5667463109
 10
359.5433948148
 20
508.4600756378
 10
359.5904701353
 20
508.341385734
 10
359.6110029878
 20
508.2772831699
 10
359.6285310327
 20
508.2101757981
 10
359.6430542699
 20
508.1390620161
 10
359.6555743019
 20
508.0649434263
 10
359.6650895263
 20
507.9873192276
 10
359.671599943
 20
507.9061894199
 10
359.6756063532
 20
507.8220548045
 10
359.6771087571
 20
507.7339137789
 10
359.6771087571
 20
507.7339137789
 10
359.6756063532
 20
507.645271952
 10
359.671599943
 20
507.560135734
 10
359.6650895263
 20
507.478505125
 10
359.6555743019
 20
507.4008809263
 10
359.6430542699
 20
507.3262615353
 10
359.6285310327
 20
507.2556485545
 10
359.6110029878
 20
507.1885411827
 10
359.5904701353
 20
507.1249394199
 10
359.5433948148
 20
507.0072511186
 10
359.4878058725
 20
506.9020828494
 10
359.4247049109
 20
506.8079322084
 10
359.3530903276
 20
506.7263015994
 10
359.2749653276
 20
506.6556886186
 10
359.1908307122
 20
506.5960932661
 10
359.1001856801
 20
506.5460131378
 10
359.0035310327
 20
506.5069506378
 10
358.9023691737
 20
506.4774033622
 10
358.7972009045
 20
506.4563697084
 10
358.6885270263
 20
506.443348875
  0
LWPOLYLINE
  5
95
330
1F
100
AcDbEntity
  8
0
  6
Continuous
 62
     7
100
AcDbPolyline
 90
       84
 70
   128
 43
0.0
 10
358.5763475391
 20
506.4393424648
 10
358.4636672507
 20
506.443348875
 10
358.3549933725
 20
506.4563697084
 10
358.2498251032
 20
506.4774033622
 10
358.148162443
 20
506.5069506378
 10
358.0520085968
 20
506.5460131378
 10
357.9613635648
 20
506.5960932661
 10
357.8772289494
 20
506.6556886186
 10
357.7986031481
 20
506.7263015994
 10
357.727489366
 20
506.8079322084
 10
357.6643884045
 20
506.9020828494
 10
357.6087994622
 20
507.0072511186
 10
357.5617241417
 20
507.1249394199
 10
357.5411912891
 20
507.1885411827
 10
357.5236632443
 20
507.2556485545
 10
357.5091400071
 20
507.3262615353
 10
357.496619975
 20
507.4008809263
 10
357.4871047507
 20
507.478505125
 10
357.480594334
 20
507.560135734
 10
357.4765879237
 20
507.645271952
 10
357.4750855199
 20
507.7339137789
 10
357.4750855199
 20
507.7339137789
 10
357.4765879237
 20
507.8220548045
 10
357.480594334
 20
507.9061894199
 10
357.4871047507
 20
507.9873192276
 10
357.496619975
 20
508.0649434263
 10
357.5091400071
 20
508.1390620161
 10
357.5236632443
 20
508.2101757981
 10
357.5411912891
 20
508.2772831699
 10
357.5617241417
 20
508.341385734
 10
357.6087994622
 20
508.4600756378
 10
357.6643884045
 20
508.5667463109
 10
357.727489366
 20
508.6618985545
 10
357.7986031481
 20
508.7450315673
 10
357.8772289494
 20
508.817146952
 10
357.9613635648
 20
508.8782447084
 10
358.0520085968
 20
508.9283248366
 10
358.148162443
 20
508.9673873366
 10
358.2498251032
 20
508.9974354135
 10
358.3549933725
 20
509.0184690673
 10
358.4636672507
 20
509.0314899007
 10
358.5763475391
 20
509.0354963109
 10
358.5763475391
 20
509.0354963109
 10
358.6885270263
 20
509.0314899007
 10
358.7972009045
 20
509.0184690673
 10
358.9023691737
 20
508.9974354135
 10
359.0035310327
 20
508.9673873366
 10
359.1001856801
 20
508.9283248366
 10
359.1908307122
 20
508.8782447084
 10
359.2749653276
 20
508.817146952
 10
359.3530903276
 20
508.7450315673
 10
359.4247049109
 20
508.6618985545
 10
359.4878058725
 20
508.5667463109
 10
359.5433948148
 20
508.4600756378
 10
359.5904701353
 20
508.341385734
 10
359.6110029878
 20
508.2772831699
 10
359.6285310327
 20
508.2101757981
 10
359.6430542699
 20
508.1390620161
 10
359.6555743019
 20
508.0649434263
 10
359.6650895263
 20
507.9873192276
 10
359.671599943
 20
507.9061894199
 10
359.6756063532
 20
507.8220548045
 10
359.6771087571
 20
507.7339137789
 10
359.6771087571
 20
507.7339137789
 10
359.6756063532
 20
507.645271952
 10
359.671599943
 20
507.560135734
 10
359.6650895263
 20
507.478505125
 10
359.6555743019
 20
507.4008809263
 10
359.6430542699
 20
507.3262615353
 10
359.6285310327
 20
507.2556485545
 10
359.6110029878
 20
507.1885411827
 10
359.5904701353
 20
507.1249394199
 10
359.5433948148
 20
507.0072511186
 10
359.4878058725
 20
506.9020828494
 10
359.4247049109
 20
506.8079322084
 10
359.3530903276
 20
506.7263015994
 10
359.2749653276
 20
506.6556886186
 10
359.1908307122
 20
506.5960932661
 10
359.1001856801
 20
506.5460131378
 10
359.0035310327
 20
506.5069506378
 10
358.9023691737
 20
506.4774033622
 10
358.7972009045
 20
506.4563697084
 10
358.6885270263
 20
506.443348875
 10
358.5763475391
 20
506.4393424648
  0
LWPOLYLINE
  5
96
330
1F
100
AcDbEntity
  8
0
  6
Continuous
 62
     7
100
AcDbPolyline
 90
        8
 70
   128
 43
0.0
 10
363.1576776673
 20
506.4713937468
 10
362.2507265455
 20
508.9713937468
 10
362.2507265455
 20
508.9713937468
 10
363.1576776673
 20
506.4713937468
 10
363.1576776673
 20
506.4713937468
 10
364.0646287891
 20
508.9713937468
 10
364.0646287891
 20
508.9713937468
 10
363.1576776673
 20
506.4713937468
  0
LWPOLYLINE
  5
97
330
1F
100
AcDbEntity
  8
0
  6
Continuous
 62
     7
100
AcDbPolyline
 90
      128
 70
   128
 43
0.0
 10
364.9109829558
 20
506.4713937468
 10
364.9154901673
 20
506.5635411827
 10
364.9260069943
 20
506.6476757981
 10
364.9425334366
 20
506.7242983943
 10
364.964568693
 20
506.7934089712
 10
364.9916119622
 20
506.8565099327
 10
365.0226616417
 20
506.9161052853
 10
365.0567161289
 20
506.970692625
 10
365.0947770263
 20
507.0217743558
 10
365.1358427314
 20
507.0688496763
 10
365.1799132443
 20
507.1134209904
 10
365.2269885648
 20
507.1544866955
 10
365.2765678917
 20
507.192547593
 10
365.3807345584
 20
507.2656645802
 10
365.4894084366
 20
507.3387815673
 10
365.4894084366
 20
507.3387815673
 10
366.0813555519
 20
507.735916984
 10
366.0813555519
 20
507.735916984
 10
366.1249252635
 20
507.7679682661
 10
366.1634869622
 20
507.8020227532
 10
366.1960390455
 20
507.8375796443
 10
366.2230823148
 20
507.8751397404
 10
366.2651496225
 20
507.9537655417
 10
366.2941960968
 20
508.0353961507
 10
366.312224943
 20
508.1205323686
 10
366.3202377635
 20
508.2076717917
 10
366.3227417699
 20
508.2958128173
 10
366.3237433725
 20
508.3834530417
 10
366.3237433725
 20
508.3834530417
 10
366.3217401673
 20
508.4285251571
 10
366.3157305519
 20
508.4756004776
 10
366.3062153276
 20
508.5256806058
 10
366.2921928917
 20
508.5782647404
 10
366.2741640455
 20
508.6313496763
 10
366.2506263853
 20
508.6829322084
 10
366.2220807122
 20
508.7325115353
 10
366.1885270263
 20
508.7805884584
 10
366.148963725
 20
508.8256605737
 10
366.1033908084
 20
508.8672270802
 10
366.051307475
 20
508.9047871763
 10
365.992713725
 20
508.9388416635
 10
365.9276095584
 20
508.9668865353
 10
365.8549933725
 20
508.9874193878
 10
365.774364366
 20
508.9994386186
 10
365.6867241417
 20
509.0034450289
 10
365.6867241417
 20
509.0034450289
 10
365.5970807122
 20
508.9994386186
 10
365.5144485007
 20
508.9879201891
 10
365.4393283084
 20
508.9683889391
 10
365.3717201353
 20
508.9408448686
 10
365.3106223789
 20
508.9067903814
 10
365.2550334366
 20
508.8682286827
 10
365.2054541096
 20
508.8241581699
 10
365.1618843981
 20
508.7750796443
 10
365.1243243019
 20
508.7219947084
 10
365.0917722186
 20
508.6659049648
 10
365.0652297507
 20
508.6063096122
 10
365.0441960968
 20
508.5432086507
 10
365.0286712571
 20
508.4791060866
 10
365.0171528276
 20
508.4145027212
 10
365.0106424109
 20
508.3504001571
 10
365.0081384045
 20
508.2857967917
 10
365.0081384045
 20
508.2857967917
 10
365.0106424109
 20
508.3504001571
 10
365.0171528276
 20
508.4145027212
 10
365.0286712571
 20
508.4791060866
 10
365.0441960968
 20
508.5432086507
 10
365.0652297507
 20
508.6063096122
 10
365.0917722186
 20
508.6659049648
 10
365.1243243019
 20
508.7219947084
 10
365.1618843981
 20
508.7750796443
 10
365.2054541096
 20
508.8241581699
 10
365.2550334366
 20
508.8682286827
 10
365.3106223789
 20
508.9067903814
 10
365.3717201353
 20
508.9408448686
 10
365.4393283084
 20
508.9683889391
 10
365.5144485007
 20
508.9879201891
 10
365.5970807122
 20
508.9994386186
 10
365.6867241417
 20
509.0034450289
 10
365.6867241417
 20
509.0034450289
 10
365.774364366
 20
508.9994386186
 10
365.8549933725
 20
508.9874193878
 10
365.9276095584
 20
508.9668865353
 10
365.992713725
 20
508.9388416635
 10
366.051307475
 20
508.9047871763
 10
366.1033908084
 20
508.8672270802
 10
366.148963725
 20
508.8256605737
 10
366.1885270263
 20
508.7805884584
 10
366.2220807122
 20
508.7325115353
 10
366.2506263853
 20
508.6829322084
 10
366.2741640455
 20
508.6313496763
 10
366.2921928917
 20
508.5782647404
 10
366.3062153276
 20
508.5256806058
 10
366.3157305519
 20
508.4756004776
 10
366.3217401673
 20
508.4285251571
 10
366.3237433725
 20
508.3834530417
 10
366.3237433725
 20
508.3834530417
 10
366.3227417699
 20
508.2958128173
 10
366.3202377635
 20
508.2076717917
 10
366.312224943
 20
508.1205323686
 10
366.2941960968
 20
508.0353961507
 10
366.2651496225
 20
507.9537655417
 10
366.2230823148
 20
507.8751397404
 10
366.1960390455
 20
507.8375796443
 10
366.1634869622
 20
507.8020227532
 10
366.1249252635
 20
507.7679682661
 10
366.0813555519
 20
507.735916984
 10
366.0813555519
 20
507.735916984
 10
365.4894084366
 20
507.3387815673
 10
365.4894084366
 20
507.3387815673
 10
365.3807345584
 20
507.2656645802
 10
365.2765678917
 20
507.192547593
 10
365.2269885648
 20
507.1544866955
 10
365.1799132443
 20
507.1134209904
 10
365.1358427314
 20
507.0688496763
 10
365.0947770263
 20
507.0217743558
 10
365.0567161289
 20
506.970692625
 10
365.0226616417
 20
506.9161052853
 10
364.9916119622
 20
506.8565099327
 10
364.964568693
 20
506.7934089712
 10
364.9425334366
 20
506.7242983943
 10
364.9260069943
 20
506.6476757981
 10
364.9154901673
 20
506.5635411827
 10
364.9109829558
 20
506.4713937468
 10
364.9109829558
 20
506.4713937468
 10
366.3963595584
 20
506.4713937468
 10
366.3963595584
 20
506.4713937468
 10
364.9109829558
 20
506.4713937468
  0
LINE
  5
98
330
1F
100
AcDbEntity
  8
0
  6
Continuous
 62
     7
370
    15
100
AcDbLine
 10
378.6591800712
 20
508.9713937468
 30
0.0
 11
377.6591800712
 21
508.4713937468
 31
0.0
  0
LINE
  5
99
330
1F
100
AcDbEntity
  8
0
  6
Continuous
 62
     7
370
    15
100
AcDbLine
 10
379.1591800712
 20
509.4713937468
 30
0.0
 11
378.6591800712
 21
508.9713937468
 31
0.0
  0
LINE
  5
9A
330
1F
100
AcDbEntity
  8
0
  6
Continuous
 62
     7
370
    15
100
AcDbLine
 10
380.1591800712
 20
509.4713937468
 30
0.0
 11
379.1591800712
 21
509.4713937468
 31
0.0
  0
LINE
  5
9B
330
1F
100
AcDbEntity
  8
0
  6
Continuous
 62
     7
370
    15
100
AcDbLine
 10
381.6591800712
 20
507.9713937468
 30
0.0
 11
380.1591800712
 21
509.4713937468
 31
0.0
  0
LINE
  5
9C
330
1F
100
AcDbEntity
  8
0
  6
Continuous
 62
     7
370
    15
100
AcDbLine
 10
381.6591800712
 20
506.4713937468
 30
0.0
 11
381.6591800712
 21
507.9713937468
 31
0.0
  0
LINE
  5
9D
330
1F
100
AcDbEntity
  8
0
  6
Continuous
 62
     7
370
    15
100
AcDbLine
 10
368.6591800712
 20
505.9713937468
 30
0.0
 11
381.6591800712
 21
506.4713937468
 31
0.0
  0
LINE
  5
9E
330
1F
100
AcDbEntity
  8
0
  6
Continuous
 62
     7
370
    15
100
AcDbLine
 10
368.6591800712
 20
505.4713937468
 30
0.0
 11
368.6591800712
 21
505.9713937468
 31
0.0
  0
LINE
  5
9F
330
1F
100
AcDbEntity
  8
0
  6
Continuous
 62
     7
370
    15
100
AcDbLine
 10
381.6591800712
 20
505.4713937468
 30
0.0
 11
368.6591800712
 21
505.4713937468
 31
0.0
  0
LINE
  5
A0
330
1F
100
AcDbEntity
  8
0
  6
Continuous
 62
     7
370
    15
100
AcDbLine
 10
381.6591800712
 20
481.4713937468
 30
0.0
 11
381.6591800712
 21
505.4713937468
 31
0.0
  0
LINE
  5
A1
330
1F
100
AcDbEntity
  8
0
  6
Continuous
 62
     7
370
    15
100
AcDbLine
 10
368.6591800712
 20
481.4713937468
 30
0.0
 11
381.6591800712
 21
481.4713937468
 31
0.0
  0
LINE
  5
A2
330
1F
100
AcDbEntity
  8
0
  6
Continuous
 62
     7
370
    15
100
AcDbLine
 10
368.6591800712
 20
480.9713937468
 30
0.0
 11
368.6591800712
 21
481.4713937468
 31
0.0
  0
LINE
  5
A3
330
1F
100
AcDbEntity
  8
0
  6
Continuous
 62
     7
370
    15
100
AcDbLine
 10
381.6591800712
 20
480.4713937468
 30
0.0
 11
368.6591800712
 21
480.9713937468
 31
0.0
  0
LINE
  5
A4
330
1F
100
AcDbEntity
  8
0
  6
Continuous
 62
     7
370
    15
100
AcDbLine
 10
381.6591800712
 20
478.9713937468
 30
0.0
 11
381.6591800712
 21
480.4713937468
 31
0.0
  0
LINE
  5
A5
330
1F
100
AcDbEntity
  8
0
  6
Continuous
 62
     7
370
    15
100
AcDbLine
 10
380.1591800712
 20
477.4713937468
 30
0.0
 11
381.6591800712
 21
478.9713937468
 31
0.0
  0
LINE
  5
A6
330
1F
100
AcDbEntity
  8
0
  6
Continuous
 62
     7
370
    15
100
AcDbLine
 10
379.1591800712
 20
477.4713937468
 30
0.0
 11
380.1591800712
 21
477.4713937468
 31
0.0
  0
LINE
  5
A7
330
1F
100
AcDbEntity
  8
0
  6
Continuous
 62
     7
370
    15
100
AcDbLine
 10
378.6591800712
 20
477.9713937468
 30
0.0
 11
379.1591800712
 21
477.4713937468
 31
0.0
  0
LINE
  5
A8
330
1F
100
AcDbEntity
  8
0
  6
Continuous
 62
     7
370
    15
100
AcDbLine
 10
377.6591800712
 20
478.4713937468
 30
0.0
 11
378.6591800712
 21
477.9713937468
 31
0.0
  0
LINE
  5
A9
330
1F
100
AcDbEntity
  8
0
  6
Continuous
 62
     7
370
    15
100
AcDbLine
 10
368.6591800712
 20
478.4713937468
 30
0.0
 11
377.6591800712
 21
478.4713937468
 31
0.0
  0
LINE
  5
AA
330
1F
100
AcDbEntity
  8
0
  6
Continuous
 62
     7
370
    15
100
AcDbLine
 10
368.6591800712
 20
477.9713937468
 30
0.0
 11
368.6591800712
 21
478.4713937468
 31
0.0
  0
LINE
  5
AB
330
1F
100
AcDbEntity
  8
0
  6
Continuous
 62
     7
370
    15
100
AcDbLine
 10
375.6591800712
 20
477.4713937468
 30
0.0
 11
368.6591800712
 21
477.9713937468
 31
0.0
  0
LINE
  5
AC
330
1F
100
AcDbEntity
  8
0
  6
Continuous
 62
     7
370
    15
100
AcDbLine
 10
375.6591800712
 20
473.4713937468
 30
0.0
 11
375.6591800712
 21
477.4713937468
 31
0.0
  0
LINE
  5
AD
330
1F
100
AcDbEntity
  8
0
  6
Continuous
 62
     7
370
    15
100
AcDbLine
 10
337.5591800712
 20
473.4713937468
 30
0.0
 11
375.6591800712
 21
473.4713937468
 31
0.0
  0
ARC
  5
AE
330
1F
100
AcDbEntity
  8
0
  6
Continuous
 62
     7
370
    15
100
AcDbCircle
 10
337.5591800712
 20
493.4713937468
 30
0.0
 40
20.0
100
AcDbArc
 50
90.0
 51
270.0
  0
LINE
  5
AF
330
1F
100
AcDbEntity
  8
0
  6
Continuous
 62
     7
370
    15
100
AcDbLine
 10
375.6591800712
 20
513.4713937468
 30
0.0
 11
337.5591800712
 21
513.4713937468
 31
0.0
  0
LINE
  5
B0
330
1F
100
AcDbEntity
  8
0
  6
Continuous
 62
     7
370
    15
100
AcDbLine
 10
375.6591800712
 20
509.4713937468
 30
0.0
 11
375.6591800712
 21
513.4713937468
 31
0.0
  0
LINE
  5
B1
330
1F
100
AcDbEntity
  8
0
  6
Continuous
 62
     7
370
    15
100
AcDbLine
 10
368.6591800712
 20
508.9713937468
 30
0.0
 11
375.6591800712
 21
509.4713937468
 31
0.0
  0
LINE
  5
B2
330
1F
100
AcDbEntity
  8
0
  6
Continuous
 62
     7
370
    15
100
AcDbLine
 10
368.6591800712
 20
508.4713937468
 30
0.0
 11
368.6591800712
 21
508.9713937468
 31
0.0
  0
LINE
  5
B3
330
1F
100
AcDbEntity
  8
0
  6
Continuous
 62
     7
370
    15
100
AcDbLine
 10
377.6591800712
 20
508.4713937468
 30
0.0
 11
368.6591800712
 21
508.4713937468
 31
0.0
  0
CIRCLE
  5
B4
330
1F
100
AcDbEntity
  8
0
  6
Continuous
 62
     7
370
    15
100
AcDbCircle
 10
332.5591800712
 20
508.4713937468
 30
0.0
 40
1.5
  0
CIRCLE
  5
B5
330
1F
100
AcDbEntity
  8
0
  6
Continuous
 62
     7
370
    15
100
AcDbCircle
 10
342.5591800712
 20
508.4713937468
 30
0.0
 40
1.5
  0
CIRCLE
  5
B6
330
1F
100
AcDbEntity
  8
0
  6
Continuous
 62
     7
370
    15
100
AcDbCircle
 10
342.5591800712
 20
478.4713937468
 30
0.0
 40
1.5
  0
CIRCLE
  5
B7
330
1F
100
AcDbEntity
  8
0
  6
Continuous
 62
     7
370
    15
100
AcDbCircle
 10
332.5591800712
 20
478.4713937468
 30
0.0
 40
1.5
  0
LINE
  5
B8
330
1F
100
AcDbEntity
  8
0
  6
Continuous
 62
     7
370
    15
100
AcDbLine
 10
324.1591800712
 20
496.4713937468
 30
0.0
 11
324.1591800712
 21
490.4713937468
 31
0.0
  0
LINE
  5
B9
330
1F
100
AcDbEntity
  8
0
  6
Continuous
 62
     7
370
    15
100
AcDbLine
 10
324.1591800712
 20
490.4713937468
 30
0.0
 11
327.1591800712
 21
490.4713937468
 31
0.0
  0
LINE
  5
BA
330
1F
100
AcDbEntity
  8
0
  6
Continuous
 62
     7
370
    15
100
AcDbLine
 10
327.1591800712
 20
490.4713937468
 30
0.0
 11
327.1591800712
 21
482.9713937468
 31
0.0
  0
LINE
  5
BB
330
1F
100
AcDbEntity
  8
0
  6
Continuous
 62
     7
370
    15
100
AcDbLine
 10
327.1591800712
 20
482.9713937468
 30
0.0
 11
368.1591800712
 21
482.9713937468
 31
0.0
  0
LINE
  5
BC
330
1F
100
AcDbEntity
  8
0
  6
Continuous
 62
     7
370
    15
100
AcDbLine
 10
368.1591800712
 20
482.9713937468
 30
0.0
 11
368.1591800712
 21
503.9713937468
 31
0.0
  0
LINE
  5
BD
330
1F
100
AcDbEntity
  8
0
  6
Continuous
 62
     7
370
    15
100
AcDbLine
 10
368.1591800712
 20
503.9713937468
 30
0.0
 11
327.1591800712
 21
503.9713937468
 31
0.0
  0
LINE
  5
BE
330
1F
100
AcDbEntity
  8
0
  6
Continuous
 62
     7
370
    15
100
AcDbLine
 10
327.1591800712
 20
496.4713937468
 30
0.0
 11
324.1591800712
 21
496.4713937468
 31
0.0
  0
LINE
  5
BF
330
1F
100
AcDbEntity
  8
0
  6
Continuous
 62
     7
370
    15
100
AcDbLine
 10
327.1591800712
 20
503.9713937468
 30
0.0
 11
327.1591800712
 21
496.4713937468
 31
0.0
  0
LINE
  5
C0
330
1F
100
AcDbEntity
  8
0
  6
CENTERX2
 62
     7
100
AcDbLine
 10
397.9802006265
 20
506.4520669554
 30
0.0
 11
413.9802006265
 21
506.4520669554
 31
0.0
  0
LINE
  5
C1
330
1F
100
AcDbEntity
  8
0
  6
CENTERX2
 62
     7
100
AcDbLine
 10
397.9802006265
 20
509.9520669554
 30
0.0
 11
413.9802006265
 21
509.9520669554
 31
0.0
  0
LWPOLYLINE
  5
C2
330
1F
100
AcDbEntity
  8
0
  6
Continuous
 62
     7
100
AcDbPolyline
 90
       76
 70
   128
 43
0.0
 10
399.5657374854
 20
510.4899275324
 10
399.563233479
 20
510.4433530131
 10
399.5557214598
 20
510.3957768913
 10
399.5432014277
 20
510.3482007695
 10
399.5256733829
 20
510.3001238465
 10
399.5036381265
 20
510.2530485259
 10
399.4775964598
 20
510.2084772118
 10
399.4465467803
 20
510.1659091029
 10
399.4114906906
 20
510.1258450003
 10
399.3719273893
 20
510.0892865067
 10
399.3283576777
 20
510.0557328208
 10
399.2792791521
 20
510.0261855452
 10
399.2261942162
 20
510.0001438785
 10
399.16910287
 20
509.9791102247
 10
399.1080051136
 20
509.9640861862
 10
399.042900947
 20
509.9550717631
 10
398.97379037
 20
509.9520669554
 10
398.97379037
 20
509.9520669554
 10
398.9041789918
 20
509.9550717631
 10
398.8380732226
 20
509.9635853849
 10
398.7749722611
 20
509.9781086221
 10
398.7153769085
 20
509.9986414747
 10
398.6597879662
 20
510.0236815388
 10
398.6087062354
 20
510.0532288144
 10
398.5621317162
 20
510.0857808977
 10
398.5200644085
 20
510.1228401926
 10
398.4825043124
 20
510.1629042952
 10
398.4494514277
 20
510.2049716029
 10
398.4209057547
 20
510.249542917
 10
398.3968672931
 20
510.2966182375
 10
398.3778368444
 20
510.3451959618
 10
398.3648160111
 20
510.3932728849
 10
398.3563023893
 20
510.4418506093
 10
398.3537983829
 20
510.4899275324
 10
398.3537983829
 20
510.4899275324
 10
398.3537983829
 20
510.7448353849
 10
398.3537983829
 20
510.7448353849
 10
398.3537983829
 20
510.4899275324
 10
398.3537983829
 20
510.4899275324
 10
398.3563023893
 20
510.4418506093
 10
398.3648160111
 20
510.3932728849
 10
398.3778368444
 20
510.3451959618
 10
398.3968672931
 20
510.2966182375
 10
398.4209057547
 20
510.249542917
 10
398.4494514277
 20
510.2049716029
 10
398.4825043124
 20
510.1629042952
 10
398.5200644085
 20
510.1228401926
 10
398.5621317162
 20
510.0857808977
 10
398.6087062354
 20
510.0532288144
 10
398.6597879662
 20
510.0236815388
 10
398.7153769085
 20
509.9986414747
 10
398.7749722611
 20
509.9781086221
 10
398.8380732226
 20
509.9635853849
 10
398.9041789918
 20
509.9550717631
 10
398.97379037
 20
509.9520669554
 10
398.97379037
 20
509.9520669554
 10
399.042900947
 20
509.9550717631
 10
399.1080051136
 20
509.9640861862
 10
399.16910287
 20
509.9791102247
 10
399.2261942162
 20
510.0001438785
 10
399.2792791521
 20
510.0261855452
 10
399.3283576777
 20
510.0557328208
 10
399.3719273893
 20
510.0892865067
 10
399.4114906906
 20
510.1258450003
 10
399.4465467803
 20
510.1659091029
 10
399.4775964598
 20
510.2084772118
 10
399.5036381265
 20
510.2530485259
 10
399.5256733829
 20
510.3001238465
 10
399.5432014277
 20
510.3482007695
 10
399.5557214598
 20
510.3957768913
 10
399.563233479
 20
510.4433530131
 10
399.5657374854
 20
510.4899275324
 10
399.5657374854
 20
510.4899275324
 10
399.5692430944
 20
512.4200156734
 10
399.5692430944
 20
512.4200156734
 10
399.5657374854
 20
510.4899275324
  0
LWPOLYLINE
  5
C3
330
1F
100
AcDbEntity
  8
0
  6
Continuous
 62
     7
100
AcDbPolyline
 90
      128
 70
   128
 43
0.0
 10
400.3730291521
 20
509.9520669554
 10
400.3775363636
 20
510.0442143913
 10
400.3880531906
 20
510.1283490067
 10
400.4045796329
 20
510.2049716029
 10
400.4266148893
 20
510.2740821798
 10
400.4536581585
 20
510.3371831413
 10
400.484707838
 20
510.3967784939
 10
400.5187623252
 20
510.4513658336
 10
400.5568232226
 20
510.5024475644
 10
400.5978889277
 20
510.5495228849
 10
400.6419594406
 20
510.594094199
 10
400.6890347611
 20
510.6351599041
 10
400.738614088
 20
510.6732208016
 10
400.8427807547
 20
510.7463377888
 10
400.9514546329
 20
510.8194547759
 10
400.9514546329
 20
510.8194547759
 10
401.5434017483
 20
511.2165901926
 10
401.5434017483
 20
511.2165901926
 10
401.5869714598
 20
511.2486414747
 10
401.6255331585
 20
511.2826959618
 10
401.6580852418
 20
511.3182528529
 10
401.6851285111
 20
511.355812949
 10
401.7271958188
 20
511.4344387503
 10
401.7562422931
 20
511.5160693593
 10
401.7742711393
 20
511.6012055772
 10
401.7822839598
 20
511.6883450003
 10
401.7847879662
 20
511.7764860259
 10
401.7857895688
 20
511.8641262503
 10
401.7857895688
 20
511.8641262503
 10
401.7837863636
 20
511.9091983657
 10
401.7777767483
 20
511.9562736862
 10
401.7682615239
 20
512.0063538144
 10
401.754239088
 20
512.058937949
 10
401.7362102418
 20
512.1120228849
 10
401.7126725816
 20
512.163605417
 10
401.6841269085
 20
512.2131847439
 10
401.6505732226
 20
512.261261667
 10
401.6110099213
 20
512.3063337824
 10
401.5654370047
 20
512.3479002888
 10
401.5133536713
 20
512.3854603849
 10
401.4547599213
 20
512.4195148721
 10
401.3896557547
 20
512.4475597439
 10
401.3170395688
 20
512.4680925965
 10
401.2364105624
 20
512.4801118272
 10
401.148770338
 20
512.4841182375
 10
401.148770338
 20
512.4841182375
 10
401.0591269085
 20
512.4801118272
 10
400.976494697
 20
512.4685933977
 10
400.9013745047
 20
512.4490621477
 10
400.8337663316
 20
512.4215180772
 10
400.7726685752
 20
512.38746359
 10
400.7170796329
 20
512.3489018913
 10
400.6675003059
 20
512.3048313785
 10
400.6239305944
 20
512.2557528529
 10
400.5863704983
 20
512.202667917
 10
400.5538184149
 20
512.1465781734
 10
400.527275947
 20
512.0869828208
 10
400.5062422931
 20
512.0238818593
 10
400.4907174534
 20
511.9597792952
 10
400.4791990239
 20
511.8951759298
 10
400.4726886072
 20
511.8310733657
 10
400.4701846008
 20
511.7664700003
 10
400.4701846008
 20
511.7664700003
 10
400.4726886072
 20
511.8310733657
 10
400.4791990239
 20
511.8951759298
 10
400.4907174534
 20
511.9597792952
 10
400.5062422931
 20
512.0238818593
 10
400.527275947
 20
512.0869828208
 10
400.5538184149
 20
512.1465781734
 10
400.5863704983
 20
512.202667917
 10
400.6239305944
 20
512.2557528529
 10
400.6675003059
 20
512.3048313785
 10
400.7170796329
 20
512.3489018913
 10
400.7726685752
 20
512.38746359
 10
400.8337663316
 20
512.4215180772
 10
400.9013745047
 20
512.4490621477
 10
400.976494697
 20
512.4685933977
 10
401.0591269085
 20
512.4801118272
 10
401.148770338
 20
512.4841182375
 10
401.148770338
 20
512.4841182375
 10
401.2364105624
 20
512.4801118272
 10
401.3170395688
 20
512.4680925965
 10
401.3896557547
 20
512.4475597439
 10
401.4547599213
 20
512.4195148721
 10
401.5133536713
 20
512.3854603849
 10
401.5654370047
 20
512.3479002888
 10
401.6110099213
 20
512.3063337824
 10
401.6505732226
 20
512.261261667
 10
401.6841269085
 20
512.2131847439
 10
401.7126725816
 20
512.163605417
 10
401.7362102418
 20
512.1120228849
 10
401.754239088
 20
512.058937949
 10
401.7682615239
 20
512.0063538144
 10
401.7777767483
 20
511.9562736862
 10
401.7837863636
 20
511.9091983657
 10
401.7857895688
 20
511.8641262503
 10
401.7857895688
 20
511.8641262503
 10
401.7847879662
 20
511.7764860259
 10
401.7822839598
 20
511.6883450003
 10
401.7742711393
 20
511.6012055772
 10
401.7562422931
 20
511.5160693593
 10
401.7271958188
 20
511.4344387503
 10
401.6851285111
 20
511.355812949
 10
401.6580852418
 20
511.3182528529
 10
401.6255331585
 20
511.2826959618
 10
401.5869714598
 20
511.2486414747
 10
401.5434017483
 20
511.2165901926
 10
401.5434017483
 20
511.2165901926
 10
400.9514546329
 20
510.8194547759
 10
400.9514546329
 20
510.8194547759
 10
400.8427807547
 20
510.7463377888
 10
400.738614088
 20
510.6732208016
 10
400.6890347611
 20
510.6351599041
 10
400.6419594406
 20
510.594094199
 10
400.5978889277
 20
510.5495228849
 10
400.5568232226
 20
510.5024475644
 10
400.5187623252
 20
510.4513658336
 10
400.484707838
 20
510.3967784939
 10
400.4536581585
 20
510.3371831413
 10
400.4266148893
 20
510.2740821798
 10
400.4045796329
 20
510.2049716029
 10
400.3880531906
 20
510.1283490067
 10
400.3775363636
 20
510.0442143913
 10
400.3730291521
 20
509.9520669554
 10
400.3730291521
 20
509.9520669554
 10
401.8584057547
 20
509.9520669554
 10
401.8584057547
 20
509.9520669554
 10
400.3730291521
 20
509.9520669554
  0
LWPOLYLINE
  5
C4
330
1F
100
AcDbEntity
  8
0
  6
Continuous
 62
     7
100
AcDbPolyline
 90
       83
 70
   128
 43
0.0
 10
399.4550604021
 20
506.4200156734
 10
399.3423801136
 20
506.4240220836
 10
399.2337062354
 20
506.437042917
 10
399.1285379662
 20
506.4580765708
 10
399.0268753059
 20
506.4876238465
 10
398.9307214598
 20
506.5266863465
 10
398.8400764277
 20
506.5767664747
 10
398.7559418124
 20
506.6363618272
 10
398.6773160111
 20
506.706974808
 10
398.606202229
 20
506.788605417
 10
398.5431012675
 20
506.882756058
 10
398.4875123252
 20
506.9879243272
 10
398.4404370047
 20
507.1056126285
 10
398.4199041521
 20
507.1692143913
 10
398.4023761072
 20
507.2363217631
 10
398.38785287
 20
507.3069347439
 10
398.375332838
 20
507.3815541349
 10
398.3658176136
 20
507.4591783336
 10
398.359307197
 20
507.5408089426
 10
398.3553007867
 20
507.6259451606
 10
398.3537983829
 20
507.7145869875
 10
398.3537983829
 20
507.7145869875
 10
398.3553007867
 20
507.8027280131
 10
398.359307197
 20
507.8868626285
 10
398.3658176136
 20
507.9679924362
 10
398.375332838
 20
508.0456166349
 10
398.38785287
 20
508.1197352247
 10
398.4023761072
 20
508.1908490067
 10
398.4199041521
 20
508.2579563785
 10
398.4404370047
 20
508.3220589426
 10
398.4875123252
 20
508.4407488465
 10
398.5431012675
 20
508.5474195195
 10
398.606202229
 20
508.6425717631
 10
398.6773160111
 20
508.7257047759
 10
398.7559418124
 20
508.7978201606
 10
398.8400764277
 20
508.858917917
 10
398.9307214598
 20
508.9089980452
 10
399.0268753059
 20
508.9480605452
 10
399.1285379662
 20
508.9781086221
 10
399.2337062354
 20
508.9991422759
 10
399.3423801136
 20
509.0121631093
 10
399.4550604021
 20
509.0161695195
 10
399.4550604021
 20
509.0161695195
 10
399.5672398893
 20
509.0121631093
 10
399.6759137675
 20
508.9991422759
 10
399.7810820367
 20
508.9781086221
 10
399.8822438957
 20
508.9480605452
 10
399.9788985431
 20
508.9089980452
 10
400.0695435752
 20
508.858917917
 10
400.1536781906
 20
508.7978201606
 10
400.2318031906
 20
508.7257047759
 10
400.3034177739
 20
508.6425717631
 10
400.3665187354
 20
508.5474195195
 10
400.4221076777
 20
508.4407488465
 10
400.4691829983
 20
508.3220589426
 10
400.4897158508
 20
508.2579563785
 10
400.5072438957
 20
508.1908490067
 10
400.5217671329
 20
508.1197352247
 10
400.5342871649
 20
508.0456166349
 10
400.5438023893
 20
507.9679924362
 10
400.5503128059
 20
507.8868626285
 10
400.5543192162
 20
507.8027280131
 10
400.55582162
 20
507.7145869875
 10
400.55582162
 20
507.7145869875
 10
400.5543192162
 20
507.6259451606
 10
400.5503128059
 20
507.5408089426
 10
400.5438023893
 20
507.4591783336
 10
400.5342871649
 20
507.3815541349
 10
400.5217671329
 20
507.3069347439
 10
400.5072438957
 20
507.2363217631
 10
400.4897158508
 20
507.1692143913
 10
400.4691829983
 20
507.1056126285
 10
400.4221076777
 20
506.9879243272
 10
400.3665187354
 20
506.882756058
 10
400.3034177739
 20
506.788605417
 10
400.2318031906
 20
506.706974808
 10
400.1536781906
 20
506.6363618272
 10
400.0695435752
 20
506.5767664747
 10
399.9788985431
 20
506.5266863465
 10
399.8822438957
 20
506.4876238465
 10
399.7810820367
 20
506.4580765708
 10
399.6759137675
 20
506.437042917
 10
399.5672398893
 20
506.4240220836
  0
LWPOLYLINE
  5
C5
330
1F
100
AcDbEntity
  8
0
  6
Continuous
 62
     7
100
AcDbPolyline
 90
       84
 70
   128
 43
0.0
 10
399.4550604021
 20
506.4200156734
 10
399.3423801136
 20
506.4240220836
 10
399.2337062354
 20
506.437042917
 10
399.1285379662
 20
506.4580765708
 10
399.0268753059
 20
506.4876238465
 10
398.9307214598
 20
506.5266863465
 10
398.8400764277
 20
506.5767664747
 10
398.7559418124
 20
506.6363618272
 10
398.6773160111
 20
506.706974808
 10
398.606202229
 20
506.788605417
 10
398.5431012675
 20
506.882756058
 10
398.4875123252
 20
506.9879243272
 10
398.4404370047
 20
507.1056126285
 10
398.4199041521
 20
507.1692143913
 10
398.4023761072
 20
507.2363217631
 10
398.38785287
 20
507.3069347439
 10
398.375332838
 20
507.3815541349
 10
398.3658176136
 20
507.4591783336
 10
398.359307197
 20
507.5408089426
 10
398.3553007867
 20
507.6259451606
 10
398.3537983829
 20
507.7145869875
 10
398.3537983829
 20
507.7145869875
 10
398.3553007867
 20
507.8027280131
 10
398.359307197
 20
507.8868626285
 10
398.3658176136
 20
507.9679924362
 10
398.375332838
 20
508.0456166349
 10
398.38785287
 20
508.1197352247
 10
398.4023761072
 20
508.1908490067
 10
398.4199041521
 20
508.2579563785
 10
398.4404370047
 20
508.3220589426
 10
398.4875123252
 20
508.4407488465
 10
398.5431012675
 20
508.5474195195
 10
398.606202229
 20
508.6425717631
 10
398.6773160111
 20
508.7257047759
 10
398.7559418124
 20
508.7978201606
 10
398.8400764277
 20
508.858917917
 10
398.9307214598
 20
508.9089980452
 10
399.0268753059
 20
508.9480605452
 10
399.1285379662
 20
508.9781086221
 10
399.2337062354
 20
508.9991422759
 10
399.3423801136
 20
509.0121631093
 10
399.4550604021
 20
509.0161695195
 10
399.4550604021
 20
509.0161695195
 10
399.5672398893
 20
509.0121631093
 10
399.6759137675
 20
508.9991422759
 10
399.7810820367
 20
508.9781086221
 10
399.8822438957
 20
508.9480605452
 10
399.9788985431
 20
508.9089980452
 10
400.0695435752
 20
508.858917917
 10
400.1536781906
 20
508.7978201606
 10
400.2318031906
 20
508.7257047759
 10
400.3034177739
 20
508.6425717631
 10
400.3665187354
 20
508.5474195195
 10
400.4221076777
 20
508.4407488465
 10
400.4691829983
 20
508.3220589426
 10
400.4897158508
 20
508.2579563785
 10
400.5072438957
 20
508.1908490067
 10
400.5217671329
 20
508.1197352247
 10
400.5342871649
 20
508.0456166349
 10
400.5438023893
 20
507.9679924362
 10
400.5503128059
 20
507.8868626285
 10
400.5543192162
 20
507.8027280131
 10
400.55582162
 20
507.7145869875
 10
400.55582162
 20
507.7145869875
 10
400.5543192162
 20
507.6259451606
 10
400.5503128059
 20
507.5408089426
 10
400.5438023893
 20
507.4591783336
 10
400.5342871649
 20
507.3815541349
 10
400.5217671329
 20
507.3069347439
 10
400.5072438957
 20
507.2363217631
 10
400.4897158508
 20
507.1692143913
 10
400.4691829983
 20
507.1056126285
 10
400.4221076777
 20
506.9879243272
 10
400.3665187354
 20
506.882756058
 10
400.3034177739
 20
506.788605417
 10
400.2318031906
 20
506.706974808
 10
400.1536781906
 20
506.6363618272
 10
400.0695435752
 20
506.5767664747
 10
399.9788985431
 20
506.5266863465
 10
399.8822438957
 20
506.4876238465
 10
399.7810820367
 20
506.4580765708
 10
399.6759137675
 20
506.437042917
 10
399.5672398893
 20
506.4240220836
 10
399.4550604021
 20
506.4200156734
  0
LWPOLYLINE
  5
C6
330
1F
100
AcDbEntity
  8
0
  6
Continuous
 62
     7
100
AcDbPolyline
 90
       12
 70
   128
 43
0.0
 10
401.7727687354
 20
508.9520669554
 10
403.5521156906
 20
506.4520669554
 10
403.5521156906
 20
506.4520669554
 10
403.5521156906
 20
508.9520669554
 10
403.5521156906
 20
508.9520669554
 10
403.5521156906
 20
506.4520669554
 10
403.5521156906
 20
506.4520669554
 10
401.7727687354
 20
508.9520669554
 10
401.7727687354
 20
508.9520669554
 10
401.7727687354
 20
506.4520669554
 10
401.7727687354
 20
506.4520669554
 10
401.7727687354
 20
508.9520669554
  0
LWPOLYLINE
  5
C7
330
1F
100
AcDbEntity
  8
0
  6
Continuous
 62
     7
100
AcDbPolyline
 90
       83
 70
   128
 43
0.0
 10
405.8973680944
 20
506.4200156734
 10
405.7846878059
 20
506.4240220836
 10
405.6760139277
 20
506.437042917
 10
405.5708456585
 20
506.4580765708
 10
405.4691829983
 20
506.4876238465
 10
405.3730291521
 20
506.5266863465
 10
405.28238412
 20
506.5767664747
 10
405.1982495047
 20
506.6363618272
 10
405.1196237034
 20
506.706974808
 10
405.0485099213
 20
506.788605417
 10
404.9854089598
 20
506.882756058
 10
404.9298200175
 20
506.9879243272
 10
404.882744697
 20
507.1056126285
 10
404.8622118444
 20
507.1692143913
 10
404.8446837995
 20
507.2363217631
 10
404.8301605624
 20
507.3069347439
 10
404.8176405303
 20
507.3815541349
 10
404.8081253059
 20
507.4591783336
 10
404.8016148893
 20
507.5408089426
 10
404.797608479
 20
507.6259451606
 10
404.7961060752
 20
507.7145869875
 10
404.7961060752
 20
507.7145869875
 10
404.797608479
 20
507.8027280131
 10
404.8016148893
 20
507.8868626285
 10
404.8081253059
 20
507.9679924362
 10
404.8176405303
 20
508.0456166349
 10
404.8301605624
 20
508.1197352247
 10
404.8446837995
 20
508.1908490067
 10
404.8622118444
 20
508.2579563785
 10
404.882744697
 20
508.3220589426
 10
404.9298200175
 20
508.4407488465
 10
404.9854089598
 20
508.5474195195
 10
405.0485099213
 20
508.6425717631
 10
405.1196237034
 20
508.7257047759
 10
405.1982495047
 20
508.7978201606
 10
405.28238412
 20
508.858917917
 10
405.3730291521
 20
508.9089980452
 10
405.4691829983
 20
508.9480605452
 10
405.5708456585
 20
508.9781086221
 10
405.6760139277
 20
508.9991422759
 10
405.7846878059
 20
509.0121631093
 10
405.8973680944
 20
509.0161695195
 10
405.8973680944
 20
509.0161695195
 10
406.0095475816
 20
509.0121631093
 10
406.1182214598
 20
508.9991422759
 10
406.223389729
 20
508.9781086221
 10
406.324551588
 20
508.9480605452
 10
406.4212062354
 20
508.9089980452
 10
406.5118512675
 20
508.858917917
 10
406.5959858829
 20
508.7978201606
 10
406.6741108829
 20
508.7257047759
 10
406.7457254662
 20
508.6425717631
 10
406.8088264277
 20
508.5474195195
 10
406.86441537
 20
508.4407488465
 10
406.9114906906
 20
508.3220589426
 10
406.9320235431
 20
508.2579563785
 10
406.949551588
 20
508.1908490067
 10
406.9640748252
 20
508.1197352247
 10
406.9765948572
 20
508.0456166349
 10
406.9861100816
 20
507.9679924362
 10
406.9926204983
 20
507.8868626285
 10
406.9966269085
 20
507.8027280131
 10
406.9981293124
 20
507.7145869875
 10
406.9981293124
 20
507.7145869875
 10
406.9966269085
 20
507.6259451606
 10
406.9926204983
 20
507.5408089426
 10
406.9861100816
 20
507.4591783336
 10
406.9765948572
 20
507.3815541349
 10
406.9640748252
 20
507.3069347439
 10
406.949551588
 20
507.2363217631
 10
406.9320235431
 20
507.1692143913
 10
406.9114906906
 20
507.1056126285
 10
406.86441537
 20
506.9879243272
 10
406.8088264277
 20
506.882756058
 10
406.7457254662
 20
506.788605417
 10
406.6741108829
 20
506.706974808
 10
406.5959858829
 20
506.6363618272
 10
406.5118512675
 20
506.5767664747
 10
406.4212062354
 20
506.5266863465
 10
406.324551588
 20
506.4876238465
 10
406.223389729
 20
506.4580765708
 10
406.1182214598
 20
506.437042917
 10
406.0095475816
 20
506.4240220836
  0
LWPOLYLINE
  5
C8
330
1F
100
AcDbEntity
  8
0
  6
Continuous
 62
     7
100
AcDbPolyline
 90
       84
 70
   128
 43
0.0
 10
405.8973680944
 20
506.4200156734
 10
405.7846878059
 20
506.4240220836
 10
405.6760139277
 20
506.437042917
 10
405.5708456585
 20
506.4580765708
 10
405.4691829983
 20
506.4876238465
 10
405.3730291521
 20
506.5266863465
 10
405.28238412
 20
506.5767664747
 10
405.1982495047
 20
506.6363618272
 10
405.1196237034
 20
506.706974808
 10
405.0485099213
 20
506.788605417
 10
404.9854089598
 20
506.882756058
 10
404.9298200175
 20
506.9879243272
 10
404.882744697
 20
507.1056126285
 10
404.8622118444
 20
507.1692143913
 10
404.8446837995
 20
507.2363217631
 10
404.8301605624
 20
507.3069347439
 10
404.8176405303
 20
507.3815541349
 10
404.8081253059
 20
507.4591783336
 10
404.8016148893
 20
507.5408089426
 10
404.797608479
 20
507.6259451606
 10
404.7961060752
 20
507.7145869875
 10
404.7961060752
 20
507.7145869875
 10
404.797608479
 20
507.8027280131
 10
404.8016148893
 20
507.8868626285
 10
404.8081253059
 20
507.9679924362
 10
404.8176405303
 20
508.0456166349
 10
404.8301605624
 20
508.1197352247
 10
404.8446837995
 20
508.1908490067
 10
404.8622118444
 20
508.2579563785
 10
404.882744697
 20
508.3220589426
 10
404.9298200175
 20
508.4407488465
 10
404.9854089598
 20
508.5474195195
 10
405.0485099213
 20
508.6425717631
 10
405.1196237034
 20
508.7257047759
 10
405.1982495047
 20
508.7978201606
 10
405.28238412
 20
508.858917917
 10
405.3730291521
 20
508.9089980452
 10
405.4691829983
 20
508.9480605452
 10
405.5708456585
 20
508.9781086221
 10
405.6760139277
 20
508.9991422759
 10
405.7846878059
 20
509.0121631093
 10
405.8973680944
 20
509.0161695195
 10
405.8973680944
 20
509.0161695195
 10
406.0095475816
 20
509.0121631093
 10
406.1182214598
 20
508.9991422759
 10
406.223389729
 20
508.9781086221
 10
406.324551588
 20
508.9480605452
 10
406.4212062354
 20
508.9089980452
 10
406.5118512675
 20
508.858917917
 10
406.5959858829
 20
508.7978201606
 10
406.6741108829
 20
508.7257047759
 10
406.7457254662
 20
508.6425717631
 10
406.8088264277
 20
508.5474195195
 10
406.86441537
 20
508.4407488465
 10
406.9114906906
 20
508.3220589426
 10
406.9320235431
 20
508.2579563785
 10
406.949551588
 20
508.1908490067
 10
406.9640748252
 20
508.1197352247
 10
406.9765948572
 20
508.0456166349
 10
406.9861100816
 20
507.9679924362
 10
406.9926204983
 20
507.8868626285
 10
406.9966269085
 20
507.8027280131
 10
406.9981293124
 20
507.7145869875
 10
406.9981293124
 20
507.7145869875
 10
406.9966269085
 20
507.6259451606
 10
406.9926204983
 20
507.5408089426
 10
406.9861100816
 20
507.4591783336
 10
406.9765948572
 20
507.3815541349
 10
406.9640748252
 20
507.3069347439
 10
406.949551588
 20
507.2363217631
 10
406.9320235431
 20
507.1692143913
 10
406.9114906906
 20
507.1056126285
 10
406.86441537
 20
506.9879243272
 10
406.8088264277
 20
506.882756058
 10
406.7457254662
 20
506.788605417
 10
406.6741108829
 20
506.706974808
 10
406.5959858829
 20
506.6363618272
 10
406.5118512675
 20
506.5767664747
 10
406.4212062354
 20
506.5266863465
 10
406.324551588
 20
506.4876238465
 10
406.223389729
 20
506.4580765708
 10
406.1182214598
 20
506.437042917
 10
406.0095475816
 20
506.4240220836
 10
405.8973680944
 20
506.4200156734
  0
LWPOLYLINE
  5
C9
330
1F
100
AcDbEntity
  8
0
  6
Continuous
 62
     7
100
AcDbPolyline
 90
        8
 70
   128
 43
0.0
 10
410.4786982226
 20
506.4520669554
 10
409.5717471008
 20
508.9520669554
 10
409.5717471008
 20
508.9520669554
 10
410.4786982226
 20
506.4520669554
 10
410.4786982226
 20
506.4520669554
 10
411.3856493444
 20
508.9520669554
 10
411.3856493444
 20
508.9520669554
 10
410.4786982226
 20
506.4520669554
  0
LWPOLYLINE
  5
CA
330
1F
100
AcDbEntity
  8
0
  6
Continuous
 62
     7
100
AcDbPolyline
 90
      128
 70
   128
 43
0.0
 10
412.2320035111
 20
506.4520669554
 10
412.2365107226
 20
506.5442143913
 10
412.2470275495
 20
506.6283490067
 10
412.2635539918
 20
506.7049716029
 10
412.2855892483
 20
506.7740821798
 10
412.3126325175
 20
506.8371831413
 10
412.343682197
 20
506.8967784939
 10
412.3777366842
 20
506.9513658336
 10
412.4157975816
 20
507.0024475644
 10
412.4568632867
 20
507.0495228849
 10
412.5009337995
 20
507.094094199
 10
412.54800912
 20
507.1351599041
 10
412.597588447
 20
507.1732208016
 10
412.7017551136
 20
507.2463377888
 10
412.8104289918
 20
507.3194547759
 10
412.8104289918
 20
507.3194547759
 10
413.4023761072
 20
507.7165901926
 10
413.4023761072
 20
507.7165901926
 10
413.4459458188
 20
507.7486414747
 10
413.4845075175
 20
507.7826959618
 10
413.5170596008
 20
507.8182528529
 10
413.54410287
 20
507.855812949
 10
413.5861701777
 20
507.9344387503
 10
413.6152166521
 20
508.0160693593
 10
413.6332454983
 20
508.1012055772
 10
413.6412583188
 20
508.1883450003
 10
413.6437623252
 20
508.2764860259
 10
413.6447639277
 20
508.3641262503
 10
413.6447639277
 20
508.3641262503
 10
413.6427607226
 20
508.4091983657
 10
413.6367511072
 20
508.4562736862
 10
413.6272358829
 20
508.5063538144
 10
413.613213447
 20
508.558937949
 10
413.5951846008
 20
508.6120228849
 10
413.5716469406
 20
508.663605417
 10
413.5431012675
 20
508.7131847439
 10
413.5095475816
 20
508.761261667
 10
413.4699842803
 20
508.8063337824
 10
413.4244113636
 20
508.8479002888
 10
413.3723280303
 20
508.8854603849
 10
413.3137342803
 20
508.9195148721
 10
413.2486301136
 20
508.9475597439
 10
413.1760139277
 20
508.9680925965
 10
413.0953849213
 20
508.9801118272
 10
413.007744697
 20
508.9841182375
 10
413.007744697
 20
508.9841182375
 10
412.9181012675
 20
508.9801118272
 10
412.8354690559
 20
508.9685933977
 10
412.7603488636
 20
508.9490621477
 10
412.6927406906
 20
508.9215180772
 10
412.6316429342
 20
508.88746359
 10
412.5760539918
 20
508.8489018913
 10
412.5264746649
 20
508.8048313785
 10
412.4829049534
 20
508.7557528529
 10
412.4453448572
 20
508.702667917
 10
412.4127927739
 20
508.6465781734
 10
412.3862503059
 20
508.5869828208
 10
412.3652166521
 20
508.5238818593
 10
412.3496918124
 20
508.4597792952
 10
412.3381733829
 20
508.3951759298
 10
412.3316629662
 20
508.3310733657
 10
412.3291589598
 20
508.2664700003
 10
412.3291589598
 20
508.2664700003
 10
412.3316629662
 20
508.3310733657
 10
412.3381733829
 20
508.3951759298
 10
412.3496918124
 20
508.4597792952
 10
412.3652166521
 20
508.5238818593
 10
412.3862503059
 20
508.5869828208
 10
412.4127927739
 20
508.6465781734
 10
412.4453448572
 20
508.702667917
 10
412.4829049534
 20
508.7557528529
 10
412.5264746649
 20
508.8048313785
 10
412.5760539918
 20
508.8489018913
 10
412.6316429342
 20
508.88746359
 10
412.6927406906
 20
508.9215180772
 10
412.7603488636
 20
508.9490621477
 10
412.8354690559
 20
508.9685933977
 10
412.9181012675
 20
508.9801118272
 10
413.007744697
 20
508.9841182375
 10
413.007744697
 20
508.9841182375
 10
413.0953849213
 20
508.9801118272
 10
413.1760139277
 20
508.9680925965
 10
413.2486301136
 20
508.9475597439
 10
413.3137342803
 20
508.9195148721
 10
413.3723280303
 20
508.8854603849
 10
413.4244113636
 20
508.8479002888
 10
413.4699842803
 20
508.8063337824
 10
413.5095475816
 20
508.761261667
 10
413.5431012675
 20
508.7131847439
 10
413.5716469406
 20
508.663605417
 10
413.5951846008
 20
508.6120228849
 10
413.613213447
 20
508.558937949
 10
413.6272358829
 20
508.5063538144
 10
413.6367511072
 20
508.4562736862
 10
413.6427607226
 20
508.4091983657
 10
413.6447639277
 20
508.3641262503
 10
413.6447639277
 20
508.3641262503
 10
413.6437623252
 20
508.2764860259
 10
413.6412583188
 20
508.1883450003
 10
413.6332454983
 20
508.1012055772
 10
413.6152166521
 20
508.0160693593
 10
413.5861701777
 20
507.9344387503
 10
413.54410287
 20
507.855812949
 10
413.5170596008
 20
507.8182528529
 10
413.4845075175
 20
507.7826959618
 10
413.4459458188
 20
507.7486414747
 10
413.4023761072
 20
507.7165901926
 10
413.4023761072
 20
507.7165901926
 10
412.8104289918
 20
507.3194547759
 10
412.8104289918
 20
507.3194547759
 10
412.7017551136
 20
507.2463377888
 10
412.597588447
 20
507.1732208016
 10
412.54800912
 20
507.1351599041
 10
412.5009337995
 20
507.094094199
 10
412.4568632867
 20
507.0495228849
 10
412.4157975816
 20
507.0024475644
 10
412.3777366842
 20
506.9513658336
 10
412.343682197
 20
506.8967784939
 10
412.3126325175
 20
506.8371831413
 10
412.2855892483
 20
506.7740821798
 10
412.2635539918
 20
506.7049716029
 10
412.2470275495
 20
506.6283490067
 10
412.2365107226
 20
506.5442143913
 10
412.2320035111
 20
506.4520669554
 10
412.2320035111
 20
506.4520669554
 10
413.7173801136
 20
506.4520669554
 10
413.7173801136
 20
506.4520669554
 10
412.2320035111
 20
506.4520669554
  0
LINE
  5
CB
330
1F
100
AcDbEntity
  8
0
  6
Continuous
 62
     7
370
    15
100
AcDbLine
 10
389.4802006265
 20
492.2020669554
 30
0.0
 11
396.4802006265
 21
492.2020669554
 31
0.0
  0
LINE
  5
CC
330
1F
100
AcDbEntity
  8
0
  6
Continuous
 62
     7
370
    15
100
AcDbLine
 10
437.4802006265
 20
492.2020669554
 30
0.0
 11
444.4802006265
 21
492.2020669554
 31
0.0
  0
LINE
  5
CD
330
1F
100
AcDbEntity
  8
0
  6
Continuous
 62
     7
370
    15
100
AcDbLine
 10
444.4802006265
 20
492.2020669554
 30
0.0
 11
444.4802006265
 21
494.7020669554
 31
0.0
  0
LINE
  5
CE
330
1F
100
AcDbEntity
  8
0
  6
Continuous
 62
     7
370
    15
100
AcDbLine
 10
444.4802006265
 20
494.7020669554
 30
0.0
 11
437.4802006265
 21
494.7020669554
 31
0.0
  0
LINE
  5
CF
330
1F
100
AcDbEntity
  8
0
  6
Continuous
 62
     7
370
    15
100
AcDbLine
 10
396.4802006265
 20
494.7020669554
 30
0.0
 11
389.4802006265
 21
494.7020669554
 31
0.0
  0
LINE
  5
D0
330
1F
100
AcDbEntity
  8
0
  6
Continuous
 62
     7
370
    15
100
AcDbLine
 10
389.4802006265
 20
494.7020669554
 30
0.0
 11
389.4802006265
 21
492.2020669554
 31
0.0
  0
CIRCLE
  5
D1
330
1F
100
AcDbEntity
  8
0
  6
Continuous
 62
     7
370
    15
100
AcDbCircle
 10
422.0802006265
 20
508.4520669554
 30
0.0
 40
1.25
  0
CIRCLE
  5
D2
330
1F
100
AcDbEntity
  8
0
  6
Continuous
 62
     7
370
    15
100
AcDbCircle
 10
432.0802006265
 20
508.4520669554
 30
0.0
 40
1.249999999999943
  0
CIRCLE
  5
D3
330
1F
100
AcDbEntity
  8
0
  6
Continuous
 62
     7
370
    15
100
AcDbCircle
 10
422.0802006265
 20
478.4520669554
 30
0.0
 40
1.25
  0
CIRCLE
  5
D4
330
1F
100
AcDbEntity
  8
0
  6
Continuous
 62
     7
370
    15
100
AcDbCircle
 10
432.0802006265
 20
478.4520669554
 30
0.0
 40
1.249999999999943
  0
LINE
  5
D5
330
1F
100
AcDbEntity
  8
0
  6
Continuous
 62
     7
370
    15
100
AcDbLine
 10
395.9802006265
 20
508.9520669554
 30
0.0
 11
388.9802006265
 21
509.4520669554
 31
0.0
  0
LINE
  5
D6
330
1F
100
AcDbEntity
  8
0
  6
Continuous
 62
     7
370
    15
100
AcDbLine
 10
437.4802006265
 20
482.9520669554
 30
0.0
 11
396.4802006265
 21
482.9520669554
 31
0.0
  0
CIRCLE
  5
D7
330
1F
100
AcDbEntity
  8
0
  6
Continuous
 62
     7
370
    15
100
AcDbCircle
 10
441.4802006265
 20
498.4520669554
 30
0.0
 40
1.249999999999943
  0
CIRCLE
  5
D8
330
1F
100
AcDbEntity
  8
0
  6
Continuous
 62
     7
370
    15
100
AcDbCircle
 10
441.4802006265
 20
488.4520669554
 30
0.0
 40
1.249999999999943
  0
CIRCLE
  5
D9
330
1F
100
AcDbEntity
  8
0
  6
Continuous
 62
     7
370
    15
100
AcDbCircle
 10
392.4802006265
 20
488.4520669554
 30
0.0
 40
1.250000000000057
  0
CIRCLE
  5
DA
330
1F
100
AcDbEntity
  8
0
  6
Continuous
 62
     7
370
    15
100
AcDbCircle
 10
392.4802006265
 20
498.4520669554
 30
0.0
 40
1.250000000000057
  0
LINE
  5
DB
330
1F
100
AcDbEntity
  8
0
  6
Continuous
 62
     7
370
    15
100
AcDbLine
 10
437.4802006265
 20
494.7020669554
 30
0.0
 11
437.4802006265
 21
503.9520669554
 31
0.0
  0
LINE
  5
DC
330
1F
100
AcDbEntity
  8
0
  6
Continuous
 62
     7
370
    15
100
AcDbLine
 10
437.4802006265
 20
503.9520669554
 30
0.0
 11
396.4802006265
 21
503.9520669554
 31
0.0
  0
LINE
  5
DD
330
1F
100
AcDbEntity
  8
0
  6
Continuous
 62
     7
370
    15
100
AcDbLine
 10
396.4802006265
 20
482.9520669554
 30
0.0
 11
396.4802006265
 21
492.2020669554
 31
0.0
  0
LINE
  5
DE
330
1F
100
AcDbEntity
  8
0
  6
Continuous
 62
     7
370
    15
100
AcDbLine
 10
388.9802006265
 20
509.4520669554
 30
0.0
 11
388.9802006265
 21
513.4520669554
 31
0.0
  0
LINE
  5
DF
330
1F
100
AcDbEntity
  8
0
  6
Continuous
 62
     7
370
    15
100
AcDbLine
 10
388.9802006265
 20
513.4520669554
 30
0.0
 11
427.0802006265
 21
513.4520669554
 31
0.0
  0
ARC
  5
E0
330
1F
100
AcDbEntity
  8
0
  6
Continuous
 62
     7
370
    15
100
AcDbCircle
 10
427.0802006265
 20
493.4520669554
 30
0.0
 40
20.0
100
AcDbArc
 50
270.0
 51
90.0
  0
LINE
  5
E1
330
1F
100
AcDbEntity
  8
0
  6
Continuous
 62
     7
370
    15
100
AcDbLine
 10
388.9802006265
 20
473.4520669554
 30
0.0
 11
427.0802006265
 21
473.4520669554
 31
0.0
  0
LINE
  5
E2
330
1F
100
AcDbEntity
  8
0
  6
Continuous
 62
     7
370
    15
100
AcDbLine
 10
388.9802006265
 20
477.4520669554
 30
0.0
 11
388.9802006265
 21
473.4520669554
 31
0.0
  0
LINE
  5
E3
330
1F
100
AcDbEntity
  8
0
  6
Continuous
 62
     7
370
    15
100
AcDbLine
 10
395.9802006265
 20
477.9520669554
 30
0.0
 11
388.9802006265
 21
477.4520669554
 31
0.0
  0
LINE
  5
E4
330
1F
100
AcDbEntity
  8
0
  6
Continuous
 62
     7
370
    15
100
AcDbLine
 10
395.9802006265
 20
478.4520669554
 30
0.0
 11
395.9802006265
 21
477.9520669554
 31
0.0
  0
LINE
  5
E5
330
1F
100
AcDbEntity
  8
0
  6
Continuous
 62
     7
370
    15
100
AcDbLine
 10
386.9802006265
 20
478.4520669554
 30
0.0
 11
395.9802006265
 21
478.4520669554
 31
0.0
  0
LINE
  5
E6
330
1F
100
AcDbEntity
  8
0
  6
Continuous
 62
     7
370
    15
100
AcDbLine
 10
385.9802006265
 20
477.9520669554
 30
0.0
 11
386.9802006265
 21
478.4520669554
 31
0.0
  0
LINE
  5
E7
330
1F
100
AcDbEntity
  8
0
  6
Continuous
 62
     7
370
    15
100
AcDbLine
 10
385.4802006265
 20
477.4520669554
 30
0.0
 11
385.9802006265
 21
477.9520669554
 31
0.0
  0
LINE
  5
E8
330
1F
100
AcDbEntity
  8
0
  6
Continuous
 62
     7
370
    15
100
AcDbLine
 10
384.4802006265
 20
477.4520669554
 30
0.0
 11
385.4802006265
 21
477.4520669554
 31
0.0
  0
LINE
  5
E9
330
1F
100
AcDbEntity
  8
0
  6
Continuous
 62
     7
370
    15
100
AcDbLine
 10
382.9802006265
 20
478.9520669554
 30
0.0
 11
384.4802006265
 21
477.4520669554
 31
0.0
  0
LINE
  5
EA
330
1F
100
AcDbEntity
  8
0
  6
Continuous
 62
     7
370
    15
100
AcDbLine
 10
382.9802006265
 20
480.4520669554
 30
0.0
 11
382.9802006265
 21
478.9520669554
 31
0.0
  0
LINE
  5
EB
330
1F
100
AcDbEntity
  8
0
  6
Continuous
 62
     7
370
    15
100
AcDbLine
 10
395.9802006265
 20
480.9520669554
 30
0.0
 11
382.9802006265
 21
480.4520669554
 31
0.0
  0
LINE
  5
EC
330
1F
100
AcDbEntity
  8
0
  6
Continuous
 62
     7
370
    15
100
AcDbLine
 10
395.9802006265
 20
481.4520669554
 30
0.0
 11
395.9802006265
 21
480.9520669554
 31
0.0
  0
LINE
  5
ED
330
1F
100
AcDbEntity
  8
0
  6
Continuous
 62
     7
370
    15
100
AcDbLine
 10
382.9802006265
 20
481.4520669554
 30
0.0
 11
395.9802006265
 21
481.4520669554
 31
0.0
  0
LINE
  5
EE
330
1F
100
AcDbEntity
  8
0
  6
Continuous
 62
     7
370
    15
100
AcDbLine
 10
382.9802006265
 20
505.4520669554
 30
0.0
 11
382.9802006265
 21
481.4520669554
 31
0.0
  0
LINE
  5
EF
330
1F
100
AcDbEntity
  8
0
  6
Continuous
 62
     7
370
    15
100
AcDbLine
 10
382.9802006265
 20
505.4520669554
 30
0.0
 11
395.9802006265
 21
505.4520669554
 31
0.0
  0
LINE
  5
F0
330
1F
100
AcDbEntity
  8
0
  6
Continuous
 62
     7
370
    15
100
AcDbLine
 10
395.9802006265
 20
505.4520669554
 30
0.0
 11
395.9802006265
 21
505.9520669554
 31
0.0
  0
LINE
  5
F1
330
1F
100
AcDbEntity
  8
0
  6
Continuous
 62
     7
370
    15
100
AcDbLine
 10
395.9802006265
 20
505.9520669554
 30
0.0
 11
382.9802006265
 21
506.4520669554
 31
0.0
  0
LINE
  5
F2
330
1F
100
AcDbEntity
  8
0
  6
Continuous
 62
     7
370
    15
100
AcDbLine
 10
382.9802006265
 20
506.4520669554
 30
0.0
 11
382.9802006265
 21
507.9520669554
 31
0.0
  0
LINE
  5
F3
330
1F
100
AcDbEntity
  8
0
  6
Continuous
 62
     7
370
    15
100
AcDbLine
 10
382.9802006265
 20
507.9520669554
 30
0.0
 11
384.4802006265
 21
509.4520669554
 31
0.0
  0
LINE
  5
F4
330
1F
100
AcDbEntity
  8
0
  6
Continuous
 62
     7
370
    15
100
AcDbLine
 10
384.4802006265
 20
509.4520669554
 30
0.0
 11
385.4802006265
 21
509.4520669554
 31
0.0
  0
LINE
  5
F5
330
1F
100
AcDbEntity
  8
0
  6
Continuous
 62
     7
370
    15
100
AcDbLine
 10
385.4802006265
 20
509.4520669554
 30
0.0
 11
385.9802006265
 21
508.9520669554
 31
0.0
  0
LINE
  5
F6
330
1F
100
AcDbEntity
  8
0
  6
Continuous
 62
     7
370
    15
100
AcDbLine
 10
385.9802006265
 20
508.9520669554
 30
0.0
 11
386.9802006265
 21
508.4520669554
 31
0.0
  0
LINE
  5
F7
330
1F
100
AcDbEntity
  8
0
  6
Continuous
 62
     7
370
    15
100
AcDbLine
 10
386.9802006265
 20
508.4520669554
 30
0.0
 11
395.9802006265
 21
508.4520669554
 31
0.0
  0
LINE
  5
F8
330
1F
100
AcDbEntity
  8
0
  6
Continuous
 62
     7
370
    15
100
AcDbLine
 10
395.9802006265
 20
508.4520669554
 30
0.0
 11
395.9802006265
 21
508.9520669554
 31
0.0
  0
LINE
  5
F9
330
1F
100
AcDbEntity
  8
0
  6
Continuous
 62
     7
370
    15
100
AcDbLine
 10
437.4802006265
 20
482.9520669554
 30
0.0
 11
437.4802006265
 21
492.2020669554
 31
0.0
  0
LINE
  5
FA
330
1F
100
AcDbEntity
  8
0
  6
Continuous
 62
     7
370
    15
100
AcDbLine
 10
396.4802006265
 20
494.7020669554
 30
0.0
 11
396.4802006265
 21
503.9520669554
 31
0.0
  0
LINE
  5
FB
330
1F
100
AcDbEntity
  8
0
  6
CENTERX2
 62
     7
100
AcDbLine
 10
499.475502524
 20
486.2124387513
 30
0.0
 11
499.475502524
 21
502.2124387513
 31
0.0
  0
LINE
  5
FC
330
1F
100
AcDbEntity
  8
0
  6
CENTERX2
 62
     7
100
AcDbLine
 10
502.975502524
 20
486.2124387513
 30
0.0
 11
502.975502524
 21
502.2124387513
 31
0.0
  0
LWPOLYLINE
  5
FD
330
1F
100
AcDbEntity
  8
0
  6
Continuous
 62
     7
100
AcDbPolyline
 90
       76
 70
   128
 43
0.0
 10
498.9376297327
 20
487.7979756102
 10
498.9842164663
 20
487.7954716038
 10
499.0317925881
 20
487.7879595846
 10
499.0793687099
 20
487.7754395525
 10
499.1274456329
 20
487.7579115077
 10
499.1745209534
 20
487.7358762513
 10
499.2190922675
 20
487.7098345846
 10
499.2616603765
 20
487.6787849051
 10
499.3012236778
 20
487.6437288154
 10
499.3382829727
 20
487.6041655141
 10
499.3713358573
 20
487.5605958025
 10
499.4008831329
 20
487.5115172769
 10
499.4269247996
 20
487.458432341
 10
499.4479584534
 20
487.4013409949
 10
499.4634832932
 20
487.3402432384
 10
499.4724977163
 20
487.2751390718
 10
499.475502524
 20
487.2060284949
 10
499.475502524
 20
487.2060284949
 10
499.4724977163
 20
487.1364171166
 10
499.4639840945
 20
487.0703113474
 10
499.4494608573
 20
487.0072103859
 10
499.4289280047
 20
486.9476150333
 10
499.4038879406
 20
486.892026091
 10
499.3748414663
 20
486.8409443602
 10
499.3417885816
 20
486.794369841
 10
499.3047292868
 20
486.7523025333
 10
499.2646651842
 20
486.7147424372
 10
499.2225978765
 20
486.6816895525
 10
499.1775257611
 20
486.6531438795
 10
499.1304504406
 20
486.6291054179
 10
499.0823735175
 20
486.6100749692
 10
499.0342965945
 20
486.5970541359
 10
498.9857188701
 20
486.5885405141
 10
498.937641947
 20
486.5860365077
 10
498.937641947
 20
486.5860365077
 10
498.6827340945
 20
486.5860365077
 10
498.6827340945
 20
486.5860365077
 10
498.937641947
 20
486.5860365077
 10
498.937641947
 20
486.5860365077
 10
498.9857188701
 20
486.5885405141
 10
499.0342965945
 20
486.5970541359
 10
499.0823735175
 20
486.6100749692
 10
499.1304504406
 20
486.6291054179
 10
499.1775257611
 20
486.6531438795
 10
499.2225978765
 20
486.6816895525
 10
499.2646651842
 20
486.7147424372
 10
499.3047292868
 20
486.7523025333
 10
499.3417885816
 20
486.794369841
 10
499.3748414663
 20
486.8409443602
 10
499.4038879406
 20
486.892026091
 10
499.4289280047
 20
486.9476150333
 10
499.4494608573
 20
487.0072103859
 10
499.4639840945
 20
487.0703113474
 10
499.4724977163
 20
487.1364171166
 10
499.475502524
 20
487.2060284949
 10
499.475502524
 20
487.2060284949
 10
499.4724977163
 20
487.2751390718
 10
499.4634832932
 20
487.3402432384
 10
499.4479584534
 20
487.4013409949
 10
499.4269247996
 20
487.458432341
 10
499.4008831329
 20
487.5115172769
 10
499.3713358573
 20
487.5605958025
 10
499.3382829727
 20
487.6041655141
 10
499.3012236778
 20
487.6437288154
 10
499.2616603765
 20
487.6787849051
 10
499.2190922675
 20
487.7098345846
 10
499.1745209534
 20
487.7358762513
 10
499.1274456329
 20
487.7579115077
 10
499.0793687099
 20
487.7754395525
 10
499.0317925881
 20
487.7879595846
 10
498.9842164663
 20
487.7954716038
 10
498.937641947
 20
487.7979756102
 10
498.937641947
 20
487.7979756102
 10
497.007553806
 20
487.8014812192
 10
497.007553806
 20
487.8014812192
 10
498.937641947
 20
487.7979756102
  0
LWPOLYLINE
  5
FE
330
1F
100
AcDbEntity
  8
0
  6
Continuous
 62
     7
100
AcDbPolyline
 90
      204
 70
   128
 43
0.0
 10
498.851501021
 20
488.5977552577
 10
498.9191122996
 20
488.6007600654
 10
498.983715665
 20
488.6097744884
 10
499.045815024
 20
488.6252993282
 10
499.1049095752
 20
488.646332982
 10
499.1604985175
 20
488.6733762513
 10
499.2125818509
 20
488.7059283346
 10
499.2596571714
 20
488.7444900333
 10
499.3032268829
 20
488.7880597449
 10
499.3422893829
 20
488.8371382705
 10
499.3763438701
 20
488.891224809
 10
499.4058911458
 20
488.949818559
 10
499.4304304086
 20
489.0134203218
 10
499.4499616586
 20
489.0815292961
 10
499.4644848958
 20
489.1536446808
 10
499.4724977163
 20
489.2302672769
 10
499.475502524
 20
489.3108962833
 10
499.475502524
 20
489.3108962833
 10
499.4729985175
 20
489.392026091
 10
499.4664881009
 20
489.4696502897
 10
499.4549696714
 20
489.5437688795
 10
499.4389440304
 20
489.613881059
 10
499.4184111778
 20
489.6799868282
 10
499.3928703124
 20
489.7410845846
 10
499.3623214342
 20
489.7976751295
 10
499.3267645432
 20
489.8492576615
 10
499.2861996393
 20
489.8958321808
 10
499.2401259214
 20
489.9368978859
 10
499.1880425881
 20
489.9729555782
 10
499.1304504406
 20
490.0030036551
 10
499.0668486778
 20
490.0275429179
 10
498.9967364983
 20
490.0445701615
 10
498.9206147034
 20
490.0550869884
 10
498.8374816906
 20
490.0585925974
 10
498.8374816906
 20
490.0585925974
 10
498.7538478765
 20
490.0555877897
 10
498.6752220752
 20
490.0460725654
 10
498.6021050881
 20
490.0300469243
 10
498.534496915
 20
490.0080116679
 10
498.4713959534
 20
489.9799667961
 10
498.413803806
 20
489.9449107064
 10
498.3617204727
 20
489.9038450013
 10
498.3146451522
 20
489.8567696808
 10
498.2730786458
 20
489.8026831423
 10
498.2370209534
 20
489.7405837833
 10
498.2064720752
 20
489.6704716038
 10
498.1819328124
 20
489.5923466038
 10
498.1624015624
 20
489.5067095846
 10
498.1483791265
 20
489.4130597449
 10
498.140366306
 20
489.3113970846
 10
498.1373614983
 20
489.2022224051
 10
498.1373614983
 20
489.2022224051
 10
498.1348574919
 20
489.3098946808
 10
498.1268446714
 20
489.4090533346
 10
498.1138238381
 20
489.4986967641
 10
498.0957949919
 20
489.5793257705
 10
498.0727581329
 20
489.6514411551
 10
498.0457148637
 20
489.7165453218
 10
498.0136635816
 20
489.7736366679
 10
497.9771050881
 20
489.8232159949
 10
497.9365401842
 20
489.8657841038
 10
497.8924696714
 20
489.9018417961
 10
497.8453943509
 20
489.9313890718
 10
497.7943126201
 20
489.9544259308
 10
497.7407268829
 20
489.9719539756
 10
497.6846371393
 20
489.9844740077
 10
497.6260433893
 20
489.9919860269
 10
497.5649456329
 20
489.9944900333
 10
497.5649456329
 20
489.9944900333
 10
497.5038478765
 20
489.9924868282
 10
497.4452541265
 20
489.9859764115
 10
497.3886635816
 20
489.9749587833
 10
497.3340762419
 20
489.9599347449
 10
497.2824937099
 20
489.9404034949
 10
497.2339159855
 20
489.9153634308
 10
497.1883430688
 20
489.8858161551
 10
497.1462757611
 20
489.8507600654
 10
497.1082148637
 20
489.8106959628
 10
497.0741603765
 20
489.7646222449
 10
497.0451139022
 20
489.7120381102
 10
497.0200738381
 20
489.6534443602
 10
497.0005425881
 20
489.5888409949
 10
496.9865201522
 20
489.5172264115
 10
496.9785073316
 20
489.4391014115
 10
496.975502524
 20
489.3544659949
 10
496.975502524
 20
489.3544659949
 10
496.9785073316
 20
489.2688289756
 10
496.9885233573
 20
489.1897023731
 10
497.0045489983
 20
489.1155837833
 10
497.027085056
 20
489.0479756102
 10
497.0551299278
 20
488.9858762513
 10
497.0871812099
 20
488.9292857064
 10
497.1232389022
 20
488.8787047769
 10
497.1633030047
 20
488.8331318602
 10
497.2073735175
 20
488.793568559
 10
497.2554504406
 20
488.7590132705
 10
497.3065321714
 20
488.7294659949
 10
497.3616203124
 20
488.704926732
 10
497.4192124599
 20
488.6858962833
 10
497.4778062099
 20
488.67287545
 10
497.5379023637
 20
488.6643618282
 10
497.5995009214
 20
488.6618578218
 10
497.5995009214
 20
488.6618578218
 10
497.5379023637
 20
488.6643618282
 10
497.4778062099
 20
488.67287545
 10
497.4192124599
 20
488.6858962833
 10
497.3616203124
 20
488.704926732
 10
497.3065321714
 20
488.7294659949
 10
497.2554504406
 20
488.7590132705
 10
497.2073735175
 20
488.793568559
 10
497.1633030047
 20
488.8331318602
 10
497.1232389022
 20
488.8787047769
 10
497.0871812099
 20
488.9292857064
 10
497.0551299278
 20
488.9858762513
 10
497.027085056
 20
489.0479756102
 10
497.0045489983
 20
489.1155837833
 10
496.9885233573
 20
489.1897023731
 10
496.9785073316
 20
489.2688289756
 10
496.975502524
 20
489.3544659949
 10
496.975502524
 20
489.3544659949
 10
496.9785073316
 20
489.4391014115
 10
496.9865201522
 20
489.5172264115
 10
497.0005425881
 20
489.5888409949
 10
497.0200738381
 20
489.6534443602
 10
497.0451139022
 20
489.7120381102
 10
497.0741603765
 20
489.7646222449
 10
497.1082148637
 20
489.8106959628
 10
497.1462757611
 20
489.8507600654
 10
497.1883430688
 20
489.8858161551
 10
497.2339159855
 20
489.9153634308
 10
497.2824937099
 20
489.9404034949
 10
497.3340762419
 20
489.9599347449
 10
497.3886635816
 20
489.9749587833
 10
497.4452541265
 20
489.9859764115
 10
497.5038478765
 20
489.9924868282
 10
497.5649456329
 20
489.9944900333
 10
497.5649456329
 20
489.9944900333
 10
497.6260433893
 20
489.9919860269
 10
497.6846371393
 20
489.9844740077
 10
497.7407268829
 20
489.9719539756
 10
497.7943126201
 20
489.9544259308
 10
497.8453943509
 20
489.9313890718
 10
497.8924696714
 20
489.9018417961
 10
497.9365401842
 20
489.8657841038
 10
497.9771050881
 20
489.8232159949
 10
498.0136635816
 20
489.7736366679
 10
498.0457148637
 20
489.7165453218
 10
498.0727581329
 20
489.6514411551
 10
498.0957949919
 20
489.5793257705
 10
498.1138238381
 20
489.4986967641
 10
498.1268446714
 20
489.4090533346
 10
498.1348574919
 20
489.3098946808
 10
498.1373614983
 20
489.2022224051
 10
498.1373614983
 20
489.2022224051
 10
498.140366306
 20
489.3113970846
 10
498.1483791265
 20
489.4130597449
 10
498.1624015624
 20
489.5067095846
 10
498.1819328124
 20
489.5923466038
 10
498.2064720752
 20
489.6704716038
 10
498.2370209534
 20
489.7405837833
 10
498.2730786458
 20
489.8026831423
 10
498.3146451522
 20
489.8567696808
 10
498.3617204727
 20
489.9038450013
 10
498.413803806
 20
489.9449107064
 10
498.4713959534
 20
489.9799667961
 10
498.534496915
 20
490.0080116679
 10
498.6021050881
 20
490.0300469243
 10
498.6752220752
 20
490.0460725654
 10
498.7538478765
 20
490.0555877897
 10
498.8374816906
 20
490.0585925974
 10
498.8374816906
 20
490.0585925974
 10
498.9206147034
 20
490.0550869884
 10
498.9967364983
 20
490.0445701615
 10
499.0668486778
 20
490.0275429179
 10
499.1304504406
 20
490.0030036551
 10
499.1880425881
 20
489.9729555782
 10
499.2401259214
 20
489.9368978859
 10
499.2861996393
 20
489.8958321808
 10
499.3267645432
 20
489.8492576615
 10
499.3623214342
 20
489.7976751295
 10
499.3928703124
 20
489.7410845846
 10
499.4184111778
 20
489.6799868282
 10
499.4389440304
 20
489.613881059
 10
499.4549696714
 20
489.5437688795
 10
499.4664881009
 20
489.4696502897
 10
499.4729985175
 20
489.392026091
 10
499.475502524
 20
489.3108962833
 10
499.475502524
 20
489.3108962833
 10
499.4724977163
 20
489.2302672769
 10
499.4644848958
 20
489.1536446808
 10
499.4499616586
 20
489.0815292961
 10
499.4304304086
 20
489.0134203218
 10
499.4058911458
 20
488.949818559
 10
499.3763438701
 20
488.891224809
 10
499.3422893829
 20
488.8371382705
 10
499.3032268829
 20
488.7880597449
 10
499.2596571714
 20
488.7444900333
 10
499.2125818509
 20
488.7059283346
 10
499.1604985175
 20
488.6733762513
 10
499.1049095752
 20
488.646332982
 10
499.045815024
 20
488.6252993282
 10
498.983715665
 20
488.6097744884
 10
498.9191122996
 20
488.6007600654
 10
498.8515041265
 20
488.5977552577
  0
LWPOLYLINE
  5
FF
330
1F
100
AcDbEntity
  8
0
  6
Continuous
 62
     7
100
AcDbPolyline
 90
       83
 70
   128
 43
0.0
 10
503.0075391861
 20
487.6872985269
 10
503.0035473958
 20
487.5746182384
 10
502.9905265624
 20
487.4659443602
 10
502.9694929086
 20
487.360776091
 10
502.9394448316
 20
487.2591134308
 10
502.9003823316
 20
487.1629595846
 10
502.8508030047
 20
487.0723145525
 10
502.7907068509
 20
486.9881799372
 10
502.7200938701
 20
486.9095541359
 10
502.6384632611
 20
486.8384403538
 10
502.5448134214
 20
486.7753393923
 10
502.4396451522
 20
486.71975045
 10
502.3219568509
 20
486.6726751295
 10
502.2583550881
 20
486.6521422769
 10
502.1912477163
 20
486.634614232
 10
502.1206347355
 20
486.6200909949
 10
502.0465161458
 20
486.6075709628
 10
501.9683911458
 20
486.5980557384
 10
501.8867605368
 20
486.5915453218
 10
501.8016243188
 20
486.5875389115
 10
501.7129824919
 20
486.5860365077
 10
501.7129824919
 20
486.5860365077
 10
501.6248414663
 20
486.5875389115
 10
501.5407068509
 20
486.5915453218
 10
501.4595770432
 20
486.5980557384
 10
501.3819528445
 20
486.6075709628
 10
501.3078342547
 20
486.6200909949
 10
501.2367204727
 20
486.634614232
 10
501.1696131009
 20
486.6521422769
 10
501.1055105368
 20
486.6726751295
 10
500.9868206329
 20
486.71975045
 10
500.8801499599
 20
486.7753393923
 10
500.7849977163
 20
486.8384403538
 10
500.7018647034
 20
486.9095541359
 10
500.6297493188
 20
486.9881799372
 10
500.5686515624
 20
487.0723145525
 10
500.5185714342
 20
487.1629595846
 10
500.4790081329
 20
487.2591134308
 10
500.4494608573
 20
487.360776091
 10
500.4284272034
 20
487.4659443602
 10
500.4154063701
 20
487.5746182384
 10
500.4113999599
 20
487.6872985269
 10
500.4113999599
 20
487.6872985269
 10
500.4154063701
 20
487.7994780141
 10
500.4284272034
 20
487.9081518923
 10
500.4494608573
 20
488.0133201615
 10
500.4790081329
 20
488.1144820205
 10
500.5185714342
 20
488.2111366679
 10
500.5686515624
 20
488.3017817
 10
500.6297493188
 20
488.3859163154
 10
500.7018647034
 20
488.4640413154
 10
500.7849977163
 20
488.5356558987
 10
500.8801499599
 20
488.5987568602
 10
500.9868206329
 20
488.6543458025
 10
501.1055105368
 20
488.7014211231
 10
501.1696131009
 20
488.7219539756
 10
501.2367204727
 20
488.7394820205
 10
501.3078342547
 20
488.7540052577
 10
501.3819528445
 20
488.7665252897
 10
501.4595770432
 20
488.7760405141
 10
501.5407068509
 20
488.7825509308
 10
501.6248414663
 20
488.786557341
 10
501.7129824919
 20
488.7880597449
 10
501.7129824919
 20
488.7880597449
 10
501.8016243188
 20
488.786557341
 10
501.8867605368
 20
488.7825509308
 10
501.9683911458
 20
488.7760405141
 10
502.0465161458
 20
488.7665252897
 10
502.1206347355
 20
488.7540052577
 10
502.1912477163
 20
488.7394820205
 10
502.2583550881
 20
488.7219539756
 10
502.3219568509
 20
488.7014211231
 10
502.4396451522
 20
488.6543458025
 10
502.5448134214
 20
488.5987568602
 10
502.6384632611
 20
488.5356558987
 10
502.7200938701
 20
488.4640413154
 10
502.7907068509
 20
488.3859163154
 10
502.8508030047
 20
488.3017817
 10
502.9003823316
 20
488.2111366679
 10
502.9394448316
 20
488.1144820205
 10
502.9694929086
 20
488.0133201615
 10
502.9905265624
 20
487.9081518923
 10
503.0035473958
 20
487.7994780141
  0
LWPOLYLINE
  5
100
330
1F
100
AcDbEntity
  8
0
  6
Continuous
 62
     7
100
AcDbPolyline
 90
       84
 70
   128
 43
0.0
 10
503.0075391861
 20
487.6872985269
 10
503.0035473958
 20
487.5746182384
 10
502.9905265624
 20
487.4659443602
 10
502.9694929086
 20
487.360776091
 10
502.9394448316
 20
487.2591134308
 10
502.9003823316
 20
487.1629595846
 10
502.8508030047
 20
487.0723145525
 10
502.7907068509
 20
486.9881799372
 10
502.7200938701
 20
486.9095541359
 10
502.6384632611
 20
486.8384403538
 10
502.5448134214
 20
486.7753393923
 10
502.4396451522
 20
486.71975045
 10
502.3219568509
 20
486.6726751295
 10
502.2583550881
 20
486.6521422769
 10
502.1912477163
 20
486.634614232
 10
502.1206347355
 20
486.6200909949
 10
502.0465161458
 20
486.6075709628
 10
501.9683911458
 20
486.5980557384
 10
501.8867605368
 20
486.5915453218
 10
501.8016243188
 20
486.5875389115
 10
501.7129824919
 20
486.5860365077
 10
501.7129824919
 20
486.5860365077
 10
501.6248414663
 20
486.5875389115
 10
501.5407068509
 20
486.5915453218
 10
501.4595770432
 20
486.5980557384
 10
501.3819528445
 20
486.6075709628
 10
501.3078342547
 20
486.6200909949
 10
501.2367204727
 20
486.634614232
 10
501.1696131009
 20
486.6521422769
 10
501.1055105368
 20
486.6726751295
 10
500.9868206329
 20
486.71975045
 10
500.8801499599
 20
486.7753393923
 10
500.7849977163
 20
486.8384403538
 10
500.7018647034
 20
486.9095541359
 10
500.6297493188
 20
486.9881799372
 10
500.5686515624
 20
487.0723145525
 10
500.5185714342
 20
487.1629595846
 10
500.4790081329
 20
487.2591134308
 10
500.4494608573
 20
487.360776091
 10
500.4284272034
 20
487.4659443602
 10
500.4154063701
 20
487.5746182384
 10
500.4113999599
 20
487.6872985269
 10
500.4113999599
 20
487.6872985269
 10
500.4154063701
 20
487.7994780141
 10
500.4284272034
 20
487.9081518923
 10
500.4494608573
 20
488.0133201615
 10
500.4790081329
 20
488.1144820205
 10
500.5185714342
 20
488.2111366679
 10
500.5686515624
 20
488.3017817
 10
500.6297493188
 20
488.3859163154
 10
500.7018647034
 20
488.4640413154
 10
500.7849977163
 20
488.5356558987
 10
500.8801499599
 20
488.5987568602
 10
500.9868206329
 20
488.6543458025
 10
501.1055105368
 20
488.7014211231
 10
501.1696131009
 20
488.7219539756
 10
501.2367204727
 20
488.7394820205
 10
501.3078342547
 20
488.7540052577
 10
501.3819528445
 20
488.7665252897
 10
501.4595770432
 20
488.7760405141
 10
501.5407068509
 20
488.7825509308
 10
501.6248414663
 20
488.786557341
 10
501.7129824919
 20
488.7880597449
 10
501.7129824919
 20
488.7880597449
 10
501.8016243188
 20
488.786557341
 10
501.8867605368
 20
488.7825509308
 10
501.9683911458
 20
488.7760405141
 10
502.0465161458
 20
488.7665252897
 10
502.1206347355
 20
488.7540052577
 10
502.1912477163
 20
488.7394820205
 10
502.2583550881
 20
488.7219539756
 10
502.3219568509
 20
488.7014211231
 10
502.4396451522
 20
488.6543458025
 10
502.5448134214
 20
488.5987568602
 10
502.6384632611
 20
488.5356558987
 10
502.7200938701
 20
488.4640413154
 10
502.7907068509
 20
488.3859163154
 10
502.8508030047
 20
488.3017817
 10
502.9003823316
 20
488.2111366679
 10
502.9394448316
 20
488.1144820205
 10
502.9694929086
 20
488.0133201615
 10
502.9905265624
 20
487.9081518923
 10
503.0035473958
 20
487.7994780141
 10
503.007553806
 20
487.6872985269
  0
LWPOLYLINE
  5
101
330
1F
100
AcDbEntity
  8
0
  6
Continuous
 62
     7
100
AcDbPolyline
 90
       12
 70
   128
 43
0.0
 10
500.4754891725
 20
490.0050068602
 10
502.975502524
 20
491.7843538154
 10
502.975502524
 20
491.7843538154
 10
500.475502524
 20
491.7843538154
 10
500.475502524
 20
491.7843538154
 10
502.975502524
 20
491.7843538154
 10
502.975502524
 20
491.7843538154
 10
500.475502524
 20
490.0050068602
 10
500.475502524
 20
490.0050068602
 10
502.975502524
 20
490.0050068602
 10
502.975502524
 20
490.0050068602
 10
500.475502524
 20
490.0050068602
  0
LWPOLYLINE
  5
102
330
1F
100
AcDbEntity
  8
0
  6
Continuous
 62
     7
100
AcDbPolyline
 90
       83
 70
   128
 43
0.0
 10
503.0075391861
 20
494.1296062192
 10
503.0035473958
 20
494.0169259308
 10
502.9905265624
 20
493.9082520525
 10
502.9694929086
 20
493.8030837833
 10
502.9394448316
 20
493.7014211231
 10
502.9003823316
 20
493.6052672769
 10
502.8508030047
 20
493.5146222449
 10
502.7907068509
 20
493.4304876295
 10
502.7200938701
 20
493.3518618282
 10
502.6384632611
 20
493.2807480461
 10
502.5448134214
 20
493.2176470846
 10
502.4396451522
 20
493.1620581423
 10
502.3219568509
 20
493.1149828218
 10
502.2583550881
 20
493.0944499692
 10
502.1912477163
 20
493.0769219243
 10
502.1206347355
 20
493.0623986872
 10
502.0465161458
 20
493.0498786551
 10
501.9683911458
 20
493.0403634308
 10
501.8867605368
 20
493.0338530141
 10
501.8016243188
 20
493.0298466038
 10
501.7129824919
 20
493.0283442
 10
501.7129824919
 20
493.0283442
 10
501.6248414663
 20
493.0298466038
 10
501.5407068509
 20
493.0338530141
 10
501.4595770432
 20
493.0403634308
 10
501.3819528445
 20
493.0498786551
 10
501.3078342547
 20
493.0623986872
 10
501.2367204727
 20
493.0769219243
 10
501.1696131009
 20
493.0944499692
 10
501.1055105368
 20
493.1149828218
 10
500.9868206329
 20
493.1620581423
 10
500.8801499599
 20
493.2176470846
 10
500.7849977163
 20
493.2807480461
 10
500.7018647034
 20
493.3518618282
 10
500.6297493188
 20
493.4304876295
 10
500.5686515624
 20
493.5146222449
 10
500.5185714342
 20
493.6052672769
 10
500.4790081329
 20
493.7014211231
 10
500.4494608573
 20
493.8030837833
 10
500.4284272034
 20
493.9082520525
 10
500.4154063701
 20
494.0169259308
 10
500.4113999599
 20
494.1296062192
 10
500.4113999599
 20
494.1296062192
 10
500.4154063701
 20
494.2417857064
 10
500.4284272034
 20
494.3504595846
 10
500.4494608573
 20
494.4556278538
 10
500.4790081329
 20
494.5567897128
 10
500.5185714342
 20
494.6534443602
 10
500.5686515624
 20
494.7440893923
 10
500.6297493188
 20
494.8282240077
 10
500.7018647034
 20
494.9063490077
 10
500.7849977163
 20
494.977963591
 10
500.8801499599
 20
495.0410645525
 10
500.9868206329
 20
495.0966534949
 10
501.1055105368
 20
495.1437288154
 10
501.1696131009
 20
495.1642616679
 10
501.2367204727
 20
495.1817897128
 10
501.3078342547
 20
495.19631295
 10
501.3819528445
 20
495.208832982
 10
501.4595770432
 20
495.2183482064
 10
501.5407068509
 20
495.2248586231
 10
501.6248414663
 20
495.2288650333
 10
501.7129824919
 20
495.2303674372
 10
501.7129824919
 20
495.2303674372
 10
501.8016243188
 20
495.2288650333
 10
501.8867605368
 20
495.2248586231
 10
501.9683911458
 20
495.2183482064
 10
502.0465161458
 20
495.208832982
 10
502.1206347355
 20
495.19631295
 10
502.1912477163
 20
495.1817897128
 10
502.2583550881
 20
495.1642616679
 10
502.3219568509
 20
495.1437288154
 10
502.4396451522
 20
495.0966534949
 10
502.5448134214
 20
495.0410645525
 10
502.6384632611
 20
494.977963591
 10
502.7200938701
 20
494.9063490077
 10
502.7907068509
 20
494.8282240077
 10
502.8508030047
 20
494.7440893923
 10
502.9003823316
 20
494.6534443602
 10
502.9394448316
 20
494.5567897128
 10
502.9694929086
 20
494.4556278538
 10
502.9905265624
 20
494.3504595846
 10
503.0035473958
 20
494.2417857064
  0
LWPOLYLINE
  5
103
330
1F
100
AcDbEntity
  8
0
  6
Continuous
 62
     7
100
AcDbPolyline
 90
       84
 70
   128
 43
0.0
 10
503.0075391861
 20
494.1296062192
 10
503.0035473958
 20
494.0169259308
 10
502.9905265624
 20
493.9082520525
 10
502.9694929086
 20
493.8030837833
 10
502.9394448316
 20
493.7014211231
 10
502.9003823316
 20
493.6052672769
 10
502.8508030047
 20
493.5146222449
 10
502.7907068509
 20
493.4304876295
 10
502.7200938701
 20
493.3518618282
 10
502.6384632611
 20
493.2807480461
 10
502.5448134214
 20
493.2176470846
 10
502.4396451522
 20
493.1620581423
 10
502.3219568509
 20
493.1149828218
 10
502.2583550881
 20
493.0944499692
 10
502.1912477163
 20
493.0769219243
 10
502.1206347355
 20
493.0623986872
 10
502.0465161458
 20
493.0498786551
 10
501.9683911458
 20
493.0403634308
 10
501.8867605368
 20
493.0338530141
 10
501.8016243188
 20
493.0298466038
 10
501.7129824919
 20
493.0283442
 10
501.7129824919
 20
493.0283442
 10
501.6248414663
 20
493.0298466038
 10
501.5407068509
 20
493.0338530141
 10
501.4595770432
 20
493.0403634308
 10
501.3819528445
 20
493.0498786551
 10
501.3078342547
 20
493.0623986872
 10
501.2367204727
 20
493.0769219243
 10
501.1696131009
 20
493.0944499692
 10
501.1055105368
 20
493.1149828218
 10
500.9868206329
 20
493.1620581423
 10
500.8801499599
 20
493.2176470846
 10
500.7849977163
 20
493.2807480461
 10
500.7018647034
 20
493.3518618282
 10
500.6297493188
 20
493.4304876295
 10
500.5686515624
 20
493.5146222449
 10
500.5185714342
 20
493.6052672769
 10
500.4790081329
 20
493.7014211231
 10
500.4494608573
 20
493.8030837833
 10
500.4284272034
 20
493.9082520525
 10
500.4154063701
 20
494.0169259308
 10
500.4113999599
 20
494.1296062192
 10
500.4113999599
 20
494.1296062192
 10
500.4154063701
 20
494.2417857064
 10
500.4284272034
 20
494.3504595846
 10
500.4494608573
 20
494.4556278538
 10
500.4790081329
 20
494.5567897128
 10
500.5185714342
 20
494.6534443602
 10
500.5686515624
 20
494.7440893923
 10
500.6297493188
 20
494.8282240077
 10
500.7018647034
 20
494.9063490077
 10
500.7849977163
 20
494.977963591
 10
500.8801499599
 20
495.0410645525
 10
500.9868206329
 20
495.0966534949
 10
501.1055105368
 20
495.1437288154
 10
501.1696131009
 20
495.1642616679
 10
501.2367204727
 20
495.1817897128
 10
501.3078342547
 20
495.19631295
 10
501.3819528445
 20
495.208832982
 10
501.4595770432
 20
495.2183482064
 10
501.5407068509
 20
495.2248586231
 10
501.6248414663
 20
495.2288650333
 10
501.7129824919
 20
495.2303674372
 10
501.7129824919
 20
495.2303674372
 10
501.8016243188
 20
495.2288650333
 10
501.8867605368
 20
495.2248586231
 10
501.9683911458
 20
495.2183482064
 10
502.0465161458
 20
495.208832982
 10
502.1206347355
 20
495.19631295
 10
502.1912477163
 20
495.1817897128
 10
502.2583550881
 20
495.1642616679
 10
502.3219568509
 20
495.1437288154
 10
502.4396451522
 20
495.0966534949
 10
502.5448134214
 20
495.0410645525
 10
502.6384632611
 20
494.977963591
 10
502.7200938701
 20
494.9063490077
 10
502.7907068509
 20
494.8282240077
 10
502.8508030047
 20
494.7440893923
 10
502.9003823316
 20
494.6534443602
 10
502.9394448316
 20
494.5567897128
 10
502.9694929086
 20
494.4556278538
 10
502.9905265624
 20
494.3504595846
 10
503.0035473958
 20
494.2417857064
 10
503.007553806
 20
494.1296062192
  0
LWPOLYLINE
  5
104
330
1F
100
AcDbEntity
  8
0
  6
Continuous
 62
     7
100
AcDbPolyline
 90
        8
 70
   128
 43
0.0
 10
502.9755016895
 20
498.7109363474
 10
500.475502524
 20
497.8039852256
 10
500.475502524
 20
497.8039852256
 10
502.975502524
 20
498.7109363474
 10
502.975502524
 20
498.7109363474
 10
500.475502524
 20
499.6178874692
 10
500.475502524
 20
499.6178874692
 10
502.975502524
 20
498.7109363474
  0
LWPOLYLINE
  5
105
330
1F
100
AcDbEntity
  8
0
  6
Continuous
 62
     7
100
AcDbPolyline
 90
      128
 70
   128
 43
0.0
 10
502.9755016895
 20
500.4642416359
 10
502.8833550881
 20
500.4687488474
 10
502.7992204727
 20
500.4792656743
 10
502.7220970752
 20
500.4957921166
 10
502.6529864983
 20
500.5178273731
 10
502.5898855368
 20
500.5448706423
 10
502.5307909855
 20
500.5759203218
 10
502.4762036458
 20
500.609974809
 10
502.425121915
 20
500.6480357064
 10
502.3780465945
 20
500.6891014115
 10
502.3334752804
 20
500.7331719243
 10
502.2924095752
 20
500.7802472449
 10
502.2543486778
 20
500.8298265718
 10
502.1812316906
 20
500.9339932384
 10
502.1081147034
 20
501.0426671166
 10
502.1081147034
 20
501.0426671166
 10
501.7109792868
 20
501.634614232
 10
501.7109792868
 20
501.634614232
 10
501.6789280047
 20
501.6781839436
 10
501.6448735175
 20
501.7167456423
 10
501.6093166265
 20
501.7492977256
 10
501.5717565304
 20
501.7763409949
 10
501.4936315304
 20
501.8184083025
 10
501.4115001201
 20
501.8474547769
 10
501.3268647034
 20
501.8654836231
 10
501.2392244791
 20
501.8734964436
 10
501.1510834534
 20
501.87600045
 10
501.0634432291
 20
501.8770020525
 10
501.0634432291
 20
501.8770020525
 10
501.0183711137
 20
501.8749988474
 10
500.9712957932
 20
501.868989232
 10
500.9207148637
 20
501.8594740077
 10
500.8681307291
 20
501.8454515718
 10
500.8150457932
 20
501.8274227256
 10
500.7639640624
 20
501.8038850654
 10
500.7143847355
 20
501.7753393923
 10
500.6663078124
 20
501.7417857064
 10
500.621235697
 20
501.7022224051
 10
500.5796691906
 20
501.6566494884
 10
500.5416082932
 20
501.6045661551
 10
500.507553806
 20
501.5459724051
 10
500.4795089342
 20
501.4808682384
 10
500.4594768829
 20
501.4082520525
 10
500.4474576522
 20
501.3276230461
 10
500.4434512419
 20
501.2399828218
 10
500.4434512419
 20
501.2399828218
 10
500.4474576522
 20
501.1503393923
 10
500.4589760816
 20
501.0677071808
 10
500.4785073316
 20
500.9925869884
 10
500.5060514022
 20
500.9249788154
 10
500.5401058893
 20
500.863881059
 10
500.5786675881
 20
500.8082921166
 10
500.6227381009
 20
500.7587127897
 10
500.6713158252
 20
500.7151430782
 10
500.7244007611
 20
500.677582982
 10
500.780991306
 20
500.6450308987
 10
500.8405866586
 20
500.6184884308
 10
500.9031868188
 20
500.5974547769
 10
500.9677901842
 20
500.5819299372
 10
501.0323935496
 20
500.5704115077
 10
501.0964961137
 20
500.563901091
 10
501.1610994791
 20
500.5613970846
 10
501.1610994791
 20
500.5613970846
 10
501.0964961137
 20
500.563901091
 10
501.0323935496
 20
500.5704115077
 10
500.9677901842
 20
500.5819299372
 10
500.9031868188
 20
500.5974547769
 10
500.8405866586
 20
500.6184884308
 10
500.780991306
 20
500.6450308987
 10
500.7244007611
 20
500.677582982
 10
500.6713158252
 20
500.7151430782
 10
500.6227381009
 20
500.7587127897
 10
500.5786675881
 20
500.8082921166
 10
500.5401058893
 20
500.863881059
 10
500.5060514022
 20
500.9249788154
 10
500.4785073316
 20
500.9925869884
 10
500.4589760816
 20
501.0677071808
 10
500.4474576522
 20
501.1503393923
 10
500.4434512419
 20
501.2399828218
 10
500.4434512419
 20
501.2399828218
 10
500.4474576522
 20
501.3276230461
 10
500.4594768829
 20
501.4082520525
 10
500.4795089342
 20
501.4808682384
 10
500.507553806
 20
501.5459724051
 10
500.5416082932
 20
501.6045661551
 10
500.5796691906
 20
501.6566494884
 10
500.621235697
 20
501.7022224051
 10
500.6663078124
 20
501.7417857064
 10
500.7143847355
 20
501.7753393923
 10
500.7639640624
 20
501.8038850654
 10
500.8150457932
 20
501.8274227256
 10
500.8681307291
 20
501.8454515718
 10
500.9207148637
 20
501.8594740077
 10
500.9712957932
 20
501.868989232
 10
501.0183711137
 20
501.8749988474
 10
501.0634432291
 20
501.8770020525
 10
501.0634432291
 20
501.8770020525
 10
501.1510834534
 20
501.87600045
 10
501.2392244791
 20
501.8734964436
 10
501.3268647034
 20
501.8654836231
 10
501.4115001201
 20
501.8474547769
 10
501.4936315304
 20
501.8184083025
 10
501.5717565304
 20
501.7763409949
 10
501.6093166265
 20
501.7492977256
 10
501.6448735175
 20
501.7167456423
 10
501.6789280047
 20
501.6781839436
 10
501.7109792868
 20
501.634614232
 10
501.7109792868
 20
501.634614232
 10
502.1081147034
 20
501.0426671166
 10
502.1081147034
 20
501.0426671166
 10
502.1812316906
 20
500.9339932384
 10
502.2543486778
 20
500.8298265718
 10
502.2924095752
 20
500.7802472449
 10
502.3334752804
 20
500.7331719243
 10
502.3780465945
 20
500.6891014115
 10
502.425121915
 20
500.6480357064
 10
502.4762036458
 20
500.609974809
 10
502.5307909855
 20
500.5759203218
 10
502.5898855368
 20
500.5448706423
 10
502.6529864983
 20
500.5178273731
 10
502.7220970752
 20
500.4957921166
 10
502.7992204727
 20
500.4792656743
 10
502.8833550881
 20
500.4687488474
 10
502.975502524
 20
500.4642416359
 10
502.975502524
 20
500.4642416359
 10
502.975502524
 20
501.9496182384
 10
502.975502524
 20
501.9496182384
 10
502.975502524
 20
500.4642416359
  0
LINE
  5
106
330
1F
100
AcDbEntity
  8
0
  6
Continuous
 62
     7
370
    15
100
AcDbLine
 10
461.975502524
 20
509.2124387513
 30
0.0
 11
461.975502524
 21
506.2124387513
 31
0.0
  0
LINE
  5
107
330
1F
100
AcDbEntity
  8
0
  6
Continuous
 62
     7
370
    15
100
AcDbLine
 10
461.975502524
 20
506.2124387513
 30
0.0
 11
458.975502524
 21
506.2124387513
 31
0.0
  0
LINE
  5
108
330
1F
100
AcDbEntity
  8
0
  6
Continuous
 62
     7
370
    15
100
AcDbLine
 10
458.975502524
 20
506.2124387513
 30
0.0
 11
458.975502524
 21
503.2124387513
 31
0.0
  0
LINE
  5
109
330
1F
100
AcDbEntity
  8
0
  6
Continuous
 62
     7
370
    15
100
AcDbLine
 10
458.975502524
 20
503.2124387513
 30
0.0
 11
461.975502524
 21
503.2124387513
 31
0.0
  0
LINE
  5
10A
330
1F
100
AcDbEntity
  8
0
  6
Continuous
 62
     7
370
    15
100
AcDbLine
 10
461.975502524
 20
503.2124387513
 30
0.0
 11
461.975502524
 21
485.2124387513
 31
0.0
  0
LINE
  5
10B
330
1F
100
AcDbEntity
  8
0
  6
Continuous
 62
     7
370
    15
100
AcDbLine
 10
461.975502524
 20
485.2124387513
 30
0.0
 11
458.975502524
 21
485.2124387513
 31
0.0
  0
LINE
  5
10C
330
1F
100
AcDbEntity
  8
0
  6
Continuous
 62
     7
370
    15
100
AcDbLine
 10
458.975502524
 20
485.2124387513
 30
0.0
 11
458.975502524
 21
482.2124387513
 31
0.0
  0
LINE
  5
10D
330
1F
100
AcDbEntity
  8
0
  6
Continuous
 62
     7
370
    15
100
AcDbLine
 10
458.975502524
 20
482.2124387513
 30
0.0
 11
461.975502524
 21
482.2124387513
 31
0.0
  0
LINE
  5
10E
330
1F
100
AcDbEntity
  8
0
  6
Continuous
 62
     7
370
    15
100
AcDbLine
 10
461.975502524
 20
482.2124387513
 30
0.0
 11
461.975502524
 21
479.2124387513
 31
0.0
  0
LINE
  5
10F
330
1F
100
AcDbEntity
  8
0
  6
Continuous
 62
     7
370
    15
100
AcDbLine
 10
461.975502524
 20
479.2124387513
 30
0.0
 11
464.975502524
 21
479.2124387513
 31
0.0
  0
LINE
  5
110
330
1F
100
AcDbEntity
  8
0
  6
Continuous
 62
     7
370
    15
100
AcDbLine
 10
464.975502524
 20
479.2124387513
 30
0.0
 11
464.975502524
 21
482.2124387513
 31
0.0
  0
LINE
  5
111
330
1F
100
AcDbEntity
  8
0
  6
Continuous
 62
     7
370
    15
100
AcDbLine
 10
464.975502524
 20
482.2124387513
 30
0.0
 11
482.975502524
 21
482.2124387513
 31
0.0
  0
LINE
  5
112
330
1F
100
AcDbEntity
  8
0
  6
Continuous
 62
     7
370
    15
100
AcDbLine
 10
482.975502524
 20
482.2124387513
 30
0.0
 11
482.975502524
 21
479.2124387513
 31
0.0
  0
LINE
  5
113
330
1F
100
AcDbEntity
  8
0
  6
Continuous
 62
     7
370
    15
100
AcDbLine
 10
482.975502524
 20
479.2124387513
 30
0.0
 11
485.975502524
 21
479.2124387513
 31
0.0
  0
LINE
  5
114
330
1F
100
AcDbEntity
  8
0
  6
Continuous
 62
     7
370
    15
100
AcDbLine
 10
485.975502524
 20
479.2124387513
 30
0.0
 11
485.975502524
 21
482.2124387513
 31
0.0
  0
LINE
  5
115
330
1F
100
AcDbEntity
  8
0
  6
Continuous
 62
     7
370
    15
100
AcDbLine
 10
485.975502524
 20
482.2124387513
 30
0.0
 11
488.975502524
 21
482.2124387513
 31
0.0
  0
LINE
  5
116
330
1F
100
AcDbEntity
  8
0
  6
Continuous
 62
     7
370
    15
100
AcDbLine
 10
488.975502524
 20
482.2124387513
 30
0.0
 11
488.975502524
 21
485.2124387513
 31
0.0
  0
LINE
  5
117
330
1F
100
AcDbEntity
  8
0
  6
Continuous
 62
     7
370
    15
100
AcDbLine
 10
488.975502524
 20
485.2124387513
 30
0.0
 11
485.975502524
 21
485.2124387513
 31
0.0
  0
LINE
  5
118
330
1F
100
AcDbEntity
  8
0
  6
Continuous
 62
     7
370
    15
100
AcDbLine
 10
485.975502524
 20
485.2124387513
 30
0.0
 11
485.975502524
 21
503.2124387513
 31
0.0
  0
LINE
  5
119
330
1F
100
AcDbEntity
  8
0
  6
Continuous
 62
     7
370
    15
100
AcDbLine
 10
485.975502524
 20
503.2124387513
 30
0.0
 11
488.975502524
 21
503.2124387513
 31
0.0
  0
LINE
  5
11A
330
1F
100
AcDbEntity
  8
0
  6
Continuous
 62
     7
370
    15
100
AcDbLine
 10
488.975502524
 20
503.2124387513
 30
0.0
 11
488.975502524
 21
506.2124387513
 31
0.0
  0
LINE
  5
11B
330
1F
100
AcDbEntity
  8
0
  6
Continuous
 62
     7
370
    15
100
AcDbLine
 10
488.975502524
 20
506.2124387513
 30
0.0
 11
485.975502524
 21
506.2124387513
 31
0.0
  0
LINE
  5
11C
330
1F
100
AcDbEntity
  8
0
  6
Continuous
 62
     7
370
    15
100
AcDbLine
 10
485.975502524
 20
506.2124387513
 30
0.0
 11
485.975502524
 21
509.2124387513
 31
0.0
  0
LINE
  5
11D
330
1F
100
AcDbEntity
  8
0
  6
Continuous
 62
     7
370
    15
100
AcDbLine
 10
485.975502524
 20
509.2124387513
 30
0.0
 11
482.975502524
 21
509.2124387513
 31
0.0
  0
LINE
  5
11E
330
1F
100
AcDbEntity
  8
0
  6
Continuous
 62
     7
370
    15
100
AcDbLine
 10
482.975502524
 20
509.2124387513
 30
0.0
 11
482.975502524
 21
506.2124387513
 31
0.0
  0
LINE
  5
11F
330
1F
100
AcDbEntity
  8
0
  6
Continuous
 62
     7
370
    15
100
AcDbLine
 10
482.975502524
 20
506.2124387513
 30
0.0
 11
464.975502524
 21
506.2124387513
 31
0.0
  0
LINE
  5
120
330
1F
100
AcDbEntity
  8
0
  6
Continuous
 62
     7
370
    15
100
AcDbLine
 10
464.975502524
 20
506.2124387513
 30
0.0
 11
464.975502524
 21
509.2124387513
 31
0.0
  0
LINE
  5
121
330
1F
100
AcDbEntity
  8
0
  6
Continuous
 62
     7
370
    15
100
AcDbLine
 10
464.975502524
 20
509.2124387513
 30
0.0
 11
461.975502524
 21
509.2124387513
 31
0.0
  0
LINE
  5
122
330
1F
100
AcDbEntity
  8
0
  6
Continuous
 62
     7
370
    15
100
AcDbLine
 10
488.975502524
 20
474.2124387513
 30
0.0
 11
493.975502524
 21
479.2124387513
 31
0.0
  0
LINE
  5
123
330
1F
100
AcDbEntity
  8
0
  6
Continuous
 62
     7
370
    15
100
AcDbLine
 10
458.975502524
 20
474.2124387513
 30
0.0
 11
488.975502524
 21
474.2124387513
 31
0.0
  0
LINE
  5
124
330
1F
100
AcDbEntity
  8
0
  6
Continuous
 62
     7
370
    15
100
AcDbLine
 10
453.975502524
 20
479.2124387513
 30
0.0
 11
458.975502524
 21
474.2124387513
 31
0.0
  0
LINE
  5
125
330
1F
100
AcDbEntity
  8
0
  6
Continuous
 62
     7
370
    15
100
AcDbLine
 10
453.975502524
 20
479.2124387513
 30
0.0
 11
451.175502524
 21
479.2124387513
 31
0.0
  0
ARC
  5
126
330
1F
100
AcDbEntity
  8
0
  6
Continuous
 62
     7
370
    15
100
AcDbCircle
 10
451.175502524
 20
482.2124387513
 30
0.0
 40
3.0
100
AcDbArc
 50
180.0
 51
270.0
  0
LINE
  5
127
330
1F
100
AcDbEntity
  8
0
  6
Continuous
 62
     7
370
    15
100
AcDbLine
 10
448.175502524
 20
482.2124387513
 30
0.0
 11
448.175502524
 21
506.2124387513
 31
0.0
  0
ARC
  5
128
330
1F
100
AcDbEntity
  8
0
  6
Continuous
 62
     7
370
    15
100
AcDbCircle
 10
451.175502524
 20
506.2124387513
 30
0.0
 40
3.0
100
AcDbArc
 50
90.0
 51
180.0
  0
LINE
  5
129
330
1F
100
AcDbEntity
  8
0
  6
Continuous
 62
     7
370
    15
100
AcDbLine
 10
451.175502524
 20
509.2124387513
 30
0.0
 11
453.975502524
 21
509.2124387513
 31
0.0
  0
LINE
  5
12A
330
1F
100
AcDbEntity
  8
0
  6
Continuous
 62
     7
370
    15
100
AcDbLine
 10
458.975502524
 20
514.2124387513
 30
0.0
 11
453.975502524
 21
509.2124387513
 31
0.0
  0
LINE
  5
12B
330
1F
100
AcDbEntity
  8
0
  6
Continuous
 62
     7
370
    15
100
AcDbLine
 10
488.975502524
 20
514.2124387513
 30
0.0
 11
458.975502524
 21
514.2124387513
 31
0.0
  0
LINE
  5
12C
330
1F
100
AcDbEntity
  8
0
  6
Continuous
 62
     7
370
    15
100
AcDbLine
 10
493.975502524
 20
509.2124387513
 30
0.0
 11
488.975502524
 21
514.2124387513
 31
0.0
  0
LINE
  5
12D
330
1F
100
AcDbEntity
  8
0
  6
Continuous
 62
     7
370
    15
100
AcDbLine
 10
493.975502524
 20
509.2124387513
 30
0.0
 11
500.975502524
 21
509.2124387513
 31
0.0
  0
ARC
  5
12E
330
1F
100
AcDbEntity
  8
0
  6
Continuous
 62
     7
370
    15
100
AcDbCircle
 10
500.975502524
 20
506.2124387513
 30
0.0
 40
3.0
100
AcDbArc
 50
0.0
 51
90.0
  0
LINE
  5
12F
330
1F
100
AcDbEntity
  8
0
  6
Continuous
 62
     7
370
    15
100
AcDbLine
 10
503.975502524
 20
506.2124387513
 30
0.0
 11
503.975502524
 21
482.2124387513
 31
0.0
  0
ARC
  5
130
330
1F
100
AcDbEntity
  8
0
  6
Continuous
 62
     7
370
    15
100
AcDbCircle
 10
500.975502524
 20
482.2124387513
 30
0.0
 40
3.0
100
AcDbArc
 50
270.0
 51
0.0
  0
LINE
  5
131
330
1F
100
AcDbEntity
  8
0
  6
Continuous
 62
     7
370
    15
100
AcDbLine
 10
500.975502524
 20
479.2124387513
 30
0.0
 11
493.975502524
 21
479.2124387513
 31
0.0
  0
CIRCLE
  5
132
330
1F
100
AcDbEntity
  8
0
  6
Continuous
 62
     7
370
    15
100
AcDbCircle
 10
451.175502524
 20
506.2124387513
 30
0.0
 40
1.25
  0
CIRCLE
  5
133
330
1F
100
AcDbEntity
  8
0
  6
Continuous
 62
     7
370
    15
100
AcDbCircle
 10
451.175502524
 20
482.2124387513
 30
0.0
 40
1.25
  0
CIRCLE
  5
134
330
1F
100
AcDbEntity
  8
0
  6
Continuous
 62
     7
370
    15
100
AcDbCircle
 10
500.975502524
 20
482.2124387513
 30
0.0
 40
1.25
  0
CIRCLE
  5
135
330
1F
100
AcDbEntity
  8
0
  6
Continuous
 62
     7
370
    15
100
AcDbCircle
 10
500.975502524
 20
506.2124387513
 30
0.0
 40
1.25
  0
ENDSEC
  0
SECTION
  2
OBJECTS
  0
DICTIONARY
  5
C
330
0
100
AcDbDictionary
281
     1
  3
ACAD_GROUP
350
D
  3
ACAD_LAYOUT
350
1A
  3
ACAD_MLINESTYLE
350
17
  3
ACAD_PLOTSETTINGS
350
19
  3
ACAD_PLOTSTYLENAME
350
E
  0
DICTIONARY
  5
D
102
{ACAD_REACTORS
330
C
102
}
330
C
100
AcDbDictionary
281
     1
  0
DICTIONARY
  5
1A
102
{ACAD_REACTORS
330
C
102
}
330
C
100
AcDbDictionary
281
     1
  3
Layout1
350
1E
  3
Layout2
350
26
  3
Model
350
22
  0
DICTIONARY
  5
17
102
{ACAD_REACTORS
330
C
102
}
330
C
100
AcDbDictionary
281
     1
  3
Standard
350
18
  0
DICTIONARY
  5
19
102
{ACAD_REACTORS
330
C
102
}
330
C
100
AcDbDictionary
281
     1
  0
ACDBDICTIONARYWDFLT
  5
E
102
{ACAD_REACTORS
330
C
102
}
330
C
100
AcDbDictionary
281
     1
  3
Normal
350
F
100
AcDbDictionaryWithDefault
340
F
  0
LAYOUT
  5
1E
102
{ACAD_REACTORS
330
1A
102
}
330
1A
100
AcDbPlotSettings
  1

  2
none_device
  4

  6

 40
0.0
 41
0.0
 42
0.0
 43
0.0
 44
0.0
 45
0.0
 46
0.0
 47
0.0
 48
0.0
 49
0.0
140
0.0
141
0.0
142
1.0
143
1.0
 70
   688
 72
     0
 73
     0
 74
     5
  7

 75
    16
147
1.0
148
0.0
149
0.0
100
AcDbLayout
  1
Layout1
 70
     1
 71
     1
 10
0.0
 20
0.0
 11
420.0
 21
297.0
 12
0.0
 22
0.0
 32
0.0
 14
1.0000000000E+20
 24
1.0000000000E+20
 34
1.0000000000E+20
 15
-1.0000000000E+20
 25
-1.0000000000E+20
 35
-1.0000000000E+20
146
0.0
 13
0.0
 23
0.0
 33
0.0
 16
1.0
 26
0.0
 36
0.0
 17
0.0
 27
1.0
 37
0.0
 76
     0
330
1B
  0
LAYOUT
  5
26
102
{ACAD_REACTORS
330
1A
102
}
330
1A
100
AcDbPlotSettings
  1

  2
none_device
  4

  6

 40
0.0
 41
0.0
 42
0.0
 43
0.0
 44
0.0
 45
0.0
 46
0.0
 47
0.0
 48
0.0
 49
0.0
140
0.0
141
0.0
142
1.0
143
1.0
 70
   688
 72
     0
 73
     0
 74
     5
  7

 75
    16
147
1.0
148
0.0
149
0.0
100
AcDbLayout
  1
Layout2
 70
     1
 71
     2
 10
0.0
 20
0.0
 11
0.0
 21
0.0
 12
0.0
 22
0.0
 32
0.0
 14
0.0
 24
0.0
 34
0.0
 15
0.0
 25
0.0
 35
0.0
146
0.0
 13
0.0
 23
0.0
 33
0.0
 16
1.0
 26
0.0
 36
0.0
 17
0.0
 27
1.0
 37
0.0
 76
     0
330
23
  0
LAYOUT
  5
22
102
{ACAD_REACTORS
330
1A
102
}
330
1A
100
AcDbPlotSettings
  1

  2
none_device
  4

  6

 40
0.0
 41
0.0
 42
0.0
 43
0.0
 44
0.0
 45
0.0
 46
0.0
 47
0.0
 48
0.0
 49
0.0
140
0.0
141
0.0
142
1.0
143
1.0
 70
  1712
 72
     0
 73
     0
 74
     0
  7

 75
     0
147
1.0
148
0.0
149
0.0
100
AcDbLayout
  1
Model
 70
     1
 71
     0
 10
0.0
 20
0.0
 11
1189.0
 21
841.0
 12
0.0
 22
0.0
 32
0.0
 14
0.0
 24
0.0
 34
0.0
 15
1189.0
 25
841.0
 35
0.0
146
0.0
 13
0.0
 23
0.0
 33
0.0
 16
1.0
 26
0.0
 36
0.0
 17
0.0
 27
1.0
 37
0.0
 76
     0
330
1F
331
29
  0
MLINESTYLE
  5
18
102
{ACAD_REACTORS
330
17
102
}
330
17
100
AcDbMlineStyle
  2
Standard
 70
     0
  3

 62
   256
 51
90.0
 52
90.0
 71
     2
 49
0.5
 62
   256
  6
BYLAYER
 49
-0.5
 62
   256
  6
BYLAYER
  0
ACDBPLACEHOLDER
  5
F
102
{ACAD_REACTORS
330
E
102
}
330
E
  0
ENDSEC
  0
EOF
