  0
SECTION
  2
HEADER
  9
$ACADVER
  1
AC1015
  9
$ACADMAINTVER
 70
     6
  9
$DWGCODEPAGE
  3
ANSI_1252
  9
$INSBASE
 10
0.0
 20
0.0
 30
0.0
  9
$EXTMIN
 10
0.0
 20
0.0
 30
0.0
  9
$EXTMAX
 10
1189.0
 20
841.0
 30
0.0
  9
$LIMMIN
 10
0.0
 20
0.0
  9
$LIMMAX
 10
1189.0
 20
841.0
  9
$ORTHOMODE
 70
     0
  9
$REGENMODE
 70
     1
  9
$FILLMODE
 70
     1
  9
$QTEXTMODE
 70
     0
  9
$MIRRTEXT
 70
     1
  9
$LTSCALE
 40
1.0
  9
$ATTMODE
 70
     1
  9
$TEXTSIZE
 40
3.5
  9
$TRACEWID
 40
1.0
  9
$TEXTSTYLE
  7
Standard
  9
$CLAYER
  8
0
  9
$CELTYPE
  6
ByLayer
  9
$CECOLOR
 62
   256
  9
$CELTSCALE
 40
1.0
  9
$DISPSILH
 70
     0
  9
$DIMSCALE
 40
1.0
  9
$DIMASZ
 40
3.302
  9
$DIMEXO
 40
1.0
  9
$DIMDLI
 40
3.75
  9
$DIMRND
 40
0.0
  9
$DIMDLE
 40
0.0
  9
$DIMEXE
 40
1.0
  9
$DIMTP
 40
0.0
  9
$DIMTM
 40
0.0
  9
$DIMTXT
 40
3.5
  9
$DIMCEN
 40
2.5
  9
$DIMTSZ
 40
0.0
  9
$DIMTOL
 70
     0
  9
$DIMLIM
 70
     0
  9
$DIMTIH
 70
     1
  9
$DIMTOH
 70
     1
  9
$DIMSE1
 70
     0
  9
$DIMSE2
 70
     0
  9
$DIMTAD
 70
     1
  9
$DIMZIN
 70
     0
  9
$DIMBLK
  1

  9
$DIMASO
 70
     1
  9
$DIMSHO
 70
     1
  9
$DIMPOST
  1

  9
$DIMAPOST
  1

  9
$DIMALT
 70
     0
  9
$DIMALTD
 70
     3
  9
$DIMALTF
 40
0.0393700787
  9
$DIMLFAC
 40
1.0
  9
$DIMTOFL
 70
     1
  9
$DIMTVP
 40
0.0
  9
$DIMTIX
 70
     0
  9
$DIMSOXD
 70
     0
  9
$DIMSAH
 70
     0
  9
$DIMBLK1
  1

  9
$DIMBLK2
  1

  9
$DIMSTYLE
  2
ISO-25
  9
$DIMCLRD
 70
     0
  9
$DIMCLRE
 70
     0
  9
$DIMCLRT
 70
     0
  9
$DIMTFAC
 40
1.0
  9
$DIMGAP
 40
1.524
  9
$DIMJUST
 70
     0
  9
$DIMSD1
 70
     0
  9
$DIMSD2
 70
     0
  9
$DIMTOLJ
 70
     0
  9
$DIMTZIN
 70
     0
  9
$DIMALTZ
 70
     0
  9
$DIMALTTZ
 70
     0
  9
$DIMUPT
 70
     0
  9
$DIMDEC
 70
     2
  9
$DIMTDEC
 70
     2
  9
$DIMALTU
 70
     2
  9
$DIMALTTD
 70
     3
  9
$DIMTXSTY
  7
Standard
  9
$DIMAUNIT
 70
     0
  9
$DIMADEC
 70
     2
  9
$DIMALTRND
 40
0.0
  9
$DIMAZIN
 70
     0
  9
$DIMDSEP
 70
    44
  9
$DIMATFIT
 70
     3
  9
$DIMFRAC
 70
     0
  9
$DIMLDRBLK
  1

  9
$DIMLUNIT
 70
     2
  9
$DIMLWD
 70
    -2
  9
$DIMLWE
 70
    -2
  9
$DIMTMOVE
 70
     0
  9
$LUNITS
 70
     2
  9
$LUPREC
 70
     2
  9
$SKETCHINC
 40
1.0
  9
$FILLETRAD
 40
10.0
  9
$AUNITS
 70
     0
  9
$AUPREC
 70
     2
  9
$MENU
  1
.
  9
$ELEVATION
 40
0.0
  9
$PELEVATION
 40
0.0
  9
$THICKNESS
 40
0.0
  9
$LIMCHECK
 70
     0
  9
$CHAMFERA
 40
10.0
  9
$CHAMFERB
 40
10.0
  9
$CHAMFERC
 40
20.0
  9
$CHAMFERD
 40
0.0
  9
$SKPOLY
 70
     0
  9
$TDCREATE
 40
2457031.674975868
  9
$TDUCREATE
 40
2457031.633309201
  9
$TDUPDATE
 40
2457031.674976366
  9
$TDUUPDATE
 40
2457031.633309699
  9
$TDINDWG
 40
0.0000000116
  9
$TDUSRTIMER
 40
0.0000000116
  9
$USRTIMER
 70
     1
  9
$ANGBASE
 50
0.0
  9
$ANGDIR
 70
     0
  9
$PDMODE
 70
     0
  9
$PDSIZE
 40
-1.0
  9
$PLINEWID
 40
0.0
  9
$SPLFRAME
 70
     0
  9
$SPLINETYPE
 70
     6
  9
$SPLINESEGS
 70
     8
  9
$HANDSEED
  5
ED
  9
$SURFTAB1
 70
     6
  9
$SURFTAB2
 70
     6
  9
$SURFTYPE
 70
     6
  9
$SURFU
 70
     6
  9
$SURFV
 70
     6
  9
$UCSBASE
  2

  9
$UCSNAME
  2

  9
$UCSORG
 10
0.0
 20
0.0
 30
0.0
  9
$UCSXDIR
 10
1.0
 20
0.0
 30
0.0
  9
$UCSYDIR
 10
0.0
 20
1.0
 30
0.0
  9
$UCSORTHOREF
  2

  9
$UCSORTHOVIEW
 70
     0
  9
$UCSORGTOP
 10
0.0
 20
0.0
 30
0.0
  9
$UCSORGBOTTOM
 10
0.0
 20
0.0
 30
0.0
  9
$UCSORGLEFT
 10
0.0
 20
0.0
 30
0.0
  9
$UCSORGRIGHT
 10
0.0
 20
0.0
 30
0.0
  9
$UCSORGFRONT
 10
0.0
 20
0.0
 30
0.0
  9
$UCSORGBACK
 10
0.0
 20
0.0
 30
0.0
  9
$PUCSBASE
  2

  9
$PUCSNAME
  2

  9
$PUCSORG
 10
0.0
 20
0.0
 30
0.0
  9
$PUCSXDIR
 10
1.0
 20
0.0
 30
0.0
  9
$PUCSYDIR
 10
0.0
 20
1.0
 30
0.0
  9
$PUCSORTHOREF
  2

  9
$PUCSORTHOVIEW
 70
     0
  9
$PUCSORGTOP
 10
0.0
 20
0.0
 30
0.0
  9
$PUCSORGBOTTOM
 10
0.0
 20
0.0
 30
0.0
  9
$PUCSORGLEFT
 10
0.0
 20
0.0
 30
0.0
  9
$PUCSORGRIGHT
 10
0.0
 20
0.0
 30
0.0
  9
$PUCSORGFRONT
 10
0.0
 20
0.0
 30
0.0
  9
$PUCSORGBACK
 10
0.0
 20
0.0
 30
0.0
  9
$USERI1
 70
     0
  9
$USERI2
 70
     0
  9
$USERI3
 70
     0
  9
$USERI4
 70
     0
  9
$USERI5
 70
     0
  9
$USERR1
 40
0.0
  9
$USERR2
 40
0.0
  9
$USERR3
 40
0.0
  9
$USERR4
 40
0.0
  9
$USERR5
 40
0.0
  9
$WORLDVIEW
 70
     1
  9
$SHADEDGE
 70
     3
  9
$SHADEDIF
 70
    70
  9
$TILEMODE
 70
     1
  9
$MAXACTVP
 70
    64
  9
$PINSBASE
 10
0.0
 20
0.0
 30
0.0
  9
$PLIMCHECK
 70
     0
  9
$PEXTMIN
 10
1.0000000000E+20
 20
1.0000000000E+20
 30
1.0000000000E+20
  9
$PEXTMAX
 10
-1.0000000000E+20
 20
-1.0000000000E+20
 30
-1.0000000000E+20
  9
$PLIMMIN
 10
0.0
 20
0.0
  9
$PLIMMAX
 10
420.0
 20
297.0
  9
$UNITMODE
 70
     0
  9
$VISRETAIN
 70
     1
  9
$PLINEGEN
 70
     0
  9
$PSLTSCALE
 70
     1
  9
$TREEDEPTH
 70
  3020
  9
$CMLSTYLE
  2
Standard
  9
$CMLJUST
 70
     0
  9
$CMLSCALE
 40
20.0
  9
$PROXYGRAPHICS
 70
     1
  9
$MEASUREMENT
 70
     1
  9
$CELWEIGHT
370
    -1
  9
$ENDCAPS
280
     0
  9
$JOINSTYLE
280
     0
  9
$LWDISPLAY
290
     1
  9
$INSUNITS
 70
     4
  9
$HYPERLINKBASE
  1

  9
$STYLESHEET
  1

  9
$XEDIT
290
     1
  9
$CEPSNTYPE
380
     0
  9
$PSTYLEMODE
290
     1
  9
$FINGERPRINTGUID
  2
{FB3214BB-F23C-4F50-B6DF-7D5A5D6E40F8}
  9
$VERSIONGUID
  2
{FAEB1C32-E019-11D5-929B-00C0DF256EC4}
  9
$EXTNAMES
290
     1
  9
$PSVPSCALE
 40
0.0
  9
$OLESTARTUP
290
     0
  0
ENDSEC
  0
SECTION
  2
CLASSES
  0
CLASS
  1
ACDBDICTIONARYWDFLT
  2
AcDbDictionaryWithDefault
  3
ObjectDBX Classes
 90
        0
280
     0
281
     0
  0
CLASS
  1
VISUALSTYLE
  2
AcDbVisualStyle
  3
ObjectDBX Classes
 90
     4095
280
     0
281
     0
  0
CLASS
  1
MATERIAL
  2
AcDbMaterial
  3
ObjectDBX Classes
 90
     1153
280
     0
281
     0
  0
CLASS
  1
ACDBPLACEHOLDER
  2
AcDbPlaceHolder
  3
ObjectDBX Classes
 90
        0
280
     0
281
     0
  0
CLASS
  1
LAYOUT
  2
AcDbLayout
  3
ObjectDBX Classes
 90
        0
280
     0
281
     0
  0
ENDSEC
  0
SECTION
  2
TABLES
  0
TABLE
  2
VPORT
  5
8
330
0
100
AcDbSymbolTable
 70
     1
  0
VPORT
  5
29
330
8
100
AcDbSymbolTableRecord
100
AcDbViewportTableRecord
  2
*Active
 70
     0
 10
0.0
 20
0.0
 11
1.0
 21
1.0
 12
594.5
 22
420.5
 13
0.0
 23
0.0
 14
10.0
 24
10.0
 15
10.0
 25
10.0
 16
0.0
 26
0.0
 36
1.0
 17
0.0
 27
0.0
 37
0.0
 40
841.0
 41
1.4137931034
 42
50.0
 43
0.0
 44
0.0
 50
0.0
 51
0.0
 71
     0
 72
  2000
 73
     1
 74
     3
 75
     0
 76
     0
 77
     0
 78
     0
281
     0
 65
     1
110
0.0
120
0.0
130
0.0
111
1.0
121
0.0
131
0.0
112
0.0
122
1.0
132
0.0
 79
     0
146
0.0
  0
ENDTAB
  0
TABLE
  2
LTYPE
  5
5
330
0
100
AcDbSymbolTable
 70
     6
  0
LTYPE
  5
14
330
5
100
AcDbSymbolTableRecord
100
AcDbLinetypeTableRecord
  2
ByBlock
 70
     0
  3

 72
    65
 73
     0
 40
0.0
  0
LTYPE
  5
15
330
5
100
AcDbSymbolTableRecord
100
AcDbLinetypeTableRecord
  2
ByLayer
 70
     0
  3

 72
    65
 73
     0
 40
0.0
  0
LTYPE
  5
16
330
5
100
AcDbSymbolTableRecord
100
AcDbLinetypeTableRecord
  2
Continuous
 70
     0
  3
Solid line
 72
    65
 73
     0
 40
0.0
  0
LTYPE
  5
3F
330
5
100
AcDbSymbolTableRecord
100
AcDbLinetypeTableRecord
  2
HIDDEN
 70
     0
  3
Hidden __ __ __ __ __ __ __ __ __ __ __ __ __ __
 72
    65
 73
     2
 40
1.905
 49
1.27
 74
     0
 49
-0.635
 74
     0
  0
LTYPE
  5
40
330
5
100
AcDbSymbolTableRecord
100
AcDbLinetypeTableRecord
  2
PHANTOM
 70
     0
  3
Phantom ______  __  __  ______  __  __  ______
 72
    65
 73
     6
 40
12.7
 49
6.35
 74
     0
 49
-1.27
 74
     0
 49
1.27
 74
     0
 49
-1.27
 74
     0
 49
1.27
 74
     0
 49
-1.27
 74
     0
  0
LTYPE
  5
41
330
5
100
AcDbSymbolTableRecord
100
AcDbLinetypeTableRecord
  2
CENTER
 70
     0
  3
Center ____ _ ____ _ ____ _ ____ _ ____ _ ____
 72
    65
 73
     4
 40
10.16
 49
6.35
 74
     0
 49
-1.27
 74
     0
 49
1.27
 74
     0
 49
-1.27
 74
     0
  0
LTYPE
  5
42
330
5
100
AcDbSymbolTableRecord
100
AcDbLinetypeTableRecord
  2
CENTERX2
 70
     0
  3
Center (2x) ________  __  ________  __  _____
 72
    65
 73
     4
 40
20.32
 49
12.7
 74
     0
 49
-2.54
 74
     0
 49
2.54
 74
     0
 49
-2.54
 74
     0
  0
LTYPE
  5
43
330
5
100
AcDbSymbolTableRecord
100
AcDbLinetypeTableRecord
  2
DOT2
 70
     0
  3
Dot (.5x) ........................................
 72
    65
 73
     2
 40
0.635
 49
0.0
 74
     0
 49
-0.635
 74
     0
  0
ENDTAB
  0
TABLE
  2
LAYER
  5
2
330
0
100
AcDbSymbolTable
 70
     1
  0
LAYER
  5
10
330
2
100
AcDbSymbolTableRecord
100
AcDbLayerTableRecord
  2
0
 70
     0
 62
     7
  6
Continuous
370
    -3
390
F
  0
ENDTAB
  0
TABLE
  2
STYLE
  5
3
330
0
100
AcDbSymbolTable
 70
     1
  0
STYLE
  5
11
330
3
100
AcDbSymbolTableRecord
100
AcDbTextStyleTableRecord
  2
Standard
 70
     0
 40
0.0
 41
1.0
 50
0.0
 71
     0
 42
3.5
  3
txt
  4

  0
ENDTAB
  0
TABLE
  2
VIEW
  5
6
330
0
100
AcDbSymbolTable
 70
     0
  0
ENDTAB
  0
TABLE
  2
UCS
  5
7
330
0
100
AcDbSymbolTable
 70
     0
  0
ENDTAB
  0
TABLE
  2
APPID
  5
9
330
0
100
AcDbSymbolTable
 70
     1
  0
APPID
  5
12
330
9
100
AcDbSymbolTableRecord
100
AcDbRegAppTableRecord
  2
ACAD
 70
     0
  0
ENDTAB
  0
TABLE
  2
DIMSTYLE
  5
A
330
0
100
AcDbSymbolTable
 70
     1
100
AcDbDimStyleTable
  0
DIMSTYLE
105
27
330
A
100
AcDbSymbolTableRecord
100
AcDbDimStyleTableRecord
  2
ISO-25
 70
     0
 41
2.5
 42
0.625
 43
3.75
 44
1.25
 73
     0
 74
     0
 77
     1
 78
     8
140
2.5
141
2.5
143
0.0393700787
147
0.625
171
     3
172
     1
178
     0
271
     2
272
     2
274
     3
278
    44
283
     0
284
     8
340
11
  0
ENDTAB
  0
TABLE
  2
BLOCK_RECORD
  5
1
330
0
100
AcDbSymbolTable
 70
     1
  0
BLOCK_RECORD
  5
1F
330
1
100
AcDbSymbolTableRecord
100
AcDbBlockTableRecord
  2
*Model_Space
340
22
  0
BLOCK_RECORD
  5
1B
330
1
100
AcDbSymbolTableRecord
100
AcDbBlockTableRecord
  2
*Paper_Space
340
1E
  0
BLOCK_RECORD
  5
23
330
1
100
AcDbSymbolTableRecord
100
AcDbBlockTableRecord
  2
*Paper_Space0
340
26
  0
ENDTAB
  0
ENDSEC
  0
SECTION
  2
BLOCKS
  0
BLOCK
  5
20
330
1F
100
AcDbEntity
  8
0
100
AcDbBlockBegin
  2
*Model_Space
 70
     0
 10
0.0
 20
0.0
 30
0.0
  3
*Model_Space
  1

  0
ENDBLK
  5
21
330
1F
100
AcDbEntity
  8
0
100
AcDbBlockEnd
  0
BLOCK
  5
1C
330
1B
100
AcDbEntity
 67
     1
  8
0
100
AcDbBlockBegin
  2
*Paper_Space
 70
     0
 10
0.0
 20
0.0
 30
0.0
  3
*Paper_Space
  1

  0
ENDBLK
  5
1D
330
1B
100
AcDbEntity
 67
     1
  8
0
100
AcDbBlockEnd
  0
BLOCK
  5
24
330
23
100
AcDbEntity
  8
0
100
AcDbBlockBegin
  2
*Paper_Space0
 70
     0
 10
0.0
 20
0.0
 30
0.0
  3
*Paper_Space0
  1

  0
ENDBLK
  5
25
330
23
100
AcDbEntity
  8
0
100
AcDbBlockEnd
  0
ENDSEC
  0
SECTION
  2
ENTITIES
  0
LINE
  5
44
330
1F
100
AcDbEntity
  8
0
  6
CENTERX2
 62
     7
100
AcDbLine
 10
272.3043700561
 20
185.1865480415
 30
0.0
 11
288.3043700561
 21
185.1865480415
 31
0.0
  0
LINE
  5
45
330
1F
100
AcDbEntity
  8
0
  6
CENTERX2
 62
     7
100
AcDbLine
 10
288.3043700561
 20
181.6865480415
 30
0.0
 11
272.3043700561
 21
181.6865480415
 31
0.0
  0
LWPOLYLINE
  5
46
330
1F
100
AcDbEntity
  8
0
  6
Continuous
 62
     7
100
AcDbPolyline
 90
       76
 70
   128
 43
0.0
 10
273.8899069151
 20
185.7244086185
 10
273.8874029087
 20
185.6778340992
 10
273.8798908894
 20
185.6302579774
 10
273.8673708574
 20
185.5826818556
 10
273.8498428125
 20
185.5346049326
 10
273.8278075561
 20
185.487529612
 10
273.8017658894
 20
185.4429582979
 10
273.77071621
 20
185.400390189
 10
273.7356601202
 20
185.3603260864
 10
273.6960968189
 20
185.3237675928
 10
273.6525271074
 20
185.2902139069
 10
273.6034485817
 20
185.2606666313
 10
273.5503636458
 20
185.2346249646
 10
273.4932722997
 20
185.2135913108
 10
273.4321745433
 20
185.1985672723
 10
273.3670703766
 20
185.1895528492
 10
273.2979597997
 20
185.1865480415
 10
273.2979597997
 20
185.1865480415
 10
273.2283484215
 20
185.1895528492
 10
273.1622426523
 20
185.198066471
 10
273.0991416907
 20
185.2125897082
 10
273.0395463382
 20
185.2331225608
 10
272.9839573958
 20
185.2581626249
 10
272.9328756651
 20
185.2877099005
 10
272.8863011458
 20
185.3202619838
 10
272.8442338382
 20
185.3573212787
 10
272.806673742
 20
185.3973853813
 10
272.7736208574
 20
185.439452689
 10
272.7450751843
 20
185.4840240031
 10
272.7210367228
 20
185.5310993236
 10
272.7020062741
 20
185.5796770479
 10
272.6889854407
 20
185.627753971
 10
272.6804718189
 20
185.6763316954
 10
272.6779678125
 20
185.7244086185
 10
272.6779678125
 20
185.7244086185
 10
272.6779678125
 20
185.979316471
 10
272.6779678125
 20
185.979316471
 10
272.6779678125
 20
185.7244086185
 10
272.6779678125
 20
185.7244086185
 10
272.6804718189
 20
185.6763316954
 10
272.6889854407
 20
185.627753971
 10
272.7020062741
 20
185.5796770479
 10
272.7210367228
 20
185.5310993236
 10
272.7450751843
 20
185.4840240031
 10
272.7736208574
 20
185.439452689
 10
272.806673742
 20
185.3973853813
 10
272.8442338382
 20
185.3573212787
 10
272.8863011458
 20
185.3202619838
 10
272.9328756651
 20
185.2877099005
 10
272.9839573958
 20
185.2581626249
 10
273.0395463382
 20
185.2331225608
 10
273.0991416907
 20
185.2125897082
 10
273.1622426523
 20
185.198066471
 10
273.2283484215
 20
185.1895528492
 10
273.2979597997
 20
185.1865480415
 10
273.2979597997
 20
185.1865480415
 10
273.3670703766
 20
185.1895528492
 10
273.4321745433
 20
185.1985672723
 10
273.4932722997
 20
185.2135913108
 10
273.5503636458
 20
185.2346249646
 10
273.6034485817
 20
185.2606666313
 10
273.6525271074
 20
185.2902139069
 10
273.6960968189
 20
185.3237675928
 10
273.7356601202
 20
185.3603260864
 10
273.77071621
 20
185.400390189
 10
273.8017658894
 20
185.4429582979
 10
273.8278075561
 20
185.487529612
 10
273.8498428125
 20
185.5346049326
 10
273.8673708574
 20
185.5826818556
 10
273.8798908894
 20
185.6302579774
 10
273.8874029087
 20
185.6778340992
 10
273.8899069151
 20
185.7244086185
 10
273.8899069151
 20
185.7244086185
 10
273.8934125241
 20
187.6544967595
 10
273.8934125241
 20
187.6544967595
 10
273.8899069151
 20
185.7244086185
  0
LWPOLYLINE
  5
47
330
1F
100
AcDbEntity
  8
0
  6
Continuous
 62
     7
100
AcDbPolyline
 90
       38
 70
   128
 43
0.0
 10
275.2861408894
 20
187.6865480415
 10
275.2821344792
 20
187.6104262467
 10
275.2691136458
 20
187.5413156697
 10
275.248079992
 20
187.479717112
 10
275.2185327164
 20
187.424628971
 10
275.1829758253
 20
187.3760512467
 10
275.1444141266
 20
187.3329823364
 10
275.1023468189
 20
187.294921439
 10
275.0572747035
 20
187.2618685543
 10
275.010199383
 20
187.2338236826
 10
274.96212246
 20
187.209785221
 10
274.9135447356
 20
187.190253971
 10
274.8634646074
 20
187.1752299326
 10
274.8153876843
 20
187.1637115031
 10
274.7718179728
 20
187.15469708
 10
274.7322546715
 20
187.1486874646
 10
274.6971985817
 20
187.1456826569
 10
274.6971985817
 20
187.1456826569
 10
274.7322546715
 20
187.1486874646
 10
274.7718179728
 20
187.15469708
 10
274.8153876843
 20
187.1637115031
 10
274.8634646074
 20
187.1752299326
 10
274.9135447356
 20
187.190253971
 10
274.96212246
 20
187.209785221
 10
275.010199383
 20
187.2338236826
 10
275.0572747035
 20
187.2618685543
 10
275.1023468189
 20
187.294921439
 10
275.1444141266
 20
187.3329823364
 10
275.1829758253
 20
187.3760512467
 10
275.2185327164
 20
187.424628971
 10
275.248079992
 20
187.479717112
 10
275.2691136458
 20
187.5413156697
 10
275.2821344792
 20
187.6104262467
 10
275.2861408894
 20
187.6865480415
 10
275.2861408894
 20
187.6865480415
 10
275.2861408894
 20
185.1865480415
 10
275.2861408894
 20
185.1865480415
 10
275.2861408894
 20
187.6865480415
  0
LWPOLYLINE
  5
48
330
1F
100
AcDbEntity
  8
0
  6
Continuous
 62
     7
100
AcDbPolyline
 90
       83
 70
   128
 43
0.0
 10
273.7792298317
 20
181.6544967595
 10
273.6665495433
 20
181.6585031697
 10
273.5578756651
 20
181.6715240031
 10
273.4527073958
 20
181.6925576569
 10
273.3510447356
 20
181.7221049326
 10
273.2548908894
 20
181.7611674326
 10
273.1642458574
 20
181.8112475608
 10
273.080111242
 20
181.8708429133
 10
273.0014854407
 20
181.9414558941
 10
272.9303716587
 20
182.0230865031
 10
272.8672706971
 20
182.1172371441
 10
272.8116817548
 20
182.2224054133
 10
272.7646064343
 20
182.3400937146
 10
272.7440735817
 20
182.4036954774
 10
272.7265455369
 20
182.4708028492
 10
272.7120222997
 20
182.54141583
 10
272.6995022676
 20
182.616035221
 10
272.6899870433
 20
182.6936594197
 10
272.6834766266
 20
182.7752900287
 10
272.6794702164
 20
182.8604262467
 10
272.6779678125
 20
182.9490680736
 10
272.6779678125
 20
182.9490680736
 10
272.6794702164
 20
183.0372090992
 10
272.6834766266
 20
183.1213437146
 10
272.6899870433
 20
183.2024735223
 10
272.6995022676
 20
183.280097721
 10
272.7120222997
 20
183.3542163108
 10
272.7265455369
 20
183.4253300928
 10
272.7440735817
 20
183.4924374646
 10
272.7646064343
 20
183.5565400287
 10
272.8116817548
 20
183.6752299326
 10
272.8672706971
 20
183.7819006056
 10
272.9303716587
 20
183.8770528492
 10
273.0014854407
 20
183.960185862
 10
273.080111242
 20
184.0323012467
 10
273.1642458574
 20
184.0933990031
 10
273.2548908894
 20
184.1434791313
 10
273.3510447356
 20
184.1825416313
 10
273.4527073958
 20
184.2125897082
 10
273.5578756651
 20
184.233623362
 10
273.6665495433
 20
184.2466441954
 10
273.7792298317
 20
184.2506506056
 10
273.7792298317
 20
184.2506506056
 10
273.8914093189
 20
184.2466441954
 10
274.0000831971
 20
184.233623362
 10
274.1052514664
 20
184.2125897082
 10
274.2064133253
 20
184.1825416313
 10
274.3030679728
 20
184.1434791313
 10
274.3937130048
 20
184.0933990031
 10
274.4778476202
 20
184.0323012467
 10
274.5559726202
 20
183.960185862
 10
274.6275872035
 20
183.8770528492
 10
274.6906881651
 20
183.7819006056
 10
274.7462771074
 20
183.6752299326
 10
274.7933524279
 20
183.5565400287
 10
274.8138852805
 20
183.4924374646
 10
274.8314133253
 20
183.4253300928
 10
274.8459365625
 20
183.3542163108
 10
274.8584565946
 20
183.280097721
 10
274.8679718189
 20
183.2024735223
 10
274.8744822356
 20
183.1213437146
 10
274.8784886458
 20
183.0372090992
 10
274.8799910497
 20
182.9490680736
 10
274.8799910497
 20
182.9490680736
 10
274.8784886458
 20
182.8604262467
 10
274.8744822356
 20
182.7752900287
 10
274.8679718189
 20
182.6936594197
 10
274.8584565946
 20
182.616035221
 10
274.8459365625
 20
182.54141583
 10
274.8314133253
 20
182.4708028492
 10
274.8138852805
 20
182.4036954774
 10
274.7933524279
 20
182.3400937146
 10
274.7462771074
 20
182.2224054133
 10
274.6906881651
 20
182.1172371441
 10
274.6275872035
 20
182.0230865031
 10
274.5559726202
 20
181.9414558941
 10
274.4778476202
 20
181.8708429133
 10
274.3937130048
 20
181.8112475608
 10
274.3030679728
 20
181.7611674326
 10
274.2064133253
 20
181.7221049326
 10
274.1052514664
 20
181.6925576569
 10
274.0000831971
 20
181.6715240031
 10
273.8914093189
 20
181.6585031697
  0
LWPOLYLINE
  5
49
330
1F
100
AcDbEntity
  8
0
  6
Continuous
 62
     7
100
AcDbPolyline
 90
       84
 70
   128
 43
0.0
 10
273.7792298317
 20
181.6544967595
 10
273.6665495433
 20
181.6585031697
 10
273.5578756651
 20
181.6715240031
 10
273.4527073958
 20
181.6925576569
 10
273.3510447356
 20
181.7221049326
 10
273.2548908894
 20
181.7611674326
 10
273.1642458574
 20
181.8112475608
 10
273.080111242
 20
181.8708429133
 10
273.0014854407
 20
181.9414558941
 10
272.9303716587
 20
182.0230865031
 10
272.8672706971
 20
182.1172371441
 10
272.8116817548
 20
182.2224054133
 10
272.7646064343
 20
182.3400937146
 10
272.7440735817
 20
182.4036954774
 10
272.7265455369
 20
182.4708028492
 10
272.7120222997
 20
182.54141583
 10
272.6995022676
 20
182.616035221
 10
272.6899870433
 20
182.6936594197
 10
272.6834766266
 20
182.7752900287
 10
272.6794702164
 20
182.8604262467
 10
272.6779678125
 20
182.9490680736
 10
272.6779678125
 20
182.9490680736
 10
272.6794702164
 20
183.0372090992
 10
272.6834766266
 20
183.1213437146
 10
272.6899870433
 20
183.2024735223
 10
272.6995022676
 20
183.280097721
 10
272.7120222997
 20
183.3542163108
 10
272.7265455369
 20
183.4253300928
 10
272.7440735817
 20
183.4924374646
 10
272.7646064343
 20
183.5565400287
 10
272.8116817548
 20
183.6752299326
 10
272.8672706971
 20
183.7819006056
 10
272.9303716587
 20
183.8770528492
 10
273.0014854407
 20
183.960185862
 10
273.080111242
 20
184.0323012467
 10
273.1642458574
 20
184.0933990031
 10
273.2548908894
 20
184.1434791313
 10
273.3510447356
 20
184.1825416313
 10
273.4527073958
 20
184.2125897082
 10
273.5578756651
 20
184.233623362
 10
273.6665495433
 20
184.2466441954
 10
273.7792298317
 20
184.2506506056
 10
273.7792298317
 20
184.2506506056
 10
273.8914093189
 20
184.2466441954
 10
274.0000831971
 20
184.233623362
 10
274.1052514664
 20
184.2125897082
 10
274.2064133253
 20
184.1825416313
 10
274.3030679728
 20
184.1434791313
 10
274.3937130048
 20
184.0933990031
 10
274.4778476202
 20
184.0323012467
 10
274.5559726202
 20
183.960185862
 10
274.6275872035
 20
183.8770528492
 10
274.6906881651
 20
183.7819006056
 10
274.7462771074
 20
183.6752299326
 10
274.7933524279
 20
183.5565400287
 10
274.8138852805
 20
183.4924374646
 10
274.8314133253
 20
183.4253300928
 10
274.8459365625
 20
183.3542163108
 10
274.8584565946
 20
183.280097721
 10
274.8679718189
 20
183.2024735223
 10
274.8744822356
 20
183.1213437146
 10
274.8784886458
 20
183.0372090992
 10
274.8799910497
 20
182.9490680736
 10
274.8799910497
 20
182.9490680736
 10
274.8784886458
 20
182.8604262467
 10
274.8744822356
 20
182.7752900287
 10
274.8679718189
 20
182.6936594197
 10
274.8584565946
 20
182.616035221
 10
274.8459365625
 20
182.54141583
 10
274.8314133253
 20
182.4708028492
 10
274.8138852805
 20
182.4036954774
 10
274.7933524279
 20
182.3400937146
 10
274.7462771074
 20
182.2224054133
 10
274.6906881651
 20
182.1172371441
 10
274.6275872035
 20
182.0230865031
 10
274.5559726202
 20
181.9414558941
 10
274.4778476202
 20
181.8708429133
 10
274.3937130048
 20
181.8112475608
 10
274.3030679728
 20
181.7611674326
 10
274.2064133253
 20
181.7221049326
 10
274.1052514664
 20
181.6925576569
 10
274.0000831971
 20
181.6715240031
 10
273.8914093189
 20
181.6585031697
 10
273.7792298317
 20
181.6544967595
  0
LWPOLYLINE
  5
4A
330
1F
100
AcDbEntity
  8
0
  6
Continuous
 62
     7
100
AcDbPolyline
 90
       12
 70
   128
 43
0.0
 10
276.0969381651
 20
184.1865480415
 10
277.8762851202
 20
181.6865480415
 10
277.8762851202
 20
181.6865480415
 10
277.8762851202
 20
184.1865480415
 10
277.8762851202
 20
184.1865480415
 10
277.8762851202
 20
181.6865480415
 10
277.8762851202
 20
181.6865480415
 10
276.0969381651
 20
184.1865480415
 10
276.0969381651
 20
184.1865480415
 10
276.0969381651
 20
181.6865480415
 10
276.0969381651
 20
181.6865480415
 10
276.0969381651
 20
184.1865480415
  0
LWPOLYLINE
  5
4B
330
1F
100
AcDbEntity
  8
0
  6
Continuous
 62
     7
100
AcDbPolyline
 90
       83
 70
   128
 43
0.0
 10
280.2215375241
 20
181.6544967595
 10
280.1088572356
 20
181.6585031697
 10
280.0001833574
 20
181.6715240031
 10
279.8950150882
 20
181.6925576569
 10
279.7933524279
 20
181.7221049326
 10
279.6971985817
 20
181.7611674326
 10
279.6065535497
 20
181.8112475608
 10
279.5224189343
 20
181.8708429133
 10
279.443793133
 20
181.9414558941
 10
279.372679351
 20
182.0230865031
 10
279.3095783894
 20
182.1172371441
 10
279.2539894471
 20
182.2224054133
 10
279.2069141266
 20
182.3400937146
 10
279.1863812741
 20
182.4036954774
 10
279.1688532292
 20
182.4708028492
 10
279.154329992
 20
182.54141583
 10
279.14180996
 20
182.616035221
 10
279.1322947356
 20
182.6936594197
 10
279.1257843189
 20
182.7752900287
 10
279.1217779087
 20
182.8604262467
 10
279.1202755048
 20
182.9490680736
 10
279.1202755048
 20
182.9490680736
 10
279.1217779087
 20
183.0372090992
 10
279.1257843189
 20
183.1213437146
 10
279.1322947356
 20
183.2024735223
 10
279.14180996
 20
183.280097721
 10
279.154329992
 20
183.3542163108
 10
279.1688532292
 20
183.4253300928
 10
279.1863812741
 20
183.4924374646
 10
279.2069141266
 20
183.5565400287
 10
279.2539894471
 20
183.6752299326
 10
279.3095783894
 20
183.7819006056
 10
279.372679351
 20
183.8770528492
 10
279.443793133
 20
183.960185862
 10
279.5224189343
 20
184.0323012467
 10
279.6065535497
 20
184.0933990031
 10
279.6971985817
 20
184.1434791313
 10
279.7933524279
 20
184.1825416313
 10
279.8950150882
 20
184.2125897082
 10
280.0001833574
 20
184.233623362
 10
280.1088572356
 20
184.2466441954
 10
280.2215375241
 20
184.2506506056
 10
280.2215375241
 20
184.2506506056
 10
280.3337170112
 20
184.2466441954
 10
280.4423908894
 20
184.233623362
 10
280.5475591587
 20
184.2125897082
 10
280.6487210176
 20
184.1825416313
 10
280.7453756651
 20
184.1434791313
 10
280.8360206971
 20
184.0933990031
 10
280.9201553125
 20
184.0323012467
 10
280.9982803125
 20
183.960185862
 10
281.0698948958
 20
183.8770528492
 10
281.1329958574
 20
183.7819006056
 10
281.1885847997
 20
183.6752299326
 10
281.2356601202
 20
183.5565400287
 10
281.2561929728
 20
183.4924374646
 10
281.2737210176
 20
183.4253300928
 10
281.2882442548
 20
183.3542163108
 10
281.3007642869
 20
183.280097721
 10
281.3102795112
 20
183.2024735223
 10
281.3167899279
 20
183.1213437146
 10
281.3207963382
 20
183.0372090992
 10
281.322298742
 20
182.9490680736
 10
281.322298742
 20
182.9490680736
 10
281.3207963382
 20
182.8604262467
 10
281.3167899279
 20
182.7752900287
 10
281.3102795112
 20
182.6936594197
 10
281.3007642869
 20
182.616035221
 10
281.2882442548
 20
182.54141583
 10
281.2737210176
 20
182.4708028492
 10
281.2561929728
 20
182.4036954774
 10
281.2356601202
 20
182.3400937146
 10
281.1885847997
 20
182.2224054133
 10
281.1329958574
 20
182.1172371441
 10
281.0698948958
 20
182.0230865031
 10
280.9982803125
 20
181.9414558941
 10
280.9201553125
 20
181.8708429133
 10
280.8360206971
 20
181.8112475608
 10
280.7453756651
 20
181.7611674326
 10
280.6487210176
 20
181.7221049326
 10
280.5475591587
 20
181.6925576569
 10
280.4423908894
 20
181.6715240031
 10
280.3337170112
 20
181.6585031697
  0
LWPOLYLINE
  5
4C
330
1F
100
AcDbEntity
  8
0
  6
Continuous
 62
     7
100
AcDbPolyline
 90
       84
 70
   128
 43
0.0
 10
280.2215375241
 20
181.6544967595
 10
280.1088572356
 20
181.6585031697
 10
280.0001833574
 20
181.6715240031
 10
279.8950150882
 20
181.6925576569
 10
279.7933524279
 20
181.7221049326
 10
279.6971985817
 20
181.7611674326
 10
279.6065535497
 20
181.8112475608
 10
279.5224189343
 20
181.8708429133
 10
279.443793133
 20
181.9414558941
 10
279.372679351
 20
182.0230865031
 10
279.3095783894
 20
182.1172371441
 10
279.2539894471
 20
182.2224054133
 10
279.2069141266
 20
182.3400937146
 10
279.1863812741
 20
182.4036954774
 10
279.1688532292
 20
182.4708028492
 10
279.154329992
 20
182.54141583
 10
279.14180996
 20
182.616035221
 10
279.1322947356
 20
182.6936594197
 10
279.1257843189
 20
182.7752900287
 10
279.1217779087
 20
182.8604262467
 10
279.1202755048
 20
182.9490680736
 10
279.1202755048
 20
182.9490680736
 10
279.1217779087
 20
183.0372090992
 10
279.1257843189
 20
183.1213437146
 10
279.1322947356
 20
183.2024735223
 10
279.14180996
 20
183.280097721
 10
279.154329992
 20
183.3542163108
 10
279.1688532292
 20
183.4253300928
 10
279.1863812741
 20
183.4924374646
 10
279.2069141266
 20
183.5565400287
 10
279.2539894471
 20
183.6752299326
 10
279.3095783894
 20
183.7819006056
 10
279.372679351
 20
183.8770528492
 10
279.443793133
 20
183.960185862
 10
279.5224189343
 20
184.0323012467
 10
279.6065535497
 20
184.0933990031
 10
279.6971985817
 20
184.1434791313
 10
279.7933524279
 20
184.1825416313
 10
279.8950150882
 20
184.2125897082
 10
280.0001833574
 20
184.233623362
 10
280.1088572356
 20
184.2466441954
 10
280.2215375241
 20
184.2506506056
 10
280.2215375241
 20
184.2506506056
 10
280.3337170112
 20
184.2466441954
 10
280.4423908894
 20
184.233623362
 10
280.5475591587
 20
184.2125897082
 10
280.6487210176
 20
184.1825416313
 10
280.7453756651
 20
184.1434791313
 10
280.8360206971
 20
184.0933990031
 10
280.9201553125
 20
184.0323012467
 10
280.9982803125
 20
183.960185862
 10
281.0698948958
 20
183.8770528492
 10
281.1329958574
 20
183.7819006056
 10
281.1885847997
 20
183.6752299326
 10
281.2356601202
 20
183.5565400287
 10
281.2561929728
 20
183.4924374646
 10
281.2737210176
 20
183.4253300928
 10
281.2882442548
 20
183.3542163108
 10
281.3007642869
 20
183.280097721
 10
281.3102795112
 20
183.2024735223
 10
281.3167899279
 20
183.1213437146
 10
281.3207963382
 20
183.0372090992
 10
281.322298742
 20
182.9490680736
 10
281.322298742
 20
182.9490680736
 10
281.3207963382
 20
182.8604262467
 10
281.3167899279
 20
182.7752900287
 10
281.3102795112
 20
182.6936594197
 10
281.3007642869
 20
182.616035221
 10
281.2882442548
 20
182.54141583
 10
281.2737210176
 20
182.4708028492
 10
281.2561929728
 20
182.4036954774
 10
281.2356601202
 20
182.3400937146
 10
281.1885847997
 20
182.2224054133
 10
281.1329958574
 20
182.1172371441
 10
281.0698948958
 20
182.0230865031
 10
280.9982803125
 20
181.9414558941
 10
280.9201553125
 20
181.8708429133
 10
280.8360206971
 20
181.8112475608
 10
280.7453756651
 20
181.7611674326
 10
280.6487210176
 20
181.7221049326
 10
280.5475591587
 20
181.6925576569
 10
280.4423908894
 20
181.6715240031
 10
280.3337170112
 20
181.6585031697
 10
280.2215375241
 20
181.6544967595
  0
LWPOLYLINE
  5
4D
330
1F
100
AcDbEntity
  8
0
  6
Continuous
 62
     7
100
AcDbPolyline
 90
        8
 70
   128
 43
0.0
 10
284.8028676523
 20
181.6865480415
 10
283.8959165305
 20
184.1865480415
 10
283.8959165305
 20
184.1865480415
 10
284.8028676523
 20
181.6865480415
 10
284.8028676523
 20
181.6865480415
 10
285.7098187741
 20
184.1865480415
 10
285.7098187741
 20
184.1865480415
 10
284.8028676523
 20
181.6865480415
  0
LWPOLYLINE
  5
4E
330
1F
100
AcDbEntity
  8
0
  6
Continuous
 62
     7
100
AcDbPolyline
 90
      128
 70
   128
 43
0.0
 10
286.5561729407
 20
181.6865480415
 10
286.5606801523
 20
181.7786954774
 10
286.5711969792
 20
181.8628300928
 10
286.5877234215
 20
181.939452689
 10
286.6097586779
 20
182.0085632659
 10
286.6368019471
 20
182.0716642274
 10
286.6678516266
 20
182.13125958
 10
286.7019061138
 20
182.1858469197
 10
286.7399670112
 20
182.2369286505
 10
286.7810327164
 20
182.284003971
 10
286.8251032292
 20
182.3285752851
 10
286.8721785497
 20
182.3696409902
 10
286.9217578766
 20
182.4077018877
 10
287.0259245433
 20
182.4808188749
 10
287.1345984215
 20
182.553935862
 10
287.1345984215
 20
182.553935862
 10
287.7265455369
 20
182.9510712787
 10
287.7265455369
 20
182.9510712787
 10
287.7701152484
 20
182.9831225608
 10
287.8086769471
 20
183.0171770479
 10
287.8412290305
 20
183.052733939
 10
287.8682722997
 20
183.0902940351
 10
287.9103396074
 20
183.1689198364
 10
287.9393860817
 20
183.2505504454
 10
287.9574149279
 20
183.3356866633
 10
287.9654277484
 20
183.4228260864
 10
287.9679317548
 20
183.510967112
 10
287.9689333574
 20
183.5986073364
 10
287.9689333574
 20
183.5986073364
 10
287.9669301523
 20
183.6436794518
 10
287.9609205369
 20
183.6907547723
 10
287.9514053125
 20
183.7408349005
 10
287.9373828766
 20
183.7934190351
 10
287.9193540305
 20
183.846503971
 10
287.8958163702
 20
183.8980865031
 10
287.8672706971
 20
183.94766583
 10
287.8337170112
 20
183.9957427531
 10
287.79415371
 20
184.0408148685
 10
287.7485807933
 20
184.0823813749
 10
287.69649746
 20
184.119941471
 10
287.63790371
 20
184.1539959582
 10
287.5727995433
 20
184.18204083
 10
287.5001833574
 20
184.2025736826
 10
287.419554351
 20
184.2145929133
 10
287.3319141266
 20
184.2185993236
 10
287.3319141266
 20
184.2185993236
 10
287.2422706971
 20
184.2145929133
 10
287.1596384856
 20
184.2030744838
 10
287.0845182933
 20
184.1835432338
 10
287.0169101202
 20
184.1559991633
 10
286.9558123638
 20
184.1219446761
 10
286.9002234215
 20
184.0833829774
 10
286.8506440946
 20
184.0393124646
 10
286.807074383
 20
183.990233939
 10
286.7695142869
 20
183.9371490031
 10
286.7369622035
 20
183.8810592595
 10
286.7104197356
 20
183.8214639069
 10
286.6893860817
 20
183.7583629454
 10
286.673861242
 20
183.6942603813
 10
286.6623428125
 20
183.6296570159
 10
286.6558323958
 20
183.5655544518
 10
286.6533283894
 20
183.5009510864
 10
286.6533283894
 20
183.5009510864
 10
286.6558323958
 20
183.5655544518
 10
286.6623428125
 20
183.6296570159
 10
286.673861242
 20
183.6942603813
 10
286.6893860817
 20
183.7583629454
 10
286.7104197356
 20
183.8214639069
 10
286.7369622035
 20
183.8810592595
 10
286.7695142869
 20
183.9371490031
 10
286.807074383
 20
183.990233939
 10
286.8506440946
 20
184.0393124646
 10
286.9002234215
 20
184.0833829774
 10
286.9558123638
 20
184.1219446761
 10
287.0169101202
 20
184.1559991633
 10
287.0845182933
 20
184.1835432338
 10
287.1596384856
 20
184.2030744838
 10
287.2422706971
 20
184.2145929133
 10
287.3319141266
 20
184.2185993236
 10
287.3319141266
 20
184.2185993236
 10
287.419554351
 20
184.2145929133
 10
287.5001833574
 20
184.2025736826
 10
287.5727995433
 20
184.18204083
 10
287.63790371
 20
184.1539959582
 10
287.69649746
 20
184.119941471
 10
287.7485807933
 20
184.0823813749
 10
287.79415371
 20
184.0408148685
 10
287.8337170112
 20
183.9957427531
 10
287.8672706971
 20
183.94766583
 10
287.8958163702
 20
183.8980865031
 10
287.9193540305
 20
183.846503971
 10
287.9373828766
 20
183.7934190351
 10
287.9514053125
 20
183.7408349005
 10
287.9609205369
 20
183.6907547723
 10
287.9669301523
 20
183.6436794518
 10
287.9689333574
 20
183.5986073364
 10
287.9689333574
 20
183.5986073364
 10
287.9679317548
 20
183.510967112
 10
287.9654277484
 20
183.4228260864
 10
287.9574149279
 20
183.3356866633
 10
287.9393860817
 20
183.2505504454
 10
287.9103396074
 20
183.1689198364
 10
287.8682722997
 20
183.0902940351
 10
287.8412290305
 20
183.052733939
 10
287.8086769471
 20
183.0171770479
 10
287.7701152484
 20
182.9831225608
 10
287.7265455369
 20
182.9510712787
 10
287.7265455369
 20
182.9510712787
 10
287.1345984215
 20
182.553935862
 10
287.1345984215
 20
182.553935862
 10
287.0259245433
 20
182.4808188749
 10
286.9217578766
 20
182.4077018877
 10
286.8721785497
 20
182.3696409902
 10
286.8251032292
 20
182.3285752851
 10
286.7810327164
 20
182.284003971
 10
286.7399670112
 20
182.2369286505
 10
286.7019061138
 20
182.1858469197
 10
286.6678516266
 20
182.13125958
 10
286.6368019471
 20
182.0716642274
 10
286.6097586779
 20
182.0085632659
 10
286.5877234215
 20
181.939452689
 10
286.5711969792
 20
181.8628300928
 10
286.5606801523
 20
181.7786954774
 10
286.5561729407
 20
181.6865480415
 10
286.5561729407
 20
181.6865480415
 10
288.0415495433
 20
181.6865480415
 10
288.0415495433
 20
181.6865480415
 10
286.5561729407
 20
181.6865480415
  0
LINE
  5
4F
330
1F
100
AcDbEntity
  8
0
  6
Continuous
 62
     7
370
    15
100
AcDbLine
 10
300.3043695495
 20
184.1865477882
 30
0.0
 11
299.3043693856
 21
183.6865477063
 31
0.0
  0
LINE
  5
50
330
1F
100
AcDbEntity
  8
0
  6
Continuous
 62
     7
370
    15
100
AcDbLine
 10
300.8043705627
 20
184.6865488015
 30
0.0
 11
300.3043695495
 21
184.1865477882
 31
0.0
  0
LINE
  5
51
330
1F
100
AcDbEntity
  8
0
  6
Continuous
 62
     7
370
    15
100
AcDbLine
 10
301.804368864
 20
184.6865488015
 30
0.0
 11
300.8043705627
 21
184.6865488015
 31
0.0
  0
LINE
  5
52
330
1F
100
AcDbEntity
  8
0
  6
Continuous
 62
     7
370
    15
100
AcDbLine
 10
303.3043719038
 20
183.1865476243
 30
0.0
 11
301.804368864
 21
184.6865488015
 31
0.0
  0
LINE
  5
53
330
1F
100
AcDbEntity
  8
0
  6
Continuous
 62
     7
370
    15
100
AcDbLine
 10
303.3043719038
 20
181.6865483097
 30
0.0
 11
303.3043719038
 21
183.1865476243
 31
0.0
  0
LINE
  5
54
330
1F
100
AcDbEntity
  8
0
  6
Continuous
 62
     7
370
    15
100
AcDbLine
 10
290.304369773
 20
181.1865482278
 30
0.0
 11
303.3043719038
 21
181.6865483097
 31
0.0
  0
LINE
  5
55
330
1F
100
AcDbEntity
  8
0
  6
Continuous
 62
     7
370
    15
100
AcDbLine
 10
290.304369773
 20
180.6865481458
 30
0.0
 11
290.304369773
 21
181.1865482278
 31
0.0
  0
LINE
  5
56
330
1F
100
AcDbEntity
  8
0
  6
Continuous
 62
     7
370
    15
100
AcDbLine
 10
303.3043719038
 20
180.6865481458
 30
0.0
 11
290.304369773
 21
180.6865481458
 31
0.0
  0
LINE
  5
57
330
1F
100
AcDbEntity
  8
0
  6
Continuous
 62
     7
370
    15
100
AcDbLine
 10
303.3043719038
 20
156.6865479372
 30
0.0
 11
303.3043719038
 21
180.6865481458
 31
0.0
  0
LINE
  5
58
330
1F
100
AcDbEntity
  8
0
  6
Continuous
 62
     7
370
    15
100
AcDbLine
 10
290.304369773
 20
156.6865479372
 30
0.0
 11
303.3043719038
 21
156.6865479372
 31
0.0
  0
LINE
  5
59
330
1F
100
AcDbEntity
  8
0
  6
Continuous
 62
     7
370
    15
100
AcDbLine
 10
290.304369773
 20
156.1865478553
 30
0.0
 11
290.304369773
 21
156.6865479372
 31
0.0
  0
LINE
  5
5A
330
1F
100
AcDbEntity
  8
0
  6
Continuous
 62
     7
370
    15
100
AcDbLine
 10
303.3043719038
 20
155.6865477733
 30
0.0
 11
290.304369773
 21
156.1865478553
 31
0.0
  0
LINE
  5
5B
330
1F
100
AcDbEntity
  8
0
  6
Continuous
 62
     7
370
    15
100
AcDbLine
 10
303.3043719038
 20
154.1865484588
 30
0.0
 11
303.3043719038
 21
155.6865477733
 31
0.0
  0
LINE
  5
5C
330
1F
100
AcDbEntity
  8
0
  6
Continuous
 62
     7
370
    15
100
AcDbLine
 10
301.804368864
 20
152.6865472816
 30
0.0
 11
303.3043719038
 21
154.1865484588
 31
0.0
  0
LINE
  5
5D
330
1F
100
AcDbEntity
  8
0
  6
Continuous
 62
     7
370
    15
100
AcDbLine
 10
300.8043705627
 20
152.6865472816
 30
0.0
 11
301.804368864
 21
152.6865472816
 31
0.0
  0
LINE
  5
5E
330
1F
100
AcDbEntity
  8
0
  6
Continuous
 62
     7
370
    15
100
AcDbLine
 10
300.3043695495
 20
153.1865482948
 30
0.0
 11
300.8043705627
 21
152.6865472816
 31
0.0
  0
LINE
  5
5F
330
1F
100
AcDbEntity
  8
0
  6
Continuous
 62
     7
370
    15
100
AcDbLine
 10
299.3043693856
 20
153.6865483768
 30
0.0
 11
300.3043695495
 21
153.1865482948
 31
0.0
  0
LINE
  5
60
330
1F
100
AcDbEntity
  8
0
  6
Continuous
 62
     7
370
    15
100
AcDbLine
 10
290.304369773
 20
153.6865483768
 30
0.0
 11
299.3043693856
 21
153.6865483768
 31
0.0
  0
LINE
  5
61
330
1F
100
AcDbEntity
  8
0
  6
Continuous
 62
     7
370
    15
100
AcDbLine
 10
290.304369773
 20
153.1865482948
 30
0.0
 11
290.304369773
 21
153.6865483768
 31
0.0
  0
LINE
  5
62
330
1F
100
AcDbEntity
  8
0
  6
Continuous
 62
     7
370
    15
100
AcDbLine
 10
297.3043709204
 20
152.6865472816
 30
0.0
 11
290.304369773
 21
153.1865482948
 31
0.0
  0
LINE
  5
63
330
1F
100
AcDbEntity
  8
0
  6
Continuous
 62
     7
370
    15
100
AcDbLine
 10
297.3043709204
 20
148.6865484886
 30
0.0
 11
297.3043709204
 21
152.6865472816
 31
0.0
  0
LINE
  5
64
330
1F
100
AcDbEntity
  8
0
  6
Continuous
 62
     7
370
    15
100
AcDbLine
 10
259.2043704495
 20
148.6865484886
 30
0.0
 11
297.3043709204
 21
148.6865484886
 31
0.0
  0
ARC
  5
65
330
1F
100
AcDbEntity
  8
0
  6
Continuous
 62
     7
370
    15
100
AcDbCircle
 10
259.2043700561
 20
168.6865480415
 30
0.0
 40
20.00000000000003
100
AcDbArc
 50
90.0
 51
270.0
  0
LINE
  5
66
330
1F
100
AcDbEntity
  8
0
  6
Continuous
 62
     7
370
    15
100
AcDbLine
 10
297.3043709204
 20
188.6865475945
 30
0.0
 11
259.2043704495
 21
188.6865475945
 31
0.0
  0
LINE
  5
67
330
1F
100
AcDbEntity
  8
0
  6
Continuous
 62
     7
370
    15
100
AcDbLine
 10
297.3043709204
 20
184.6865488015
 30
0.0
 11
297.3043709204
 21
188.6865475945
 31
0.0
  0
LINE
  5
68
330
1F
100
AcDbEntity
  8
0
  6
Continuous
 62
     7
370
    15
100
AcDbLine
 10
290.304369773
 20
184.1865477882
 30
0.0
 11
297.3043709204
 21
184.6865488015
 31
0.0
  0
LINE
  5
69
330
1F
100
AcDbEntity
  8
0
  6
Continuous
 62
     7
370
    15
100
AcDbLine
 10
290.304369773
 20
183.6865477063
 30
0.0
 11
290.304369773
 21
184.1865477882
 31
0.0
  0
LINE
  5
6A
330
1F
100
AcDbEntity
  8
0
  6
Continuous
 62
     7
370
    15
100
AcDbLine
 10
299.3043693856
 20
183.6865477063
 30
0.0
 11
290.304369773
 21
183.6865477063
 31
0.0
  0
CIRCLE
  5
6B
330
1F
100
AcDbEntity
  8
0
  6
Continuous
 62
     7
370
    15
100
AcDbCircle
 10
254.2043700561
 20
183.6865480415
 30
0.0
 40
1.5
  0
CIRCLE
  5
6C
330
1F
100
AcDbEntity
  8
0
  6
Continuous
 62
     7
370
    15
100
AcDbCircle
 10
264.2043700561
 20
183.6865480415
 30
0.0
 40
1.5
  0
CIRCLE
  5
6D
330
1F
100
AcDbEntity
  8
0
  6
Continuous
 62
     7
370
    15
100
AcDbCircle
 10
264.2043700561
 20
153.6865480415
 30
0.0
 40
1.5
  0
CIRCLE
  5
6E
330
1F
100
AcDbEntity
  8
0
  6
Continuous
 62
     7
370
    15
100
AcDbCircle
 10
254.2043700561
 20
153.6865480415
 30
0.0
 40
1.5
  0
LINE
  5
6F
330
1F
100
AcDbEntity
  8
0
  6
Continuous
 62
     7
370
    15
100
AcDbLine
 10
245.8043708608
 20
171.6865480676
 30
0.0
 11
245.8043708608
 21
165.6865480155
 31
0.0
  0
LINE
  5
70
330
1F
100
AcDbEntity
  8
0
  6
Continuous
 62
     7
370
    15
100
AcDbLine
 10
245.8043708608
 20
165.6865480155
 30
0.0
 11
248.8043694899
 21
165.6865480155
 31
0.0
  0
LINE
  5
71
330
1F
100
AcDbEntity
  8
0
  6
Continuous
 62
     7
370
    15
100
AcDbLine
 10
248.8043694899
 20
165.6865480155
 30
0.0
 11
248.8043694899
 21
158.1865481831
 31
0.0
  0
LINE
  5
72
330
1F
100
AcDbEntity
  8
0
  6
Continuous
 62
     7
370
    15
100
AcDbLine
 10
248.8043694899
 20
158.1865481831
 30
0.0
 11
289.8043706223
 21
158.1865481831
 31
0.0
  0
LINE
  5
73
330
1F
100
AcDbEntity
  8
0
  6
Continuous
 62
     7
370
    15
100
AcDbLine
 10
289.8043706223
 20
158.1865481831
 30
0.0
 11
289.8043706223
 21
179.1865479
 31
0.0
  0
LINE
  5
74
330
1F
100
AcDbEntity
  8
0
  6
Continuous
 62
     7
370
    15
100
AcDbLine
 10
289.8043706223
 20
179.1865479
 30
0.0
 11
248.8043694899
 21
179.1865479
 31
0.0
  0
LINE
  5
75
330
1F
100
AcDbEntity
  8
0
  6
Continuous
 62
     7
370
    15
100
AcDbLine
 10
248.8043694899
 20
171.6865480676
 30
0.0
 11
245.8043708608
 21
171.6865480676
 31
0.0
  0
LINE
  5
76
330
1F
100
AcDbEntity
  8
0
  6
Continuous
 62
     7
370
    15
100
AcDbLine
 10
248.8043694899
 20
179.1865479
 30
0.0
 11
248.8043694899
 21
171.6865480676
 31
0.0
  0
LINE
  5
77
330
1F
100
AcDbEntity
  8
0
  6
CENTERX2
 62
     7
100
AcDbLine
 10
127.8541984326
 20
181.7004209288
 30
0.0
 11
143.8541984326
 21
181.7004209288
 31
0.0
  0
LINE
  5
78
330
1F
100
AcDbEntity
  8
0
  6
CENTERX2
 62
     7
100
AcDbLine
 10
127.8541984326
 20
185.2004209288
 30
0.0
 11
143.8541984326
 21
185.2004209288
 31
0.0
  0
LWPOLYLINE
  5
79
330
1F
100
AcDbEntity
  8
0
  6
Continuous
 62
     7
100
AcDbPolyline
 90
       76
 70
   128
 43
0.0
 10
129.4397352916
 20
185.7382815058
 10
129.4372312851
 20
185.6917069865
 10
129.4297192659
 20
185.6441308647
 10
129.4171992339
 20
185.5965547429
 10
129.399671189
 20
185.5484778199
 10
129.3776359326
 20
185.5014024993
 10
129.3515942659
 20
185.4568311852
 10
129.3205445864
 20
185.4142630763
 10
129.2854884967
 20
185.3741989737
 10
129.2459251954
 20
185.3376404801
 10
129.2023554839
 20
185.3040867942
 10
129.1532769582
 20
185.2745395186
 10
129.1001920223
 20
185.2484978519
 10
129.0431006762
 20
185.2274641981
 10
128.9820029198
 20
185.2124401596
 10
128.9168987531
 20
185.2034257365
 10
128.8477881762
 20
185.2004209288
 10
128.8477881762
 20
185.2004209288
 10
128.778176798
 20
185.2034257365
 10
128.7120710287
 20
185.2119393583
 10
128.6489700672
 20
185.2264625955
 10
128.5893747146
 20
185.2469954481
 10
128.5337857723
 20
185.2720355122
 10
128.4827040416
 20
185.3015827878
 10
128.4361295223
 20
185.3341348711
 10
128.3940622146
 20
185.371194166
 10
128.3565021185
 20
185.4112582686
 10
128.3234492339
 20
185.4533255763
 10
128.2949035608
 20
185.4978968904
 10
128.2708650992
 20
185.5449722109
 10
128.2518346505
 20
185.5935499352
 10
128.2388138172
 20
185.6416268583
 10
128.2303001954
 20
185.6902045827
 10
128.227796189
 20
185.7382815058
 10
128.227796189
 20
185.7382815058
 10
128.227796189
 20
185.9931893583
 10
128.227796189
 20
185.9931893583
 10
128.227796189
 20
185.7382815058
 10
128.227796189
 20
185.7382815058
 10
128.2303001954
 20
185.6902045827
 10
128.2388138172
 20
185.6416268583
 10
128.2518346505
 20
185.5935499352
 10
128.2708650992
 20
185.5449722109
 10
128.2949035608
 20
185.4978968904
 10
128.3234492339
 20
185.4533255763
 10
128.3565021185
 20
185.4112582686
 10
128.3940622146
 20
185.371194166
 10
128.4361295223
 20
185.3341348711
 10
128.4827040416
 20
185.3015827878
 10
128.5337857723
 20
185.2720355122
 10
128.5893747146
 20
185.2469954481
 10
128.6489700672
 20
185.2264625955
 10
128.7120710287
 20
185.2119393583
 10
128.778176798
 20
185.2034257365
 10
128.8477881762
 20
185.2004209288
 10
128.8477881762
 20
185.2004209288
 10
128.9168987531
 20
185.2034257365
 10
128.9820029198
 20
185.2124401596
 10
129.0431006762
 20
185.2274641981
 10
129.1001920223
 20
185.2484978519
 10
129.1532769582
 20
185.2745395186
 10
129.2023554839
 20
185.3040867942
 10
129.2459251954
 20
185.3376404801
 10
129.2854884967
 20
185.3741989737
 10
129.3205445864
 20
185.4142630763
 10
129.3515942659
 20
185.4568311852
 10
129.3776359326
 20
185.5014024993
 10
129.399671189
 20
185.5484778199
 10
129.4171992339
 20
185.5965547429
 10
129.4297192659
 20
185.6441308647
 10
129.4372312851
 20
185.6917069865
 10
129.4397352916
 20
185.7382815058
 10
129.4397352916
 20
185.7382815058
 10
129.4432409005
 20
187.6683696468
 10
129.4432409005
 20
187.6683696468
 10
129.4397352916
 20
185.7382815058
  0
LWPOLYLINE
  5
7A
330
1F
100
AcDbEntity
  8
0
  6
Continuous
 62
     7
100
AcDbPolyline
 90
      128
 70
   128
 43
0.0
 10
130.2470269582
 20
185.2004209288
 10
130.2515341698
 20
185.2925683647
 10
130.2620509967
 20
185.3767029801
 10
130.278577439
 20
185.4533255763
 10
130.3006126954
 20
185.5224361532
 10
130.3276559646
 20
185.5855371147
 10
130.3587056441
 20
185.6451324673
 10
130.3927601313
 20
185.699719807
 10
130.4308210287
 20
185.7508015378
 10
130.4718867339
 20
185.7978768583
 10
130.5159572467
 20
185.8424481724
 10
130.5630325672
 20
185.8835138775
 10
130.6126118941
 20
185.921574775
 10
130.7167785608
 20
185.9946917622
 10
130.825452439
 20
186.0678087493
 10
130.825452439
 20
186.0678087493
 10
131.4173995544
 20
186.464944166
 10
131.4173995544
 20
186.464944166
 10
131.4609692659
 20
186.4969954481
 10
131.4995309646
 20
186.5310499352
 10
131.532083048
 20
186.5666068263
 10
131.5591263172
 20
186.6041669224
 10
131.6011936249
 20
186.6827927237
 10
131.6302400992
 20
186.7644233327
 10
131.6482689454
 20
186.8495595506
 10
131.6562817659
 20
186.9366989737
 10
131.6587857723
 20
187.0248399993
 10
131.6597873749
 20
187.1124802237
 10
131.6597873749
 20
187.1124802237
 10
131.6577841698
 20
187.1575523391
 10
131.6517745544
 20
187.2046276596
 10
131.64225933
 20
187.2547077878
 10
131.6282368941
 20
187.3072919224
 10
131.610208048
 20
187.3603768583
 10
131.5866703877
 20
187.4119593904
 10
131.5581247146
 20
187.4615387173
 10
131.5245710287
 20
187.5096156404
 10
131.4850077274
 20
187.5546877558
 10
131.4394348108
 20
187.5962542622
 10
131.3873514774
 20
187.6338143583
 10
131.3287577274
 20
187.6678688455
 10
131.2636535608
 20
187.6959137173
 10
131.1910373749
 20
187.7164465699
 10
131.1104083685
 20
187.7284658006
 10
131.0227681441
 20
187.7324722109
 10
131.0227681441
 20
187.7324722109
 10
130.9331247146
 20
187.7284658006
 10
130.8504925031
 20
187.7169473711
 10
130.7753723108
 20
187.6974161211
 10
130.7077641377
 20
187.6698720506
 10
130.6466663813
 20
187.6358175634
 10
130.591077439
 20
187.5972558647
 10
130.5414981121
 20
187.5531853519
 10
130.4979284005
 20
187.5041068263
 10
130.4603683044
 20
187.4510218904
 10
130.427816221
 20
187.3949321468
 10
130.4012737531
 20
187.3353367942
 10
130.3802400992
 20
187.2722358327
 10
130.3647152595
 20
187.2081332686
 10
130.35319683
 20
187.1435299032
 10
130.3466864133
 20
187.0794273391
 10
130.3441824069
 20
187.0148239737
 10
130.3441824069
 20
187.0148239737
 10
130.3466864133
 20
187.0794273391
 10
130.35319683
 20
187.1435299032
 10
130.3647152595
 20
187.2081332686
 10
130.3802400992
 20
187.2722358327
 10
130.4012737531
 20
187.3353367942
 10
130.427816221
 20
187.3949321468
 10
130.4603683044
 20
187.4510218904
 10
130.4979284005
 20
187.5041068263
 10
130.5414981121
 20
187.5531853519
 10
130.591077439
 20
187.5972558647
 10
130.6466663813
 20
187.6358175634
 10
130.7077641377
 20
187.6698720506
 10
130.7753723108
 20
187.6974161211
 10
130.8504925031
 20
187.7169473711
 10
130.9331247146
 20
187.7284658006
 10
131.0227681441
 20
187.7324722109
 10
131.0227681441
 20
187.7324722109
 10
131.1104083685
 20
187.7284658006
 10
131.1910373749
 20
187.7164465699
 10
131.2636535608
 20
187.6959137173
 10
131.3287577274
 20
187.6678688455
 10
131.3873514774
 20
187.6338143583
 10
131.4394348108
 20
187.5962542622
 10
131.4850077274
 20
187.5546877558
 10
131.5245710287
 20
187.5096156404
 10
131.5581247146
 20
187.4615387173
 10
131.5866703877
 20
187.4119593904
 10
131.610208048
 20
187.3603768583
 10
131.6282368941
 20
187.3072919224
 10
131.64225933
 20
187.2547077878
 10
131.6517745544
 20
187.2046276596
 10
131.6577841698
 20
187.1575523391
 10
131.6597873749
 20
187.1124802237
 10
131.6597873749
 20
187.1124802237
 10
131.6587857723
 20
187.0248399993
 10
131.6562817659
 20
186.9366989737
 10
131.6482689454
 20
186.8495595506
 10
131.6302400992
 20
186.7644233327
 10
131.6011936249
 20
186.6827927237
 10
131.5591263172
 20
186.6041669224
 10
131.532083048
 20
186.5666068263
 10
131.4995309646
 20
186.5310499352
 10
131.4609692659
 20
186.4969954481
 10
131.4173995544
 20
186.464944166
 10
131.4173995544
 20
186.464944166
 10
130.825452439
 20
186.0678087493
 10
130.825452439
 20
186.0678087493
 10
130.7167785608
 20
185.9946917622
 10
130.6126118941
 20
185.921574775
 10
130.5630325672
 20
185.8835138775
 10
130.5159572467
 20
185.8424481724
 10
130.4718867339
 20
185.7978768583
 10
130.4308210287
 20
185.7508015378
 10
130.3927601313
 20
185.699719807
 10
130.3587056441
 20
185.6451324673
 10
130.3276559646
 20
185.5855371147
 10
130.3006126954
 20
185.5224361532
 10
130.278577439
 20
185.4533255763
 10
130.2620509967
 20
185.3767029801
 10
130.2515341698
 20
185.2925683647
 10
130.2470269582
 20
185.2004209288
 10
130.2470269582
 20
185.2004209288
 10
131.7324035608
 20
185.2004209288
 10
131.7324035608
 20
185.2004209288
 10
130.2470269582
 20
185.2004209288
  0
LWPOLYLINE
  5
7B
330
1F
100
AcDbEntity
  8
0
  6
Continuous
 62
     7
100
AcDbPolyline
 90
       83
 70
   128
 43
0.0
 10
129.3290582082
 20
181.6683696468
 10
129.2163779198
 20
181.672376057
 10
129.1077040416
 20
181.6853968904
 10
129.0025357723
 20
181.7064305442
 10
128.9008731121
 20
181.7359778199
 10
128.8047192659
 20
181.7750403199
 10
128.7140742339
 20
181.8251204481
 10
128.6299396185
 20
181.8847158006
 10
128.5513138172
 20
181.9553287814
 10
128.4802000351
 20
182.0369593904
 10
128.4170990736
 20
182.1311100314
 10
128.3615101313
 20
182.2362783006
 10
128.3144348108
 20
182.3539666019
 10
128.2939019582
 20
182.4175683647
 10
128.2763739133
 20
182.4846757365
 10
128.2618506762
 20
182.5552887173
 10
128.2493306441
 20
182.6299081083
 10
128.2398154198
 20
182.707532307
 10
128.2333050031
 20
182.789162916
 10
128.2292985928
 20
182.874299134
 10
128.227796189
 20
182.9629409609
 10
128.227796189
 20
182.9629409609
 10
128.2292985928
 20
183.0510819865
 10
128.2333050031
 20
183.1352166019
 10
128.2398154198
 20
183.2163464096
 10
128.2493306441
 20
183.2939706083
 10
128.2618506762
 20
183.3680891981
 10
128.2763739133
 20
183.4392029801
 10
128.2939019582
 20
183.5063103519
 10
128.3144348108
 20
183.570412916
 10
128.3615101313
 20
183.6891028199
 10
128.4170990736
 20
183.7957734929
 10
128.4802000351
 20
183.8909257365
 10
128.5513138172
 20
183.9740587493
 10
128.6299396185
 20
184.046174134
 10
128.7140742339
 20
184.1072718904
 10
128.8047192659
 20
184.1573520186
 10
128.9008731121
 20
184.1964145186
 10
129.0025357723
 20
184.2264625955
 10
129.1077040416
 20
184.2474962493
 10
129.2163779198
 20
184.2605170827
 10
129.3290582082
 20
184.2645234929
 10
129.3290582082
 20
184.2645234929
 10
129.4412376954
 20
184.2605170827
 10
129.5499115736
 20
184.2474962493
 10
129.6550798428
 20
184.2264625955
 10
129.7562417018
 20
184.1964145186
 10
129.8528963492
 20
184.1573520186
 10
129.9435413813
 20
184.1072718904
 10
130.0276759967
 20
184.046174134
 10
130.1058009967
 20
183.9740587493
 10
130.17741558
 20
183.8909257365
 10
130.2405165416
 20
183.7957734929
 10
130.2961054839
 20
183.6891028199
 10
130.3431808044
 20
183.570412916
 10
130.3637136569
 20
183.5063103519
 10
130.3812417018
 20
183.4392029801
 10
130.395764939
 20
183.3680891981
 10
130.408284971
 20
183.2939706083
 10
130.4178001954
 20
183.2163464096
 10
130.4243106121
 20
183.1352166019
 10
130.4283170223
 20
183.0510819865
 10
130.4298194262
 20
182.9629409609
 10
130.4298194262
 20
182.9629409609
 10
130.4283170223
 20
182.874299134
 10
130.4243106121
 20
182.789162916
 10
130.4178001954
 20
182.707532307
 10
130.408284971
 20
182.6299081083
 10
130.395764939
 20
182.5552887173
 10
130.3812417018
 20
182.4846757365
 10
130.3637136569
 20
182.4175683647
 10
130.3431808044
 20
182.3539666019
 10
130.2961054839
 20
182.2362783006
 10
130.2405165416
 20
182.1311100314
 10
130.17741558
 20
182.0369593904
 10
130.1058009967
 20
181.9553287814
 10
130.0276759967
 20
181.8847158006
 10
129.9435413813
 20
181.8251204481
 10
129.8528963492
 20
181.7750403199
 10
129.7562417018
 20
181.7359778199
 10
129.6550798428
 20
181.7064305442
 10
129.5499115736
 20
181.6853968904
 10
129.4412376954
 20
181.672376057
  0
LWPOLYLINE
  5
7C
330
1F
100
AcDbEntity
  8
0
  6
Continuous
 62
     7
100
AcDbPolyline
 90
       84
 70
   128
 43
0.0
 10
129.3290582082
 20
181.6683696468
 10
129.2163779198
 20
181.672376057
 10
129.1077040416
 20
181.6853968904
 10
129.0025357723
 20
181.7064305442
 10
128.9008731121
 20
181.7359778199
 10
128.8047192659
 20
181.7750403199
 10
128.7140742339
 20
181.8251204481
 10
128.6299396185
 20
181.8847158006
 10
128.5513138172
 20
181.9553287814
 10
128.4802000351
 20
182.0369593904
 10
128.4170990736
 20
182.1311100314
 10
128.3615101313
 20
182.2362783006
 10
128.3144348108
 20
182.3539666019
 10
128.2939019582
 20
182.4175683647
 10
128.2763739133
 20
182.4846757365
 10
128.2618506762
 20
182.5552887173
 10
128.2493306441
 20
182.6299081083
 10
128.2398154198
 20
182.707532307
 10
128.2333050031
 20
182.789162916
 10
128.2292985928
 20
182.874299134
 10
128.227796189
 20
182.9629409609
 10
128.227796189
 20
182.9629409609
 10
128.2292985928
 20
183.0510819865
 10
128.2333050031
 20
183.1352166019
 10
128.2398154198
 20
183.2163464096
 10
128.2493306441
 20
183.2939706083
 10
128.2618506762
 20
183.3680891981
 10
128.2763739133
 20
183.4392029801
 10
128.2939019582
 20
183.5063103519
 10
128.3144348108
 20
183.570412916
 10
128.3615101313
 20
183.6891028199
 10
128.4170990736
 20
183.7957734929
 10
128.4802000351
 20
183.8909257365
 10
128.5513138172
 20
183.9740587493
 10
128.6299396185
 20
184.046174134
 10
128.7140742339
 20
184.1072718904
 10
128.8047192659
 20
184.1573520186
 10
128.9008731121
 20
184.1964145186
 10
129.0025357723
 20
184.2264625955
 10
129.1077040416
 20
184.2474962493
 10
129.2163779198
 20
184.2605170827
 10
129.3290582082
 20
184.2645234929
 10
129.3290582082
 20
184.2645234929
 10
129.4412376954
 20
184.2605170827
 10
129.5499115736
 20
184.2474962493
 10
129.6550798428
 20
184.2264625955
 10
129.7562417018
 20
184.1964145186
 10
129.8528963492
 20
184.1573520186
 10
129.9435413813
 20
184.1072718904
 10
130.0276759967
 20
184.046174134
 10
130.1058009967
 20
183.9740587493
 10
130.17741558
 20
183.8909257365
 10
130.2405165416
 20
183.7957734929
 10
130.2961054839
 20
183.6891028199
 10
130.3431808044
 20
183.570412916
 10
130.3637136569
 20
183.5063103519
 10
130.3812417018
 20
183.4392029801
 10
130.395764939
 20
183.3680891981
 10
130.408284971
 20
183.2939706083
 10
130.4178001954
 20
183.2163464096
 10
130.4243106121
 20
183.1352166019
 10
130.4283170223
 20
183.0510819865
 10
130.4298194262
 20
182.9629409609
 10
130.4298194262
 20
182.9629409609
 10
130.4283170223
 20
182.874299134
 10
130.4243106121
 20
182.789162916
 10
130.4178001954
 20
182.707532307
 10
130.408284971
 20
182.6299081083
 10
130.395764939
 20
182.5552887173
 10
130.3812417018
 20
182.4846757365
 10
130.3637136569
 20
182.4175683647
 10
130.3431808044
 20
182.3539666019
 10
130.2961054839
 20
182.2362783006
 10
130.2405165416
 20
182.1311100314
 10
130.17741558
 20
182.0369593904
 10
130.1058009967
 20
181.9553287814
 10
130.0276759967
 20
181.8847158006
 10
129.9435413813
 20
181.8251204481
 10
129.8528963492
 20
181.7750403199
 10
129.7562417018
 20
181.7359778199
 10
129.6550798428
 20
181.7064305442
 10
129.5499115736
 20
181.6853968904
 10
129.4412376954
 20
181.672376057
 10
129.3290582082
 20
181.6683696468
  0
LWPOLYLINE
  5
7D
330
1F
100
AcDbEntity
  8
0
  6
Continuous
 62
     7
100
AcDbPolyline
 90
       12
 70
   128
 43
0.0
 10
131.6467665416
 20
184.2004209288
 10
133.4261134967
 20
181.7004209288
 10
133.4261134967
 20
181.7004209288
 10
133.4261134967
 20
184.2004209288
 10
133.4261134967
 20
184.2004209288
 10
133.4261134967
 20
181.7004209288
 10
133.4261134967
 20
181.7004209288
 10
131.6467665416
 20
184.2004209288
 10
131.6467665416
 20
184.2004209288
 10
131.6467665416
 20
181.7004209288
 10
131.6467665416
 20
181.7004209288
 10
131.6467665416
 20
184.2004209288
  0
LWPOLYLINE
  5
7E
330
1F
100
AcDbEntity
  8
0
  6
Continuous
 62
     7
100
AcDbPolyline
 90
       83
 70
   128
 43
0.0
 10
135.7713659005
 20
181.6683696468
 10
135.6586856121
 20
181.672376057
 10
135.5500117339
 20
181.6853968904
 10
135.4448434646
 20
181.7064305442
 10
135.3431808044
 20
181.7359778199
 10
135.2470269582
 20
181.7750403199
 10
135.1563819262
 20
181.8251204481
 10
135.0722473108
 20
181.8847158006
 10
134.9936215095
 20
181.9553287814
 10
134.9225077274
 20
182.0369593904
 10
134.8594067659
 20
182.1311100314
 10
134.8038178236
 20
182.2362783006
 10
134.7567425031
 20
182.3539666019
 10
134.7362096505
 20
182.4175683647
 10
134.7186816057
 20
182.4846757365
 10
134.7041583685
 20
182.5552887173
 10
134.6916383364
 20
182.6299081083
 10
134.6821231121
 20
182.707532307
 10
134.6756126954
 20
182.789162916
 10
134.6716062851
 20
182.874299134
 10
134.6701038813
 20
182.9629409609
 10
134.6701038813
 20
182.9629409609
 10
134.6716062851
 20
183.0510819865
 10
134.6756126954
 20
183.1352166019
 10
134.6821231121
 20
183.2163464096
 10
134.6916383364
 20
183.2939706083
 10
134.7041583685
 20
183.3680891981
 10
134.7186816057
 20
183.4392029801
 10
134.7362096505
 20
183.5063103519
 10
134.7567425031
 20
183.570412916
 10
134.8038178236
 20
183.6891028199
 10
134.8594067659
 20
183.7957734929
 10
134.9225077274
 20
183.8909257365
 10
134.9936215095
 20
183.9740587493
 10
135.0722473108
 20
184.046174134
 10
135.1563819262
 20
184.1072718904
 10
135.2470269582
 20
184.1573520186
 10
135.3431808044
 20
184.1964145186
 10
135.4448434646
 20
184.2264625955
 10
135.5500117339
 20
184.2474962493
 10
135.6586856121
 20
184.2605170827
 10
135.7713659005
 20
184.2645234929
 10
135.7713659005
 20
184.2645234929
 10
135.8835453877
 20
184.2605170827
 10
135.9922192659
 20
184.2474962493
 10
136.0973875351
 20
184.2264625955
 10
136.1985493941
 20
184.1964145186
 10
136.2952040416
 20
184.1573520186
 10
136.3858490736
 20
184.1072718904
 10
136.469983689
 20
184.046174134
 10
136.548108689
 20
183.9740587493
 10
136.6197232723
 20
183.8909257365
 10
136.6828242339
 20
183.7957734929
 10
136.7384131762
 20
183.6891028199
 10
136.7854884967
 20
183.570412916
 10
136.8060213492
 20
183.5063103519
 10
136.8235493941
 20
183.4392029801
 10
136.8380726313
 20
183.3680891981
 10
136.8505926633
 20
183.2939706083
 10
136.8601078877
 20
183.2163464096
 10
136.8666183044
 20
183.1352166019
 10
136.8706247146
 20
183.0510819865
 10
136.8721271185
 20
182.9629409609
 10
136.8721271185
 20
182.9629409609
 10
136.8706247146
 20
182.874299134
 10
136.8666183044
 20
182.789162916
 10
136.8601078877
 20
182.707532307
 10
136.8505926633
 20
182.6299081083
 10
136.8380726313
 20
182.5552887173
 10
136.8235493941
 20
182.4846757365
 10
136.8060213492
 20
182.4175683647
 10
136.7854884967
 20
182.3539666019
 10
136.7384131762
 20
182.2362783006
 10
136.6828242339
 20
182.1311100314
 10
136.6197232723
 20
182.0369593904
 10
136.548108689
 20
181.9553287814
 10
136.469983689
 20
181.8847158006
 10
136.3858490736
 20
181.8251204481
 10
136.2952040416
 20
181.7750403199
 10
136.1985493941
 20
181.7359778199
 10
136.0973875351
 20
181.7064305442
 10
135.9922192659
 20
181.6853968904
 10
135.8835453877
 20
181.672376057
  0
LWPOLYLINE
  5
7F
330
1F
100
AcDbEntity
  8
0
  6
Continuous
 62
     7
100
AcDbPolyline
 90
       84
 70
   128
 43
0.0
 10
135.7713659005
 20
181.6683696468
 10
135.6586856121
 20
181.672376057
 10
135.5500117339
 20
181.6853968904
 10
135.4448434646
 20
181.7064305442
 10
135.3431808044
 20
181.7359778199
 10
135.2470269582
 20
181.7750403199
 10
135.1563819262
 20
181.8251204481
 10
135.0722473108
 20
181.8847158006
 10
134.9936215095
 20
181.9553287814
 10
134.9225077274
 20
182.0369593904
 10
134.8594067659
 20
182.1311100314
 10
134.8038178236
 20
182.2362783006
 10
134.7567425031
 20
182.3539666019
 10
134.7362096505
 20
182.4175683647
 10
134.7186816057
 20
182.4846757365
 10
134.7041583685
 20
182.5552887173
 10
134.6916383364
 20
182.6299081083
 10
134.6821231121
 20
182.707532307
 10
134.6756126954
 20
182.789162916
 10
134.6716062851
 20
182.874299134
 10
134.6701038813
 20
182.9629409609
 10
134.6701038813
 20
182.9629409609
 10
134.6716062851
 20
183.0510819865
 10
134.6756126954
 20
183.1352166019
 10
134.6821231121
 20
183.2163464096
 10
134.6916383364
 20
183.2939706083
 10
134.7041583685
 20
183.3680891981
 10
134.7186816057
 20
183.4392029801
 10
134.7362096505
 20
183.5063103519
 10
134.7567425031
 20
183.570412916
 10
134.8038178236
 20
183.6891028199
 10
134.8594067659
 20
183.7957734929
 10
134.9225077274
 20
183.8909257365
 10
134.9936215095
 20
183.9740587493
 10
135.0722473108
 20
184.046174134
 10
135.1563819262
 20
184.1072718904
 10
135.2470269582
 20
184.1573520186
 10
135.3431808044
 20
184.1964145186
 10
135.4448434646
 20
184.2264625955
 10
135.5500117339
 20
184.2474962493
 10
135.6586856121
 20
184.2605170827
 10
135.7713659005
 20
184.2645234929
 10
135.7713659005
 20
184.2645234929
 10
135.8835453877
 20
184.2605170827
 10
135.9922192659
 20
184.2474962493
 10
136.0973875351
 20
184.2264625955
 10
136.1985493941
 20
184.1964145186
 10
136.2952040416
 20
184.1573520186
 10
136.3858490736
 20
184.1072718904
 10
136.469983689
 20
184.046174134
 10
136.548108689
 20
183.9740587493
 10
136.6197232723
 20
183.8909257365
 10
136.6828242339
 20
183.7957734929
 10
136.7384131762
 20
183.6891028199
 10
136.7854884967
 20
183.570412916
 10
136.8060213492
 20
183.5063103519
 10
136.8235493941
 20
183.4392029801
 10
136.8380726313
 20
183.3680891981
 10
136.8505926633
 20
183.2939706083
 10
136.8601078877
 20
183.2163464096
 10
136.8666183044
 20
183.1352166019
 10
136.8706247146
 20
183.0510819865
 10
136.8721271185
 20
182.9629409609
 10
136.8721271185
 20
182.9629409609
 10
136.8706247146
 20
182.874299134
 10
136.8666183044
 20
182.789162916
 10
136.8601078877
 20
182.707532307
 10
136.8505926633
 20
182.6299081083
 10
136.8380726313
 20
182.5552887173
 10
136.8235493941
 20
182.4846757365
 10
136.8060213492
 20
182.4175683647
 10
136.7854884967
 20
182.3539666019
 10
136.7384131762
 20
182.2362783006
 10
136.6828242339
 20
182.1311100314
 10
136.6197232723
 20
182.0369593904
 10
136.548108689
 20
181.9553287814
 10
136.469983689
 20
181.8847158006
 10
136.3858490736
 20
181.8251204481
 10
136.2952040416
 20
181.7750403199
 10
136.1985493941
 20
181.7359778199
 10
136.0973875351
 20
181.7064305442
 10
135.9922192659
 20
181.6853968904
 10
135.8835453877
 20
181.672376057
 10
135.7713659005
 20
181.6683696468
  0
LWPOLYLINE
  5
80
330
1F
100
AcDbEntity
  8
0
  6
Continuous
 62
     7
100
AcDbPolyline
 90
        8
 70
   128
 43
0.0
 10
140.3526960287
 20
181.7004209288
 10
139.4457449069
 20
184.2004209288
 10
139.4457449069
 20
184.2004209288
 10
140.3526960287
 20
181.7004209288
 10
140.3526960287
 20
181.7004209288
 10
141.2596471505
 20
184.2004209288
 10
141.2596471505
 20
184.2004209288
 10
140.3526960287
 20
181.7004209288
  0
LWPOLYLINE
  5
81
330
1F
100
AcDbEntity
  8
0
  6
Continuous
 62
     7
100
AcDbPolyline
 90
      128
 70
   128
 43
0.0
 10
142.1060013172
 20
181.7004209288
 10
142.1105085287
 20
181.7925683647
 10
142.1210253557
 20
181.8767029801
 10
142.137551798
 20
181.9533255763
 10
142.1595870544
 20
182.0224361532
 10
142.1866303236
 20
182.0855371147
 10
142.2176800031
 20
182.1451324673
 10
142.2517344903
 20
182.199719807
 10
142.2897953877
 20
182.2508015378
 10
142.3308610928
 20
182.2978768583
 10
142.3749316057
 20
182.3424481724
 10
142.4220069262
 20
182.3835138775
 10
142.4715862531
 20
182.421574775
 10
142.5757529198
 20
182.4946917622
 10
142.684426798
 20
182.5678087493
 10
142.684426798
 20
182.5678087493
 10
143.2763739133
 20
182.964944166
 10
143.2763739133
 20
182.964944166
 10
143.3199436249
 20
182.9969954481
 10
143.3585053236
 20
183.0310499352
 10
143.3910574069
 20
183.0666068263
 10
143.4181006762
 20
183.1041669224
 10
143.4601679839
 20
183.1827927237
 10
143.4892144582
 20
183.2644233327
 10
143.5072433044
 20
183.3495595506
 10
143.5152561249
 20
183.4366989737
 10
143.5177601313
 20
183.5248399993
 10
143.5187617339
 20
183.6124802237
 10
143.5187617339
 20
183.6124802237
 10
143.5167585287
 20
183.6575523391
 10
143.5107489133
 20
183.7046276596
 10
143.501233689
 20
183.7547077878
 10
143.4872112531
 20
183.8072919224
 10
143.4691824069
 20
183.8603768583
 10
143.4456447467
 20
183.9119593904
 10
143.4170990736
 20
183.9615387173
 10
143.3835453877
 20
184.0096156404
 10
143.3439820864
 20
184.0546877558
 10
143.2984091698
 20
184.0962542622
 10
143.2463258364
 20
184.1338143583
 10
143.1877320864
 20
184.1678688455
 10
143.1226279198
 20
184.1959137173
 10
143.0500117339
 20
184.2164465699
 10
142.9693827274
 20
184.2284658006
 10
142.8817425031
 20
184.2324722109
 10
142.8817425031
 20
184.2324722109
 10
142.7920990736
 20
184.2284658006
 10
142.7094668621
 20
184.2169473711
 10
142.6343466698
 20
184.1974161211
 10
142.5667384967
 20
184.1698720506
 10
142.5056407403
 20
184.1358175634
 10
142.450051798
 20
184.0972558647
 10
142.400472471
 20
184.0531853519
 10
142.3569027595
 20
184.0041068263
 10
142.3193426633
 20
183.9510218904
 10
142.28679058
 20
183.8949321468
 10
142.2602481121
 20
183.8353367942
 10
142.2392144582
 20
183.7722358327
 10
142.2236896185
 20
183.7081332686
 10
142.212171189
 20
183.6435299032
 10
142.2056607723
 20
183.5794273391
 10
142.2031567659
 20
183.5148239737
 10
142.2031567659
 20
183.5148239737
 10
142.2056607723
 20
183.5794273391
 10
142.212171189
 20
183.6435299032
 10
142.2236896185
 20
183.7081332686
 10
142.2392144582
 20
183.7722358327
 10
142.2602481121
 20
183.8353367942
 10
142.28679058
 20
183.8949321468
 10
142.3193426633
 20
183.9510218904
 10
142.3569027595
 20
184.0041068263
 10
142.400472471
 20
184.0531853519
 10
142.450051798
 20
184.0972558647
 10
142.5056407403
 20
184.1358175634
 10
142.5667384967
 20
184.1698720506
 10
142.6343466698
 20
184.1974161211
 10
142.7094668621
 20
184.2169473711
 10
142.7920990736
 20
184.2284658006
 10
142.8817425031
 20
184.2324722109
 10
142.8817425031
 20
184.2324722109
 10
142.9693827274
 20
184.2284658006
 10
143.0500117339
 20
184.2164465699
 10
143.1226279198
 20
184.1959137173
 10
143.1877320864
 20
184.1678688455
 10
143.2463258364
 20
184.1338143583
 10
143.2984091698
 20
184.0962542622
 10
143.3439820864
 20
184.0546877558
 10
143.3835453877
 20
184.0096156404
 10
143.4170990736
 20
183.9615387173
 10
143.4456447467
 20
183.9119593904
 10
143.4691824069
 20
183.8603768583
 10
143.4872112531
 20
183.8072919224
 10
143.501233689
 20
183.7547077878
 10
143.5107489133
 20
183.7046276596
 10
143.5167585287
 20
183.6575523391
 10
143.5187617339
 20
183.6124802237
 10
143.5187617339
 20
183.6124802237
 10
143.5177601313
 20
183.5248399993
 10
143.5152561249
 20
183.4366989737
 10
143.5072433044
 20
183.3495595506
 10
143.4892144582
 20
183.2644233327
 10
143.4601679839
 20
183.1827927237
 10
143.4181006762
 20
183.1041669224
 10
143.3910574069
 20
183.0666068263
 10
143.3585053236
 20
183.0310499352
 10
143.3199436249
 20
182.9969954481
 10
143.2763739133
 20
182.964944166
 10
143.2763739133
 20
182.964944166
 10
142.684426798
 20
182.5678087493
 10
142.684426798
 20
182.5678087493
 10
142.5757529198
 20
182.4946917622
 10
142.4715862531
 20
182.421574775
 10
142.4220069262
 20
182.3835138775
 10
142.3749316057
 20
182.3424481724
 10
142.3308610928
 20
182.2978768583
 10
142.2897953877
 20
182.2508015378
 10
142.2517344903
 20
182.199719807
 10
142.2176800031
 20
182.1451324673
 10
142.1866303236
 20
182.0855371147
 10
142.1595870544
 20
182.0224361532
 10
142.137551798
 20
181.9533255763
 10
142.1210253557
 20
181.8767029801
 10
142.1105085287
 20
181.7925683647
 10
142.1060013172
 20
181.7004209288
 10
142.1060013172
 20
181.7004209288
 10
143.5913779198
 20
181.7004209288
 10
143.5913779198
 20
181.7004209288
 10
142.1060013172
 20
181.7004209288
  0
LINE
  5
82
330
1F
100
AcDbEntity
  8
0
  6
Continuous
 62
     7
370
    15
100
AcDbLine
 10
119.3541985816
 20
167.4504209568
 30
0.0
 11
126.3541978663
 21
167.4504209568
 31
0.0
  0
LINE
  5
83
330
1F
100
AcDbEntity
  8
0
  6
Continuous
 62
     7
370
    15
100
AcDbLine
 10
167.3541989988
 20
167.4504209568
 30
0.0
 11
174.3541982836
 21
167.4504209568
 31
0.0
  0
LINE
  5
84
330
1F
100
AcDbEntity
  8
0
  6
Continuous
 62
     7
370
    15
100
AcDbLine
 10
174.3541982836
 20
167.4504209568
 30
0.0
 11
174.3541982836
 21
169.9504209009
 31
0.0
  0
LINE
  5
85
330
1F
100
AcDbEntity
  8
0
  6
Continuous
 62
     7
370
    15
100
AcDbLine
 10
174.3541982836
 20
169.9504209009
 30
0.0
 11
167.3541989988
 21
169.9504209009
 31
0.0
  0
LINE
  5
86
330
1F
100
AcDbEntity
  8
0
  6
Continuous
 62
     7
370
    15
100
AcDbLine
 10
126.3541978663
 20
169.9504209009
 30
0.0
 11
119.3541985816
 21
169.9504209009
 31
0.0
  0
LINE
  5
87
330
1F
100
AcDbEntity
  8
0
  6
Continuous
 62
     7
370
    15
100
AcDbLine
 10
119.3541985816
 20
169.9504209009
 30
0.0
 11
119.3541985816
 21
167.4504209568
 31
0.0
  0
CIRCLE
  5
88
330
1F
100
AcDbEntity
  8
0
  6
Continuous
 62
     7
370
    15
100
AcDbCircle
 10
151.9541984326
 20
183.7004209288
 30
0.0
 40
1.25
  0
CIRCLE
  5
89
330
1F
100
AcDbEntity
  8
0
  6
Continuous
 62
     7
370
    15
100
AcDbCircle
 10
161.9541984326
 20
183.7004209288
 30
0.0
 40
1.249999999999972
  0
CIRCLE
  5
8A
330
1F
100
AcDbEntity
  8
0
  6
Continuous
 62
     7
370
    15
100
AcDbCircle
 10
151.9541984326
 20
153.7004209288
 30
0.0
 40
1.25
  0
CIRCLE
  5
8B
330
1F
100
AcDbEntity
  8
0
  6
Continuous
 62
     7
370
    15
100
AcDbCircle
 10
161.9541984326
 20
153.7004209288
 30
0.0
 40
1.249999999999972
  0
LINE
  5
8C
330
1F
100
AcDbEntity
  8
0
  6
Continuous
 62
     7
370
    15
100
AcDbLine
 10
125.8541987157
 20
184.2004206755
 30
0.0
 11
118.8541975683
 21
184.7004216888
 31
0.0
  0
LINE
  5
8D
330
1F
100
AcDbEntity
  8
0
  6
Continuous
 62
     7
370
    15
100
AcDbLine
 10
167.3541989988
 20
158.2004210704
 30
0.0
 11
126.3541978663
 21
158.2004210704
 31
0.0
  0
CIRCLE
  5
8E
330
1F
100
AcDbEntity
  8
0
  6
Continuous
 62
     7
370
    15
100
AcDbCircle
 10
171.3541984326
 20
173.7004209288
 30
0.0
 40
1.25
  0
CIRCLE
  5
8F
330
1F
100
AcDbEntity
  8
0
  6
Continuous
 62
     7
370
    15
100
AcDbCircle
 10
171.3541984326
 20
163.7004209288
 30
0.0
 40
1.25
  0
CIRCLE
  5
90
330
1F
100
AcDbEntity
  8
0
  6
Continuous
 62
     7
370
    15
100
AcDbCircle
 10
122.3541984326
 20
163.7004209288
 30
0.0
 40
1.25
  0
CIRCLE
  5
91
330
1F
100
AcDbEntity
  8
0
  6
Continuous
 62
     7
370
    15
100
AcDbCircle
 10
122.3541984326
 20
173.7004209288
 30
0.0
 40
1.25
  0
LINE
  5
92
330
1F
100
AcDbEntity
  8
0
  6
Continuous
 62
     7
370
    15
100
AcDbLine
 10
167.3541989988
 20
169.9504209009
 30
0.0
 11
167.3541989988
 21
179.2004207873
 31
0.0
  0
LINE
  5
93
330
1F
100
AcDbEntity
  8
0
  6
Continuous
 62
     7
370
    15
100
AcDbLine
 10
167.3541989988
 20
179.2004207873
 30
0.0
 11
126.3541978663
 21
179.2004207873
 31
0.0
  0
LINE
  5
94
330
1F
100
AcDbEntity
  8
0
  6
Continuous
 62
     7
370
    15
100
AcDbLine
 10
126.3541978663
 20
158.2004210704
 30
0.0
 11
126.3541978663
 21
167.4504209568
 31
0.0
  0
LINE
  5
95
330
1F
100
AcDbEntity
  8
0
  6
Continuous
 62
     7
370
    15
100
AcDbLine
 10
118.8541975683
 20
184.7004216888
 30
0.0
 11
118.8541975683
 21
188.7004204818
 31
0.0
  0
LINE
  5
96
330
1F
100
AcDbEntity
  8
0
  6
Continuous
 62
     7
370
    15
100
AcDbLine
 10
118.8541975683
 20
188.7004204818
 30
0.0
 11
156.9541980392
 21
188.7004204818
 31
0.0
  0
ARC
  5
97
330
1F
100
AcDbEntity
  8
0
  6
Continuous
 62
     7
370
    15
100
AcDbCircle
 10
156.9541984326
 20
168.7004209288
 30
0.0
 40
20.0
100
AcDbArc
 50
270.0
 51
90.0
  0
LINE
  5
98
330
1F
100
AcDbEntity
  8
0
  6
Continuous
 62
     7
370
    15
100
AcDbLine
 10
118.8541975683
 20
148.7004213759
 30
0.0
 11
156.9541980392
 21
148.7004213759
 31
0.0
  0
LINE
  5
99
330
1F
100
AcDbEntity
  8
0
  6
Continuous
 62
     7
370
    15
100
AcDbLine
 10
118.8541975683
 20
152.7004201689
 30
0.0
 11
118.8541975683
 21
148.7004213759
 31
0.0
  0
LINE
  5
9A
330
1F
100
AcDbEntity
  8
0
  6
Continuous
 62
     7
370
    15
100
AcDbLine
 10
125.8541987157
 20
153.2004211821
 30
0.0
 11
118.8541975683
 21
152.7004201689
 31
0.0
  0
LINE
  5
9B
330
1F
100
AcDbEntity
  8
0
  6
Continuous
 62
     7
370
    15
100
AcDbLine
 10
125.8541987157
 20
153.7004212641
 30
0.0
 11
125.8541987157
 21
153.2004211821
 31
0.0
  0
LINE
  5
9C
330
1F
100
AcDbEntity
  8
0
  6
Continuous
 62
     7
370
    15
100
AcDbLine
 10
116.8541991031
 20
153.7004212641
 30
0.0
 11
125.8541987157
 21
153.7004212641
 31
0.0
  0
LINE
  5
9D
330
1F
100
AcDbEntity
  8
0
  6
Continuous
 62
     7
370
    15
100
AcDbLine
 10
115.8541989392
 20
153.2004211821
 30
0.0
 11
116.8541991031
 21
153.7004212641
 31
0.0
  0
LINE
  5
9E
330
1F
100
AcDbEntity
  8
0
  6
Continuous
 62
     7
370
    15
100
AcDbLine
 10
115.3541979259
 20
152.7004201689
 30
0.0
 11
115.8541989392
 21
153.2004211821
 31
0.0
  0
LINE
  5
9F
330
1F
100
AcDbEntity
  8
0
  6
Continuous
 62
     7
370
    15
100
AcDbLine
 10
114.3541996247
 20
152.7004201689
 30
0.0
 11
115.3541979259
 21
152.7004201689
 31
0.0
  0
LINE
  5
A0
330
1F
100
AcDbEntity
  8
0
  6
Continuous
 62
     7
370
    15
100
AcDbLine
 10
112.8541965848
 20
154.2004213461
 30
0.0
 11
114.3541996247
 21
152.7004201689
 31
0.0
  0
LINE
  5
A1
330
1F
100
AcDbEntity
  8
0
  6
Continuous
 62
     7
370
    15
100
AcDbLine
 10
112.8541965848
 20
155.7004206606
 30
0.0
 11
112.8541965848
 21
154.2004213461
 31
0.0
  0
LINE
  5
A2
330
1F
100
AcDbEntity
  8
0
  6
Continuous
 62
     7
370
    15
100
AcDbLine
 10
125.8541987157
 20
156.2004207426
 30
0.0
 11
112.8541965848
 21
155.7004206606
 31
0.0
  0
LINE
  5
A3
330
1F
100
AcDbEntity
  8
0
  6
Continuous
 62
     7
370
    15
100
AcDbLine
 10
125.8541987157
 20
156.7004208245
 30
0.0
 11
125.8541987157
 21
156.2004207426
 31
0.0
  0
LINE
  5
A4
330
1F
100
AcDbEntity
  8
0
  6
Continuous
 62
     7
370
    15
100
AcDbLine
 10
112.8541965848
 20
156.7004208245
 30
0.0
 11
125.8541987157
 21
156.7004208245
 31
0.0
  0
LINE
  5
A5
330
1F
100
AcDbEntity
  8
0
  6
Continuous
 62
     7
370
    15
100
AcDbLine
 10
112.8541965848
 20
180.7004210331
 30
0.0
 11
112.8541965848
 21
156.7004208245
 31
0.0
  0
LINE
  5
A6
330
1F
100
AcDbEntity
  8
0
  6
Continuous
 62
     7
370
    15
100
AcDbLine
 10
112.8541965848
 20
180.7004210331
 30
0.0
 11
125.8541987157
 21
180.7004210331
 31
0.0
  0
LINE
  5
A7
330
1F
100
AcDbEntity
  8
0
  6
Continuous
 62
     7
370
    15
100
AcDbLine
 10
125.8541987157
 20
180.7004210331
 30
0.0
 11
125.8541987157
 21
181.2004211151
 31
0.0
  0
LINE
  5
A8
330
1F
100
AcDbEntity
  8
0
  6
Continuous
 62
     7
370
    15
100
AcDbLine
 10
125.8541987157
 20
181.2004211151
 30
0.0
 11
112.8541965848
 21
181.700421197
 31
0.0
  0
LINE
  5
A9
330
1F
100
AcDbEntity
  8
0
  6
Continuous
 62
     7
370
    15
100
AcDbLine
 10
112.8541965848
 20
181.700421197
 30
0.0
 11
112.8541965848
 21
183.2004205116
 31
0.0
  0
LINE
  5
AA
330
1F
100
AcDbEntity
  8
0
  6
Continuous
 62
     7
370
    15
100
AcDbLine
 10
112.8541965848
 20
183.2004205116
 30
0.0
 11
114.3541996247
 21
184.7004216888
 31
0.0
  0
LINE
  5
AB
330
1F
100
AcDbEntity
  8
0
  6
Continuous
 62
     7
370
    15
100
AcDbLine
 10
114.3541996247
 20
184.7004216888
 30
0.0
 11
115.3541979259
 21
184.7004216888
 31
0.0
  0
LINE
  5
AC
330
1F
100
AcDbEntity
  8
0
  6
Continuous
 62
     7
370
    15
100
AcDbLine
 10
115.3541979259
 20
184.7004216888
 30
0.0
 11
115.8541989392
 21
184.2004206755
 31
0.0
  0
LINE
  5
AD
330
1F
100
AcDbEntity
  8
0
  6
Continuous
 62
     7
370
    15
100
AcDbLine
 10
115.8541989392
 20
184.2004206755
 30
0.0
 11
116.8541991031
 21
183.7004205936
 31
0.0
  0
LINE
  5
AE
330
1F
100
AcDbEntity
  8
0
  6
Continuous
 62
     7
370
    15
100
AcDbLine
 10
116.8541991031
 20
183.7004205936
 30
0.0
 11
125.8541987157
 21
183.7004205936
 31
0.0
  0
LINE
  5
AF
330
1F
100
AcDbEntity
  8
0
  6
Continuous
 62
     7
370
    15
100
AcDbLine
 10
125.8541987157
 20
183.7004205936
 30
0.0
 11
125.8541987157
 21
184.2004206755
 31
0.0
  0
LINE
  5
B0
330
1F
100
AcDbEntity
  8
0
  6
Continuous
 62
     7
370
    15
100
AcDbLine
 10
167.3541989988
 20
158.2004210704
 30
0.0
 11
167.3541989988
 21
167.4504209568
 31
0.0
  0
LINE
  5
B1
330
1F
100
AcDbEntity
  8
0
  6
Continuous
 62
     7
370
    15
100
AcDbLine
 10
126.3541978663
 20
169.9504209009
 30
0.0
 11
126.3541978663
 21
179.2004207873
 31
0.0
  0
LINE
  5
B2
330
1F
100
AcDbEntity
  8
0
  6
CENTERX2
 62
     7
100
AcDbLine
 10
232.2505213484
 20
159.4059472106
 30
0.0
 11
232.2505213484
 21
175.4059472106
 31
0.0
  0
LINE
  5
B3
330
1F
100
AcDbEntity
  8
0
  6
CENTERX2
 62
     7
100
AcDbLine
 10
235.7505213484
 20
159.4059472106
 30
0.0
 11
235.7505213484
 21
175.4059472106
 31
0.0
  0
LWPOLYLINE
  5
B4
330
1F
100
AcDbEntity
  8
0
  6
Continuous
 62
     7
100
AcDbPolyline
 90
       76
 70
   128
 43
0.0
 10
231.7126526103
 20
160.9914840696
 10
231.7592352907
 20
160.9889800631
 10
231.8068114125
 20
160.9814680439
 10
231.8543875343
 20
160.9689480119
 10
231.9024644574
 20
160.951419967
 10
231.9495397779
 20
160.9293847106
 10
231.994111092
 20
160.9033430439
 10
232.036679201
 20
160.8722933644
 10
232.0762425023
 20
160.8372372747
 10
232.1133017972
 20
160.7976739734
 10
232.1463546818
 20
160.7541042619
 10
232.1759019574
 20
160.7050257362
 10
232.2019436241
 20
160.6519408003
 10
232.2229772779
 20
160.5948494542
 10
232.2385021177
 20
160.5337516978
 10
232.2475165407
 20
160.4686475311
 10
232.2505213484
 20
160.3995369542
 10
232.2505213484
 20
160.3995369542
 10
232.2475165407
 20
160.329925576
 10
232.239002919
 20
160.2638198067
 10
232.2244796818
 20
160.2007188452
 10
232.2039468292
 20
160.1411234926
 10
232.1789067651
 20
160.0855345503
 10
232.1498602907
 20
160.0344528196
 10
232.1168074061
 20
159.9878783003
 10
232.0797481113
 20
159.9458109926
 10
232.0396840087
 20
159.9082508965
 10
231.997616701
 20
159.8751980119
 10
231.9525445856
 20
159.8466523388
 10
231.9054692651
 20
159.8226138773
 10
231.857392342
 20
159.8035834285
 10
231.809315419
 20
159.7905625952
 10
231.7607376946
 20
159.7820489734
 10
231.7126607715
 20
159.779544967
 10
231.7126607715
 20
159.779544967
 10
231.457752919
 20
159.779544967
 10
231.457752919
 20
159.779544967
 10
231.7126607715
 20
159.779544967
 10
231.7126607715
 20
159.779544967
 10
231.7607376946
 20
159.7820489734
 10
231.809315419
 20
159.7905625952
 10
231.857392342
 20
159.8035834285
 10
231.9054692651
 20
159.8226138773
 10
231.9525445856
 20
159.8466523388
 10
231.997616701
 20
159.8751980119
 10
232.0396840087
 20
159.9082508965
 10
232.0797481113
 20
159.9458109926
 10
232.1168074061
 20
159.9878783003
 10
232.1498602907
 20
160.0344528196
 10
232.1789067651
 20
160.0855345503
 10
232.2039468292
 20
160.1411234926
 10
232.2244796818
 20
160.2007188452
 10
232.239002919
 20
160.2638198067
 10
232.2475165407
 20
160.329925576
 10
232.2505213484
 20
160.3995369542
 10
232.2505213484
 20
160.3995369542
 10
232.2475165407
 20
160.4686475311
 10
232.2385021177
 20
160.5337516978
 10
232.2229772779
 20
160.5948494542
 10
232.2019436241
 20
160.6519408003
 10
232.1759019574
 20
160.7050257362
 10
232.1463546818
 20
160.7541042619
 10
232.1133017972
 20
160.7976739734
 10
232.0762425023
 20
160.8372372747
 10
232.036679201
 20
160.8722933644
 10
231.994111092
 20
160.9033430439
 10
231.9495397779
 20
160.9293847106
 10
231.9024644574
 20
160.951419967
 10
231.8543875343
 20
160.9689480119
 10
231.8068114125
 20
160.9814680439
 10
231.7592352907
 20
160.9889800631
 10
231.7126607715
 20
160.9914840696
 10
231.7126607715
 20
160.9914840696
 10
229.7825726305
 20
160.9949896785
 10
229.7825726305
 20
160.9949896785
 10
231.7126607715
 20
160.9914840696
  0
LWPOLYLINE
  5
B5
330
1F
100
AcDbEntity
  8
0
  6
Continuous
 62
     7
100
AcDbPolyline
 90
      204
 70
   128
 43
0.0
 10
231.6265089974
 20
161.791263717
 10
231.6941311241
 20
161.7942685247
 10
231.7587344895
 20
161.8032829478
 10
231.8208338484
 20
161.8188077875
 10
231.8799283997
 20
161.8398414414
 10
231.935517342
 20
161.8668847106
 10
231.9876006754
 20
161.8994367939
 10
232.0346759959
 20
161.9379984926
 10
232.0782457074
 20
161.9815682042
 10
232.1173082074
 20
162.0306467298
 10
232.1513626946
 20
162.0847332683
 10
232.1809099702
 20
162.1433270183
 10
232.2054492331
 20
162.2069287811
 10
232.2249804831
 20
162.2750377555
 10
232.2395037202
 20
162.3471531401
 10
232.2475165407
 20
162.4237757362
 10
232.2505213484
 20
162.5044047426
 10
232.2505213484
 20
162.5044047426
 10
232.248017342
 20
162.5855345503
 10
232.2415069254
 20
162.663158749
 10
232.2299884959
 20
162.7372773388
 10
232.2139628548
 20
162.8073895183
 10
232.1934300023
 20
162.8734952875
 10
232.1678891369
 20
162.9345930439
 10
232.1373402587
 20
162.9911835888
 10
232.1017833677
 20
163.0427661208
 10
232.0612184638
 20
163.0893406401
 10
232.0151447459
 20
163.1304063452
 10
231.9630614125
 20
163.1664640375
 10
231.9054692651
 20
163.1965121144
 10
231.8418675023
 20
163.2210513773
 10
231.7717553228
 20
163.2380786208
 10
231.6956335279
 20
163.2485954478
 10
231.6125005151
 20
163.2521010567
 10
231.6125005151
 20
163.2521010567
 10
231.528866701
 20
163.249096249
 10
231.4502408997
 20
163.2395810247
 10
231.3771239125
 20
163.2235553837
 10
231.3095157395
 20
163.2015201273
 10
231.2464147779
 20
163.1734752555
 10
231.1888226305
 20
163.1384191657
 10
231.1367392972
 20
163.0973534606
 10
231.0896639766
 20
163.0502781401
 10
231.0480974702
 20
162.9961916016
 10
231.0120397779
 20
162.9340922426
 10
230.9814908997
 20
162.8639800631
 10
230.9569516369
 20
162.7858550631
 10
230.9374203869
 20
162.7002180439
 10
230.923397951
 20
162.6065682042
 10
230.9153851305
 20
162.5049055439
 10
230.9123803228
 20
162.3957308644
 10
230.9123803228
 20
162.3957308644
 10
230.9098763164
 20
162.5034031401
 10
230.9018634959
 20
162.6025617939
 10
230.8888426625
 20
162.6922052234
 10
230.8708138164
 20
162.7728342298
 10
230.8477769574
 20
162.8449496144
 10
230.8207336882
 20
162.9100537811
 10
230.7886824061
 20
162.9671451273
 10
230.7521239125
 20
163.0167244542
 10
230.7115590087
 20
163.0592925631
 10
230.6674884959
 20
163.0953502555
 10
230.6204131754
 20
163.1248975311
 10
230.5693314446
 20
163.1479343901
 10
230.5157457074
 20
163.1654624349
 10
230.4596559638
 20
163.177982467
 10
230.4010622138
 20
163.1854944862
 10
230.3399644574
 20
163.1879984926
 10
230.3399644574
 20
163.1879984926
 10
230.278866701
 20
163.1859952875
 10
230.220272951
 20
163.1794848708
 10
230.1636824061
 20
163.1684672426
 10
230.1090950664
 20
163.1534432042
 10
230.0575125343
 20
163.1339119542
 10
230.00893481
 20
163.1088718901
 10
229.9633618933
 20
163.0793246144
 10
229.9212945856
 20
163.0442685247
 10
229.8832336882
 20
163.0042044221
 10
229.849179201
 20
162.9581307042
 10
229.8201327266
 20
162.9055465696
 10
229.7950926625
 20
162.8469528196
 10
229.7755614125
 20
162.7823494542
 10
229.7615389766
 20
162.7107348708
 10
229.7535261561
 20
162.6326098708
 10
229.7505213484
 20
162.5479744542
 10
229.7505213484
 20
162.5479744542
 10
229.7535261561
 20
162.4623374349
 10
229.7635421818
 20
162.3832108324
 10
229.7795678228
 20
162.3090922426
 10
229.8021038805
 20
162.2414840696
 10
229.8301487523
 20
162.1793847106
 10
229.8622000343
 20
162.1227941657
 10
229.8982577266
 20
162.0722132362
 10
229.9383218292
 20
162.0266403196
 10
229.982392342
 20
161.9870770183
 10
230.0304692651
 20
161.9525217298
 10
230.0815509959
 20
161.9229744542
 10
230.1366391369
 20
161.8984351914
 10
230.1942312843
 20
161.8794047426
 10
230.2528250343
 20
161.8663839093
 10
230.3129211882
 20
161.8578702875
 10
230.3745197459
 20
161.8553662811
 10
230.3745197459
 20
161.8553662811
 10
230.3129211882
 20
161.8578702875
 10
230.2528250343
 20
161.8663839093
 10
230.1942312843
 20
161.8794047426
 10
230.1366391369
 20
161.8984351914
 10
230.0815509959
 20
161.9229744542
 10
230.0304692651
 20
161.9525217298
 10
229.982392342
 20
161.9870770183
 10
229.9383218292
 20
162.0266403196
 10
229.8982577266
 20
162.0722132362
 10
229.8622000343
 20
162.1227941657
 10
229.8301487523
 20
162.1793847106
 10
229.8021038805
 20
162.2414840696
 10
229.7795678228
 20
162.3090922426
 10
229.7635421818
 20
162.3832108324
 10
229.7535261561
 20
162.4623374349
 10
229.7505213484
 20
162.5479744542
 10
229.7505213484
 20
162.5479744542
 10
229.7535261561
 20
162.6326098708
 10
229.7615389766
 20
162.7107348708
 10
229.7755614125
 20
162.7823494542
 10
229.7950926625
 20
162.8469528196
 10
229.8201327266
 20
162.9055465696
 10
229.849179201
 20
162.9581307042
 10
229.8832336882
 20
163.0042044221
 10
229.9212945856
 20
163.0442685247
 10
229.9633618933
 20
163.0793246144
 10
230.00893481
 20
163.1088718901
 10
230.0575125343
 20
163.1339119542
 10
230.1090950664
 20
163.1534432042
 10
230.1636824061
 20
163.1684672426
 10
230.220272951
 20
163.1794848708
 10
230.278866701
 20
163.1859952875
 10
230.3399644574
 20
163.1879984926
 10
230.3399644574
 20
163.1879984926
 10
230.4010622138
 20
163.1854944862
 10
230.4596559638
 20
163.177982467
 10
230.5157457074
 20
163.1654624349
 10
230.5693314446
 20
163.1479343901
 10
230.6204131754
 20
163.1248975311
 10
230.6674884959
 20
163.0953502555
 10
230.7115590087
 20
163.0592925631
 10
230.7521239125
 20
163.0167244542
 10
230.7886824061
 20
162.9671451273
 10
230.8207336882
 20
162.9100537811
 10
230.8477769574
 20
162.8449496144
 10
230.8708138164
 20
162.7728342298
 10
230.8888426625
 20
162.6922052234
 10
230.9018634959
 20
162.6025617939
 10
230.9098763164
 20
162.5034031401
 10
230.9123803228
 20
162.3957308644
 10
230.9123803228
 20
162.3957308644
 10
230.9153851305
 20
162.5049055439
 10
230.923397951
 20
162.6065682042
 10
230.9374203869
 20
162.7002180439
 10
230.9569516369
 20
162.7858550631
 10
230.9814908997
 20
162.8639800631
 10
231.0120397779
 20
162.9340922426
 10
231.0480974702
 20
162.9961916016
 10
231.0896639766
 20
163.0502781401
 10
231.1367392972
 20
163.0973534606
 10
231.1888226305
 20
163.1384191657
 10
231.2464147779
 20
163.1734752555
 10
231.3095157395
 20
163.2015201273
 10
231.3771239125
 20
163.2235553837
 10
231.4502408997
 20
163.2395810247
 10
231.528866701
 20
163.249096249
 10
231.6125005151
 20
163.2521010567
 10
231.6125005151
 20
163.2521010567
 10
231.6956335279
 20
163.2485954478
 10
231.7717553228
 20
163.2380786208
 10
231.8418675023
 20
163.2210513773
 10
231.9054692651
 20
163.1965121144
 10
231.9630614125
 20
163.1664640375
 10
232.0151447459
 20
163.1304063452
 10
232.0612184638
 20
163.0893406401
 10
232.1017833677
 20
163.0427661208
 10
232.1373402587
 20
162.9911835888
 10
232.1678891369
 20
162.9345930439
 10
232.1934300023
 20
162.8734952875
 10
232.2139628548
 20
162.8073895183
 10
232.2299884959
 20
162.7372773388
 10
232.2415069254
 20
162.663158749
 10
232.248017342
 20
162.5855345503
 10
232.2505213484
 20
162.5044047426
 10
232.2505213484
 20
162.5044047426
 10
232.2475165407
 20
162.4237757362
 10
232.2395037202
 20
162.3471531401
 10
232.2249804831
 20
162.2750377555
 10
232.2054492331
 20
162.2069287811
 10
232.1809099702
 20
162.1433270183
 10
232.1513626946
 20
162.0847332683
 10
232.1173082074
 20
162.0306467298
 10
232.0782457074
 20
161.9815682042
 10
232.0346759959
 20
161.9379984926
 10
231.9876006754
 20
161.8994367939
 10
231.935517342
 20
161.8668847106
 10
231.8799283997
 20
161.8398414414
 10
231.8208338484
 20
161.8188077875
 10
231.7587344895
 20
161.8032829478
 10
231.6941311241
 20
161.7942685247
 10
231.626522951
 20
161.791263717
  0
LWPOLYLINE
  5
B6
330
1F
100
AcDbEntity
  8
0
  6
Continuous
 62
     7
100
AcDbPolyline
 90
       83
 70
   128
 43
0.0
 10
235.7825620637
 20
160.8808069862
 10
235.7785662202
 20
160.7681266978
 10
235.7655453869
 20
160.6594528196
 10
235.7445117331
 20
160.5542845503
 10
235.7144636561
 20
160.4526218901
 10
235.6754011561
 20
160.3564680439
 10
235.6258218292
 20
160.2658230119
 10
235.5657256754
 20
160.1816883965
 10
235.4951126946
 20
160.1030625952
 10
235.4134820856
 20
160.0319488131
 10
235.3198322459
 20
159.9688478516
 10
235.2146639766
 20
159.9132589093
 10
235.0969756754
 20
159.8661835888
 10
235.0333739125
 20
159.8456507362
 10
234.9662665407
 20
159.8281226914
 10
234.89565356
 20
159.8135994542
 10
234.8215349702
 20
159.8010794221
 10
234.7434099702
 20
159.7915641978
 10
234.6617793613
 20
159.7850537811
 10
234.5766431433
 20
159.7810473708
 10
234.4880013164
 20
159.779544967
 10
234.4880013164
 20
159.779544967
 10
234.3998602907
 20
159.7810473708
 10
234.3157256754
 20
159.7850537811
 10
234.2345958677
 20
159.7915641978
 10
234.156971669
 20
159.8010794221
 10
234.0828530792
 20
159.8135994542
 10
234.0117392972
 20
159.8281226914
 10
233.9446319254
 20
159.8456507362
 10
233.8805293613
 20
159.8661835888
 10
233.7618394574
 20
159.9132589093
 10
233.6551687843
 20
159.9688478516
 10
233.5600165407
 20
160.0319488131
 10
233.4768835279
 20
160.1030625952
 10
233.4047681433
 20
160.1816883965
 10
233.3436703869
 20
160.2658230119
 10
233.2935902587
 20
160.3564680439
 10
233.2540269574
 20
160.4526218901
 10
233.2244796818
 20
160.5542845503
 10
233.2034460279
 20
160.6594528196
 10
233.1904251946
 20
160.7681266978
 10
233.1864187843
 20
160.8808069862
 10
233.1864187843
 20
160.8808069862
 10
233.1904251946
 20
160.9929864734
 10
233.2034460279
 20
161.1016603516
 10
233.2244796818
 20
161.2068286208
 10
233.2540269574
 20
161.3079904798
 10
233.2935902587
 20
161.4046451273
 10
233.3436703869
 20
161.4952901593
 10
233.4047681433
 20
161.5794247747
 10
233.4768835279
 20
161.6575497747
 10
233.5600165407
 20
161.729164358
 10
233.6551687843
 20
161.7922653196
 10
233.7618394574
 20
161.8478542619
 10
233.8805293613
 20
161.8949295824
 10
233.9446319254
 20
161.9154624349
 10
234.0117392972
 20
161.9329904798
 10
234.0828530792
 20
161.947513717
 10
234.156971669
 20
161.960033749
 10
234.2345958677
 20
161.9695489734
 10
234.3157256754
 20
161.9760593901
 10
234.3998602907
 20
161.9800658003
 10
234.4880013164
 20
161.9815682042
 10
234.4880013164
 20
161.9815682042
 10
234.5766431433
 20
161.9800658003
 10
234.6617793613
 20
161.9760593901
 10
234.7434099702
 20
161.9695489734
 10
234.8215349702
 20
161.960033749
 10
234.89565356
 20
161.947513717
 10
234.9662665407
 20
161.9329904798
 10
235.0333739125
 20
161.9154624349
 10
235.0969756754
 20
161.8949295824
 10
235.2146639766
 20
161.8478542619
 10
235.3198322459
 20
161.7922653196
 10
235.4134820856
 20
161.729164358
 10
235.4951126946
 20
161.6575497747
 10
235.5657256754
 20
161.5794247747
 10
235.6258218292
 20
161.4952901593
 10
235.6754011561
 20
161.4046451273
 10
235.7144636561
 20
161.3079904798
 10
235.7445117331
 20
161.2068286208
 10
235.7655453869
 20
161.1016603516
 10
235.7785662202
 20
160.9929864734
  0
LWPOLYLINE
  5
B7
330
1F
100
AcDbEntity
  8
0
  6
Continuous
 62
     7
100
AcDbPolyline
 90
       84
 70
   128
 43
0.0
 10
235.7825620637
 20
160.8808069862
 10
235.7785662202
 20
160.7681266978
 10
235.7655453869
 20
160.6594528196
 10
235.7445117331
 20
160.5542845503
 10
235.7144636561
 20
160.4526218901
 10
235.6754011561
 20
160.3564680439
 10
235.6258218292
 20
160.2658230119
 10
235.5657256754
 20
160.1816883965
 10
235.4951126946
 20
160.1030625952
 10
235.4134820856
 20
160.0319488131
 10
235.3198322459
 20
159.9688478516
 10
235.2146639766
 20
159.9132589093
 10
235.0969756754
 20
159.8661835888
 10
235.0333739125
 20
159.8456507362
 10
234.9662665407
 20
159.8281226914
 10
234.89565356
 20
159.8135994542
 10
234.8215349702
 20
159.8010794221
 10
234.7434099702
 20
159.7915641978
 10
234.6617793613
 20
159.7850537811
 10
234.5766431433
 20
159.7810473708
 10
234.4880013164
 20
159.779544967
 10
234.4880013164
 20
159.779544967
 10
234.3998602907
 20
159.7810473708
 10
234.3157256754
 20
159.7850537811
 10
234.2345958677
 20
159.7915641978
 10
234.156971669
 20
159.8010794221
 10
234.0828530792
 20
159.8135994542
 10
234.0117392972
 20
159.8281226914
 10
233.9446319254
 20
159.8456507362
 10
233.8805293613
 20
159.8661835888
 10
233.7618394574
 20
159.9132589093
 10
233.6551687843
 20
159.9688478516
 10
233.5600165407
 20
160.0319488131
 10
233.4768835279
 20
160.1030625952
 10
233.4047681433
 20
160.1816883965
 10
233.3436703869
 20
160.2658230119
 10
233.2935902587
 20
160.3564680439
 10
233.2540269574
 20
160.4526218901
 10
233.2244796818
 20
160.5542845503
 10
233.2034460279
 20
160.6594528196
 10
233.1904251946
 20
160.7681266978
 10
233.1864187843
 20
160.8808069862
 10
233.1864187843
 20
160.8808069862
 10
233.1904251946
 20
160.9929864734
 10
233.2034460279
 20
161.1016603516
 10
233.2244796818
 20
161.2068286208
 10
233.2540269574
 20
161.3079904798
 10
233.2935902587
 20
161.4046451273
 10
233.3436703869
 20
161.4952901593
 10
233.4047681433
 20
161.5794247747
 10
233.4768835279
 20
161.6575497747
 10
233.5600165407
 20
161.729164358
 10
233.6551687843
 20
161.7922653196
 10
233.7618394574
 20
161.8478542619
 10
233.8805293613
 20
161.8949295824
 10
233.9446319254
 20
161.9154624349
 10
234.0117392972
 20
161.9329904798
 10
234.0828530792
 20
161.947513717
 10
234.156971669
 20
161.960033749
 10
234.2345958677
 20
161.9695489734
 10
234.3157256754
 20
161.9760593901
 10
234.3998602907
 20
161.9800658003
 10
234.4880013164
 20
161.9815682042
 10
234.4880013164
 20
161.9815682042
 10
234.5766431433
 20
161.9800658003
 10
234.6617793613
 20
161.9760593901
 10
234.7434099702
 20
161.9695489734
 10
234.8215349702
 20
161.960033749
 10
234.89565356
 20
161.947513717
 10
234.9662665407
 20
161.9329904798
 10
235.0333739125
 20
161.9154624349
 10
235.0969756754
 20
161.8949295824
 10
235.2146639766
 20
161.8478542619
 10
235.3198322459
 20
161.7922653196
 10
235.4134820856
 20
161.729164358
 10
235.4951126946
 20
161.6575497747
 10
235.5657256754
 20
161.5794247747
 10
235.6258218292
 20
161.4952901593
 10
235.6754011561
 20
161.4046451273
 10
235.7144636561
 20
161.3079904798
 10
235.7445117331
 20
161.2068286208
 10
235.7655453869
 20
161.1016603516
 10
235.7785662202
 20
160.9929864734
 10
235.7825726305
 20
160.8808069862
  0
LWPOLYLINE
  5
B8
330
1F
100
AcDbEntity
  8
0
  6
Continuous
 62
     7
100
AcDbPolyline
 90
       12
 70
   128
 43
0.0
 10
233.2505120501
 20
163.1985153196
 10
235.7505213484
 20
164.9778622747
 10
235.7505213484
 20
164.9778622747
 10
233.2505213484
 20
164.9778622747
 10
233.2505213484
 20
164.9778622747
 10
235.7505213484
 20
164.9778622747
 10
235.7505213484
 20
164.9778622747
 10
233.2505213484
 20
163.1985153196
 10
233.2505213484
 20
163.1985153196
 10
235.7505213484
 20
163.1985153196
 10
235.7505213484
 20
163.1985153196
 10
233.2505213484
 20
163.1985153196
  0
LWPOLYLINE
  5
B9
330
1F
100
AcDbEntity
  8
0
  6
Continuous
 62
     7
100
AcDbPolyline
 90
       83
 70
   128
 43
0.0
 10
235.7825620637
 20
167.3231146785
 10
235.7785662202
 20
167.2104343901
 10
235.7655453869
 20
167.1017605119
 10
235.7445117331
 20
166.9965922426
 10
235.7144636561
 20
166.8949295824
 10
235.6754011561
 20
166.7987757362
 10
235.6258218292
 20
166.7081307042
 10
235.5657256754
 20
166.6239960888
 10
235.4951126946
 20
166.5453702875
 10
235.4134820856
 20
166.4742565055
 10
235.3198322459
 20
166.4111555439
 10
235.2146639766
 20
166.3555666016
 10
235.0969756754
 20
166.3084912811
 10
235.0333739125
 20
166.2879584285
 10
234.9662665407
 20
166.2704303837
 10
234.89565356
 20
166.2559071465
 10
234.8215349702
 20
166.2433871144
 10
234.7434099702
 20
166.2338718901
 10
234.6617793613
 20
166.2273614734
 10
234.5766431433
 20
166.2233550631
 10
234.4880013164
 20
166.2218526593
 10
234.4880013164
 20
166.2218526593
 10
234.3998602907
 20
166.2233550631
 10
234.3157256754
 20
166.2273614734
 10
234.2345958677
 20
166.2338718901
 10
234.156971669
 20
166.2433871144
 10
234.0828530792
 20
166.2559071465
 10
234.0117392972
 20
166.2704303837
 10
233.9446319254
 20
166.2879584285
 10
233.8805293613
 20
166.3084912811
 10
233.7618394574
 20
166.3555666016
 10
233.6551687843
 20
166.4111555439
 10
233.5600165407
 20
166.4742565055
 10
233.4768835279
 20
166.5453702875
 10
233.4047681433
 20
166.6239960888
 10
233.3436703869
 20
166.7081307042
 10
233.2935902587
 20
166.7987757362
 10
233.2540269574
 20
166.8949295824
 10
233.2244796818
 20
166.9965922426
 10
233.2034460279
 20
167.1017605119
 10
233.1904251946
 20
167.2104343901
 10
233.1864187843
 20
167.3231146785
 10
233.1864187843
 20
167.3231146785
 10
233.1904251946
 20
167.4352941657
 10
233.2034460279
 20
167.5439680439
 10
233.2244796818
 20
167.6491363131
 10
233.2540269574
 20
167.7502981721
 10
233.2935902587
 20
167.8469528196
 10
233.3436703869
 20
167.9375978516
 10
233.4047681433
 20
168.021732467
 10
233.4768835279
 20
168.099857467
 10
233.5600165407
 20
168.1714720503
 10
233.6551687843
 20
168.2345730119
 10
233.7618394574
 20
168.2901619542
 10
233.8805293613
 20
168.3372372747
 10
233.9446319254
 20
168.3577701273
 10
234.0117392972
 20
168.3752981721
 10
234.0828530792
 20
168.3898214093
 10
234.156971669
 20
168.4023414414
 10
234.2345958677
 20
168.4118566657
 10
234.3157256754
 20
168.4183670824
 10
234.3998602907
 20
168.4223734926
 10
234.4880013164
 20
168.4238758965
 10
234.4880013164
 20
168.4238758965
 10
234.5766431433
 20
168.4223734926
 10
234.6617793613
 20
168.4183670824
 10
234.7434099702
 20
168.4118566657
 10
234.8215349702
 20
168.4023414414
 10
234.89565356
 20
168.3898214093
 10
234.9662665407
 20
168.3752981721
 10
235.0333739125
 20
168.3577701273
 10
235.0969756754
 20
168.3372372747
 10
235.2146639766
 20
168.2901619542
 10
235.3198322459
 20
168.2345730119
 10
235.4134820856
 20
168.1714720503
 10
235.4951126946
 20
168.099857467
 10
235.5657256754
 20
168.021732467
 10
235.6258218292
 20
167.9375978516
 10
235.6754011561
 20
167.8469528196
 10
235.7144636561
 20
167.7502981721
 10
235.7445117331
 20
167.6491363131
 10
235.7655453869
 20
167.5439680439
 10
235.7785662202
 20
167.4352941657
  0
LWPOLYLINE
  5
BA
330
1F
100
AcDbEntity
  8
0
  6
Continuous
 62
     7
100
AcDbPolyline
 90
       84
 70
   128
 43
0.0
 10
235.7825620637
 20
167.3231146785
 10
235.7785662202
 20
167.2104343901
 10
235.7655453869
 20
167.1017605119
 10
235.7445117331
 20
166.9965922426
 10
235.7144636561
 20
166.8949295824
 10
235.6754011561
 20
166.7987757362
 10
235.6258218292
 20
166.7081307042
 10
235.5657256754
 20
166.6239960888
 10
235.4951126946
 20
166.5453702875
 10
235.4134820856
 20
166.4742565055
 10
235.3198322459
 20
166.4111555439
 10
235.2146639766
 20
166.3555666016
 10
235.0969756754
 20
166.3084912811
 10
235.0333739125
 20
166.2879584285
 10
234.9662665407
 20
166.2704303837
 10
234.89565356
 20
166.2559071465
 10
234.8215349702
 20
166.2433871144
 10
234.7434099702
 20
166.2338718901
 10
234.6617793613
 20
166.2273614734
 10
234.5766431433
 20
166.2233550631
 10
234.4880013164
 20
166.2218526593
 10
234.4880013164
 20
166.2218526593
 10
234.3998602907
 20
166.2233550631
 10
234.3157256754
 20
166.2273614734
 10
234.2345958677
 20
166.2338718901
 10
234.156971669
 20
166.2433871144
 10
234.0828530792
 20
166.2559071465
 10
234.0117392972
 20
166.2704303837
 10
233.9446319254
 20
166.2879584285
 10
233.8805293613
 20
166.3084912811
 10
233.7618394574
 20
166.3555666016
 10
233.6551687843
 20
166.4111555439
 10
233.5600165407
 20
166.4742565055
 10
233.4768835279
 20
166.5453702875
 10
233.4047681433
 20
166.6239960888
 10
233.3436703869
 20
166.7081307042
 10
233.2935902587
 20
166.7987757362
 10
233.2540269574
 20
166.8949295824
 10
233.2244796818
 20
166.9965922426
 10
233.2034460279
 20
167.1017605119
 10
233.1904251946
 20
167.2104343901
 10
233.1864187843
 20
167.3231146785
 10
233.1864187843
 20
167.3231146785
 10
233.1904251946
 20
167.4352941657
 10
233.2034460279
 20
167.5439680439
 10
233.2244796818
 20
167.6491363131
 10
233.2540269574
 20
167.7502981721
 10
233.2935902587
 20
167.8469528196
 10
233.3436703869
 20
167.9375978516
 10
233.4047681433
 20
168.021732467
 10
233.4768835279
 20
168.099857467
 10
233.5600165407
 20
168.1714720503
 10
233.6551687843
 20
168.2345730119
 10
233.7618394574
 20
168.2901619542
 10
233.8805293613
 20
168.3372372747
 10
233.9446319254
 20
168.3577701273
 10
234.0117392972
 20
168.3752981721
 10
234.0828530792
 20
168.3898214093
 10
234.156971669
 20
168.4023414414
 10
234.2345958677
 20
168.4118566657
 10
234.3157256754
 20
168.4183670824
 10
234.3998602907
 20
168.4223734926
 10
234.4880013164
 20
168.4238758965
 10
234.4880013164
 20
168.4238758965
 10
234.5766431433
 20
168.4223734926
 10
234.6617793613
 20
168.4183670824
 10
234.7434099702
 20
168.4118566657
 10
234.8215349702
 20
168.4023414414
 10
234.89565356
 20
168.3898214093
 10
234.9662665407
 20
168.3752981721
 10
235.0333739125
 20
168.3577701273
 10
235.0969756754
 20
168.3372372747
 10
235.2146639766
 20
168.2901619542
 10
235.3198322459
 20
168.2345730119
 10
235.4134820856
 20
168.1714720503
 10
235.4951126946
 20
168.099857467
 10
235.5657256754
 20
168.021732467
 10
235.6258218292
 20
167.9375978516
 10
235.6754011561
 20
167.8469528196
 10
235.7144636561
 20
167.7502981721
 10
235.7445117331
 20
167.6491363131
 10
235.7655453869
 20
167.5439680439
 10
235.7785662202
 20
167.4352941657
 10
235.7825726305
 20
167.3231146785
  0
LWPOLYLINE
  5
BB
330
1F
100
AcDbEntity
  8
0
  6
Continuous
 62
     7
100
AcDbPolyline
 90
        8
 70
   128
 43
0.0
 10
235.7505096659
 20
171.9044448067
 10
233.2505213484
 20
170.9974936849
 10
233.2505213484
 20
170.9974936849
 10
235.7505213484
 20
171.9044448067
 10
235.7505213484
 20
171.9044448067
 10
233.2505213484
 20
172.8113959285
 10
233.2505213484
 20
172.8113959285
 10
235.7505213484
 20
171.9044448067
  0
LWPOLYLINE
  5
BC
330
1F
100
AcDbEntity
  8
0
  6
Continuous
 62
     7
100
AcDbPolyline
 90
      128
 70
   128
 43
0.0
 10
235.7505096659
 20
173.6577500952
 10
235.6583739125
 20
173.6622573067
 10
235.5742392972
 20
173.6727741337
 10
235.4971158997
 20
173.689300576
 10
235.4280053228
 20
173.7113358324
 10
235.3649043613
 20
173.7383791016
 10
235.30580981
 20
173.7694287811
 10
235.2512224702
 20
173.8034832683
 10
235.2001407395
 20
173.8415441657
 10
235.153065419
 20
173.8826098708
 10
235.1084941048
 20
173.9266803837
 10
235.0674283997
 20
173.9737557042
 10
235.0293675023
 20
174.0233350311
 10
234.9562505151
 20
174.1275016978
 10
234.8831335279
 20
174.236175576
 10
234.8831335279
 20
174.236175576
 10
234.4859981113
 20
174.8281226914
 10
234.4859981113
 20
174.8281226914
 10
234.4539468292
 20
174.8716924029
 10
234.419892342
 20
174.9102541016
 10
234.384335451
 20
174.9428061849
 10
234.3467753548
 20
174.9698494542
 10
234.2686503548
 20
175.0119167619
 10
234.1865189446
 20
175.0409632362
 10
234.1018835279
 20
175.0589920824
 10
234.0142433036
 20
175.0670049029
 10
233.9261022779
 20
175.0695089093
 10
233.8384620536
 20
175.0705105119
 10
233.8384620536
 20
175.0705105119
 10
233.7933899382
 20
175.0685073067
 10
233.7463146177
 20
175.0624976914
 10
233.6957336882
 20
175.052982467
 10
233.6431495536
 20
175.0389600311
 10
233.5900646177
 20
175.0209311849
 10
233.5389828869
 20
174.9973935247
 10
233.48940356
 20
174.9688478516
 10
233.4413266369
 20
174.9352941657
 10
233.3962545215
 20
174.8957308644
 10
233.3546880151
 20
174.8501579478
 10
233.3166271177
 20
174.7980746144
 10
233.2825726305
 20
174.7394808644
 10
233.2545277587
 20
174.6743766978
 10
233.2344957074
 20
174.6017605119
 10
233.2224764766
 20
174.5211315055
 10
233.2184700664
 20
174.4334912811
 10
233.2184700664
 20
174.4334912811
 10
233.2224764766
 20
174.3438478516
 10
233.2339949061
 20
174.2612156401
 10
233.2535261561
 20
174.1860954478
 10
233.2810702266
 20
174.1184872747
 10
233.3151247138
 20
174.0573895183
 10
233.3536864125
 20
174.001800576
 10
233.3977569254
 20
173.952221249
 10
233.4463346497
 20
173.9086515375
 10
233.4994195856
 20
173.8710914414
 10
233.5560101305
 20
173.838539358
 10
233.6156054831
 20
173.8119968901
 10
233.6782056433
 20
173.7909632362
 10
233.7428090087
 20
173.7754383965
 10
233.8074123741
 20
173.763919967
 10
233.8715149382
 20
173.7574095503
 10
233.9361183036
 20
173.7549055439
 10
233.9361183036
 20
173.7549055439
 10
233.8715149382
 20
173.7574095503
 10
233.8074123741
 20
173.763919967
 10
233.7428090087
 20
173.7754383965
 10
233.6782056433
 20
173.7909632362
 10
233.6156054831
 20
173.8119968901
 10
233.5560101305
 20
173.838539358
 10
233.4994195856
 20
173.8710914414
 10
233.4463346497
 20
173.9086515375
 10
233.3977569254
 20
173.952221249
 10
233.3536864125
 20
174.001800576
 10
233.3151247138
 20
174.0573895183
 10
233.2810702266
 20
174.1184872747
 10
233.2535261561
 20
174.1860954478
 10
233.2339949061
 20
174.2612156401
 10
233.2224764766
 20
174.3438478516
 10
233.2184700664
 20
174.4334912811
 10
233.2184700664
 20
174.4334912811
 10
233.2224764766
 20
174.5211315055
 10
233.2344957074
 20
174.6017605119
 10
233.2545277587
 20
174.6743766978
 10
233.2825726305
 20
174.7394808644
 10
233.3166271177
 20
174.7980746144
 10
233.3546880151
 20
174.8501579478
 10
233.3962545215
 20
174.8957308644
 10
233.4413266369
 20
174.9352941657
 10
233.48940356
 20
174.9688478516
 10
233.5389828869
 20
174.9973935247
 10
233.5900646177
 20
175.0209311849
 10
233.6431495536
 20
175.0389600311
 10
233.6957336882
 20
175.052982467
 10
233.7463146177
 20
175.0624976914
 10
233.7933899382
 20
175.0685073067
 10
233.8384620536
 20
175.0705105119
 10
233.8384620536
 20
175.0705105119
 10
233.9261022779
 20
175.0695089093
 10
234.0142433036
 20
175.0670049029
 10
234.1018835279
 20
175.0589920824
 10
234.1865189446
 20
175.0409632362
 10
234.2686503548
 20
175.0119167619
 10
234.3467753548
 20
174.9698494542
 10
234.384335451
 20
174.9428061849
 10
234.419892342
 20
174.9102541016
 10
234.4539468292
 20
174.8716924029
 10
234.4859981113
 20
174.8281226914
 10
234.4859981113
 20
174.8281226914
 10
234.8831335279
 20
174.236175576
 10
234.8831335279
 20
174.236175576
 10
234.9562505151
 20
174.1275016978
 10
235.0293675023
 20
174.0233350311
 10
235.0674283997
 20
173.9737557042
 10
235.1084941048
 20
173.9266803837
 10
235.153065419
 20
173.8826098708
 10
235.2001407395
 20
173.8415441657
 10
235.2512224702
 20
173.8034832683
 10
235.30580981
 20
173.7694287811
 10
235.3649043613
 20
173.7383791016
 10
235.4280053228
 20
173.7113358324
 10
235.4971158997
 20
173.689300576
 10
235.5742392972
 20
173.6727741337
 10
235.6583739125
 20
173.6622573067
 10
235.7505213484
 20
173.6577500952
 10
235.7505213484
 20
173.6577500952
 10
235.7505213484
 20
175.1431266978
 10
235.7505213484
 20
175.1431266978
 10
235.7505213484
 20
173.6577500952
  0
LINE
  5
BD
330
1F
100
AcDbEntity
  8
0
  6
Continuous
 62
     7
370
    15
100
AcDbLine
 10
192.7505213484
 20
182.4059472106
 30
0.0
 11
192.7505213484
 21
179.4059472106
 31
0.0
  0
LINE
  5
BE
330
1F
100
AcDbEntity
  8
0
  6
Continuous
 62
     7
370
    15
100
AcDbLine
 10
192.7505213484
 20
179.4059472106
 30
0.0
 11
189.7505213484
 21
179.4059472106
 31
0.0
  0
LINE
  5
BF
330
1F
100
AcDbEntity
  8
0
  6
Continuous
 62
     7
370
    15
100
AcDbLine
 10
189.7505213484
 20
179.4059472106
 30
0.0
 11
189.7505213484
 21
176.4059472106
 31
0.0
  0
LINE
  5
C0
330
1F
100
AcDbEntity
  8
0
  6
Continuous
 62
     7
370
    15
100
AcDbLine
 10
189.7505213484
 20
176.4059472106
 30
0.0
 11
192.7505213484
 21
176.4059472106
 31
0.0
  0
LINE
  5
C1
330
1F
100
AcDbEntity
  8
0
  6
Continuous
 62
     7
370
    15
100
AcDbLine
 10
192.7505213484
 20
176.4059472106
 30
0.0
 11
192.7505213484
 21
158.4059472106
 31
0.0
  0
LINE
  5
C2
330
1F
100
AcDbEntity
  8
0
  6
Continuous
 62
     7
370
    15
100
AcDbLine
 10
192.7505213484
 20
158.4059472106
 30
0.0
 11
189.7505213484
 21
158.4059472106
 31
0.0
  0
LINE
  5
C3
330
1F
100
AcDbEntity
  8
0
  6
Continuous
 62
     7
370
    15
100
AcDbLine
 10
189.7505213484
 20
158.4059472106
 30
0.0
 11
189.7505213484
 21
155.4059472106
 31
0.0
  0
LINE
  5
C4
330
1F
100
AcDbEntity
  8
0
  6
Continuous
 62
     7
370
    15
100
AcDbLine
 10
189.7505213484
 20
155.4059472106
 30
0.0
 11
192.7505213484
 21
155.4059472106
 31
0.0
  0
LINE
  5
C5
330
1F
100
AcDbEntity
  8
0
  6
Continuous
 62
     7
370
    15
100
AcDbLine
 10
192.7505213484
 20
155.4059472106
 30
0.0
 11
192.7505213484
 21
152.4059472106
 31
0.0
  0
LINE
  5
C6
330
1F
100
AcDbEntity
  8
0
  6
Continuous
 62
     7
370
    15
100
AcDbLine
 10
192.7505213484
 20
152.4059472106
 30
0.0
 11
195.7505213484
 21
152.4059472106
 31
0.0
  0
LINE
  5
C7
330
1F
100
AcDbEntity
  8
0
  6
Continuous
 62
     7
370
    15
100
AcDbLine
 10
195.7505213484
 20
152.4059472106
 30
0.0
 11
195.7505213484
 21
155.4059472106
 31
0.0
  0
LINE
  5
C8
330
1F
100
AcDbEntity
  8
0
  6
Continuous
 62
     7
370
    15
100
AcDbLine
 10
195.7505213484
 20
155.4059472106
 30
0.0
 11
213.7505213484
 21
155.4059472106
 31
0.0
  0
LINE
  5
C9
330
1F
100
AcDbEntity
  8
0
  6
Continuous
 62
     7
370
    15
100
AcDbLine
 10
213.7505213484
 20
155.4059472106
 30
0.0
 11
213.7505213484
 21
152.4059472106
 31
0.0
  0
LINE
  5
CA
330
1F
100
AcDbEntity
  8
0
  6
Continuous
 62
     7
370
    15
100
AcDbLine
 10
213.7505213484
 20
152.4059472106
 30
0.0
 11
216.7505213484
 21
152.4059472106
 31
0.0
  0
LINE
  5
CB
330
1F
100
AcDbEntity
  8
0
  6
Continuous
 62
     7
370
    15
100
AcDbLine
 10
216.7505213484
 20
152.4059472106
 30
0.0
 11
216.7505213484
 21
155.4059472106
 31
0.0
  0
LINE
  5
CC
330
1F
100
AcDbEntity
  8
0
  6
Continuous
 62
     7
370
    15
100
AcDbLine
 10
216.7505213484
 20
155.4059472106
 30
0.0
 11
219.7505213484
 21
155.4059472106
 31
0.0
  0
LINE
  5
CD
330
1F
100
AcDbEntity
  8
0
  6
Continuous
 62
     7
370
    15
100
AcDbLine
 10
219.7505213484
 20
155.4059472106
 30
0.0
 11
219.7505213484
 21
158.4059472106
 31
0.0
  0
LINE
  5
CE
330
1F
100
AcDbEntity
  8
0
  6
Continuous
 62
     7
370
    15
100
AcDbLine
 10
219.7505213484
 20
158.4059472106
 30
0.0
 11
216.7505213484
 21
158.4059472106
 31
0.0
  0
LINE
  5
CF
330
1F
100
AcDbEntity
  8
0
  6
Continuous
 62
     7
370
    15
100
AcDbLine
 10
216.7505213484
 20
158.4059472106
 30
0.0
 11
216.7505213484
 21
176.4059472106
 31
0.0
  0
LINE
  5
D0
330
1F
100
AcDbEntity
  8
0
  6
Continuous
 62
     7
370
    15
100
AcDbLine
 10
216.7505213484
 20
176.4059472106
 30
0.0
 11
219.7505213484
 21
176.4059472106
 31
0.0
  0
LINE
  5
D1
330
1F
100
AcDbEntity
  8
0
  6
Continuous
 62
     7
370
    15
100
AcDbLine
 10
219.7505213484
 20
176.4059472106
 30
0.0
 11
219.7505213484
 21
179.4059472106
 31
0.0
  0
LINE
  5
D2
330
1F
100
AcDbEntity
  8
0
  6
Continuous
 62
     7
370
    15
100
AcDbLine
 10
219.7505213484
 20
179.4059472106
 30
0.0
 11
216.7505213484
 21
179.4059472106
 31
0.0
  0
LINE
  5
D3
330
1F
100
AcDbEntity
  8
0
  6
Continuous
 62
     7
370
    15
100
AcDbLine
 10
216.7505213484
 20
179.4059472106
 30
0.0
 11
216.7505213484
 21
182.4059472106
 31
0.0
  0
LINE
  5
D4
330
1F
100
AcDbEntity
  8
0
  6
Continuous
 62
     7
370
    15
100
AcDbLine
 10
216.7505213484
 20
182.4059472106
 30
0.0
 11
213.7505213484
 21
182.4059472106
 31
0.0
  0
LINE
  5
D5
330
1F
100
AcDbEntity
  8
0
  6
Continuous
 62
     7
370
    15
100
AcDbLine
 10
213.7505213484
 20
182.4059472106
 30
0.0
 11
213.7505213484
 21
179.4059472106
 31
0.0
  0
LINE
  5
D6
330
1F
100
AcDbEntity
  8
0
  6
Continuous
 62
     7
370
    15
100
AcDbLine
 10
213.7505213484
 20
179.4059472106
 30
0.0
 11
195.7505213484
 21
179.4059472106
 31
0.0
  0
LINE
  5
D7
330
1F
100
AcDbEntity
  8
0
  6
Continuous
 62
     7
370
    15
100
AcDbLine
 10
195.7505213484
 20
179.4059472106
 30
0.0
 11
195.7505213484
 21
182.4059472106
 31
0.0
  0
LINE
  5
D8
330
1F
100
AcDbEntity
  8
0
  6
Continuous
 62
     7
370
    15
100
AcDbLine
 10
195.7505213484
 20
182.4059472106
 30
0.0
 11
192.7505213484
 21
182.4059472106
 31
0.0
  0
LINE
  5
D9
330
1F
100
AcDbEntity
  8
0
  6
Continuous
 62
     7
370
    15
100
AcDbLine
 10
219.7505213484
 20
147.4059472106
 30
0.0
 11
224.7505213484
 21
152.4059472106
 31
0.0
  0
LINE
  5
DA
330
1F
100
AcDbEntity
  8
0
  6
Continuous
 62
     7
370
    15
100
AcDbLine
 10
189.7505213484
 20
147.4059472106
 30
0.0
 11
219.7505213484
 21
147.4059472106
 31
0.0
  0
LINE
  5
DB
330
1F
100
AcDbEntity
  8
0
  6
Continuous
 62
     7
370
    15
100
AcDbLine
 10
184.7505213484
 20
152.4059472106
 30
0.0
 11
189.7505213484
 21
147.4059472106
 31
0.0
  0
LINE
  5
DC
330
1F
100
AcDbEntity
  8
0
  6
Continuous
 62
     7
370
    15
100
AcDbLine
 10
184.7505213484
 20
152.4059472106
 30
0.0
 11
181.9505213484
 21
152.4059472106
 31
0.0
  0
ARC
  5
DD
330
1F
100
AcDbEntity
  8
0
  6
Continuous
 62
     7
370
    15
100
AcDbCircle
 10
181.9505213484
 20
155.4059472106
 30
0.0
 40
3.0
100
AcDbArc
 50
180.0
 51
270.0
  0
LINE
  5
DE
330
1F
100
AcDbEntity
  8
0
  6
Continuous
 62
     7
370
    15
100
AcDbLine
 10
178.9505213484
 20
155.4059472106
 30
0.0
 11
178.9505213484
 21
179.4059472106
 31
0.0
  0
ARC
  5
DF
330
1F
100
AcDbEntity
  8
0
  6
Continuous
 62
     7
370
    15
100
AcDbCircle
 10
181.9505213484
 20
179.4059472106
 30
0.0
 40
3.0
100
AcDbArc
 50
90.0
 51
180.0
  0
LINE
  5
E0
330
1F
100
AcDbEntity
  8
0
  6
Continuous
 62
     7
370
    15
100
AcDbLine
 10
181.9505213484
 20
182.4059472106
 30
0.0
 11
184.7505213484
 21
182.4059472106
 31
0.0
  0
LINE
  5
E1
330
1F
100
AcDbEntity
  8
0
  6
Continuous
 62
     7
370
    15
100
AcDbLine
 10
189.7505213484
 20
187.4059472106
 30
0.0
 11
184.7505213484
 21
182.4059472106
 31
0.0
  0
LINE
  5
E2
330
1F
100
AcDbEntity
  8
0
  6
Continuous
 62
     7
370
    15
100
AcDbLine
 10
219.7505213484
 20
187.4059472106
 30
0.0
 11
189.7505213484
 21
187.4059472106
 31
0.0
  0
LINE
  5
E3
330
1F
100
AcDbEntity
  8
0
  6
Continuous
 62
     7
370
    15
100
AcDbLine
 10
224.7505213484
 20
182.4059472106
 30
0.0
 11
219.7505213484
 21
187.4059472106
 31
0.0
  0
LINE
  5
E4
330
1F
100
AcDbEntity
  8
0
  6
Continuous
 62
     7
370
    15
100
AcDbLine
 10
224.7505213484
 20
182.4059472106
 30
0.0
 11
233.7505213484
 21
182.4059472106
 31
0.0
  0
ARC
  5
E5
330
1F
100
AcDbEntity
  8
0
  6
Continuous
 62
     7
370
    15
100
AcDbCircle
 10
233.7505213484
 20
179.4059472106
 30
0.0
 40
3.0
100
AcDbArc
 50
0.0
 51
90.0
  0
LINE
  5
E6
330
1F
100
AcDbEntity
  8
0
  6
Continuous
 62
     7
370
    15
100
AcDbLine
 10
236.7505213484
 20
179.4059472106
 30
0.0
 11
236.7505213484
 21
155.4059472106
 31
0.0
  0
ARC
  5
E7
330
1F
100
AcDbEntity
  8
0
  6
Continuous
 62
     7
370
    15
100
AcDbCircle
 10
233.7505213484
 20
155.4059472106
 30
0.0
 40
3.0
100
AcDbArc
 50
270.0
 51
0.0
  0
LINE
  5
E8
330
1F
100
AcDbEntity
  8
0
  6
Continuous
 62
     7
370
    15
100
AcDbLine
 10
233.7505213484
 20
152.4059472106
 30
0.0
 11
224.7505213484
 21
152.4059472106
 31
0.0
  0
CIRCLE
  5
E9
330
1F
100
AcDbEntity
  8
0
  6
Continuous
 62
     7
370
    15
100
AcDbCircle
 10
181.9505213484
 20
179.4059472106
 30
0.0
 40
1.25
  0
CIRCLE
  5
EA
330
1F
100
AcDbEntity
  8
0
  6
Continuous
 62
     7
370
    15
100
AcDbCircle
 10
181.9505213484
 20
155.4059472106
 30
0.0
 40
1.25
  0
CIRCLE
  5
EB
330
1F
100
AcDbEntity
  8
0
  6
Continuous
 62
     7
370
    15
100
AcDbCircle
 10
233.7505213484
 20
155.4059472106
 30
0.0
 40
1.25
  0
CIRCLE
  5
EC
330
1F
100
AcDbEntity
  8
0
  6
Continuous
 62
     7
370
    15
100
AcDbCircle
 10
233.7505213484
 20
179.4059472106
 30
0.0
 40
1.25
  0
ENDSEC
  0
SECTION
  2
OBJECTS
  0
DICTIONARY
  5
C
330
0
100
AcDbDictionary
281
     1
  3
ACAD_GROUP
350
D
  3
ACAD_LAYOUT
350
1A
  3
ACAD_MLINESTYLE
350
17
  3
ACAD_PLOTSETTINGS
350
19
  3
ACAD_PLOTSTYLENAME
350
E
  0
DICTIONARY
  5
D
102
{ACAD_REACTORS
330
C
102
}
330
C
100
AcDbDictionary
281
     1
  0
DICTIONARY
  5
1A
102
{ACAD_REACTORS
330
C
102
}
330
C
100
AcDbDictionary
281
     1
  3
Layout1
350
1E
  3
Layout2
350
26
  3
Model
350
22
  0
DICTIONARY
  5
17
102
{ACAD_REACTORS
330
C
102
}
330
C
100
AcDbDictionary
281
     1
  3
Standard
350
18
  0
DICTIONARY
  5
19
102
{ACAD_REACTORS
330
C
102
}
330
C
100
AcDbDictionary
281
     1
  0
ACDBDICTIONARYWDFLT
  5
E
102
{ACAD_REACTORS
330
C
102
}
330
C
100
AcDbDictionary
281
     1
  3
Normal
350
F
100
AcDbDictionaryWithDefault
340
F
  0
LAYOUT
  5
1E
102
{ACAD_REACTORS
330
1A
102
}
330
1A
100
AcDbPlotSettings
  1

  2
none_device
  4

  6

 40
0.0
 41
0.0
 42
0.0
 43
0.0
 44
0.0
 45
0.0
 46
0.0
 47
0.0
 48
0.0
 49
0.0
140
0.0
141
0.0
142
1.0
143
1.0
 70
   688
 72
     0
 73
     0
 74
     5
  7

 75
    16
147
1.0
148
0.0
149
0.0
100
AcDbLayout
  1
Layout1
 70
     1
 71
     1
 10
0.0
 20
0.0
 11
420.0
 21
297.0
 12
0.0
 22
0.0
 32
0.0
 14
1.0000000000E+20
 24
1.0000000000E+20
 34
1.0000000000E+20
 15
-1.0000000000E+20
 25
-1.0000000000E+20
 35
-1.0000000000E+20
146
0.0
 13
0.0
 23
0.0
 33
0.0
 16
1.0
 26
0.0
 36
0.0
 17
0.0
 27
1.0
 37
0.0
 76
     0
330
1B
  0
LAYOUT
  5
26
102
{ACAD_REACTORS
330
1A
102
}
330
1A
100
AcDbPlotSettings
  1

  2
none_device
  4

  6

 40
0.0
 41
0.0
 42
0.0
 43
0.0
 44
0.0
 45
0.0
 46
0.0
 47
0.0
 48
0.0
 49
0.0
140
0.0
141
0.0
142
1.0
143
1.0
 70
   688
 72
     0
 73
     0
 74
     5
  7

 75
    16
147
1.0
148
0.0
149
0.0
100
AcDbLayout
  1
Layout2
 70
     1
 71
     2
 10
0.0
 20
0.0
 11
0.0
 21
0.0
 12
0.0
 22
0.0
 32
0.0
 14
0.0
 24
0.0
 34
0.0
 15
0.0
 25
0.0
 35
0.0
146
0.0
 13
0.0
 23
0.0
 33
0.0
 16
1.0
 26
0.0
 36
0.0
 17
0.0
 27
1.0
 37
0.0
 76
     0
330
23
  0
LAYOUT
  5
22
102
{ACAD_REACTORS
330
1A
102
}
330
1A
100
AcDbPlotSettings
  1

  2
none_device
  4

  6

 40
0.0
 41
0.0
 42
0.0
 43
0.0
 44
0.0
 45
0.0
 46
0.0
 47
0.0
 48
0.0
 49
0.0
140
0.0
141
0.0
142
1.0
143
1.0
 70
  1712
 72
     0
 73
     0
 74
     0
  7

 75
     0
147
1.0
148
0.0
149
0.0
100
AcDbLayout
  1
Model
 70
     1
 71
     0
 10
0.0
 20
0.0
 11
1189.0
 21
841.0
 12
0.0
 22
0.0
 32
0.0
 14
0.0
 24
0.0
 34
0.0
 15
1189.0
 25
841.0
 35
0.0
146
0.0
 13
0.0
 23
0.0
 33
0.0
 16
1.0
 26
0.0
 36
0.0
 17
0.0
 27
1.0
 37
0.0
 76
     0
330
1F
331
29
  0
MLINESTYLE
  5
18
102
{ACAD_REACTORS
330
17
102
}
330
17
100
AcDbMlineStyle
  2
Standard
 70
     0
  3

 62
   256
 51
90.0
 52
90.0
 71
     2
 49
0.5
 62
   256
  6
BYLAYER
 49
-0.5
 62
   256
  6
BYLAYER
  0
ACDBPLACEHOLDER
  5
F
102
{ACAD_REACTORS
330
E
102
}
330
E
  0
ENDSEC
  0
EOF
